OFF
625 1222 0

0.078095119780775213 0.41768596596990559 -0.042966900018390285
0.078079020465378207 0.41771246069483503 -0.042951230644033403
0.077776662259973678 0.41820949650949196 -0.042654519163466624
0.077720679264570769 0.41834210911896424 -0.042563734840468187
0.077695846554987513 0.41840398351270847 -0.042525937424009584
0.077410572075543235 0.41875469555221162 -0.042382573216328066
0.077196128821415536 0.41901356360315545 -0.042270606521126061
0.076855669473719551 0.4194533287035862 -0.042118197085188852
0.076805845370096118 0.41949418216931239 -0.042112743220576884
0.07676401795703941 0.41954035906403064 -0.042099647314805505
0.076634145000952447 0.41961437997752388 -0.042108709057119574
0.076524177865033197 0.4196704509298923 -0.042121116976802014
0.076299660804660274 0.41976354748884759 -0.042151885860448671
0.075410782687198821 0.42024472549387615 -0.042245075037905165
0.075360355582130015 0.42026845825688952 -0.042251268107475634
0.075190073198095855 0.42030705952137193 -0.042299066347984554
0.074881219415735223 0.42040343873752545 -0.042368697314573614
0.074399788430046396 0.42032623012219605 -0.042624441474911824
0.074343247511667307 0.42025597385475022 -0.042694079762498435
0.074034050384506139 0.42027003855173029 -0.042836412527768562
0.073827775896932235 0.42032522883273321 -0.042903936677425314
0.073426218619575045 0.41981045000744177 -0.043488123838679268
0.073407145454619474 0.41977578048411279 -0.043523306760447751
0.07341215298258949 0.4197675881054066 -0.043526653595948393
0.073422360437686796 0.4197600892825627 -0.043526781267918119
0.073779994443484792 0.41951619894764852 -0.043517544290721105
0.073828089045238438 0.4194582642098823 -0.043536496658379463
0.073833341078787279 0.41939849244200611 -0.043581504124437176
0.073714221903518479 0.41930948851332339 -0.043721349758426252
0.07341344306088339 0.41926636845228926 -0.043928552362882775
0.072712635194995656 0.41910731178563615 -0.044461149378379333
0.072807669508731188 0.41895344499703885 -0.044538105865131461
0.07225496008691884 0.41888736452008579 -0.044926359902532402
0.072050248783698867 0.41918867110159452 -0.044786800198206106
0.072110608373397778 0.41929587386509615 -0.044657433426065513
0.071966807850588982 0.41945641539712819 -0.044611532352116921
0.071736151290588718 0.41958050356668508 -0.044651492502866624
0.071128526899719047 0.4195938004536488 -0.045023731301682093
0.070339403324208294 0.41978880546142705 -0.045370378258980125
0.070190446243325239 0.4198777993871457 -0.045395652788696519
0.070033155519067344 0.41995364775790767 -0.045437084637996797
0.069889627677200084 0.41986817477036109 -0.045600719026074203
0.069880790827648365 0.41986443645858357 -0.045609622076896582
0.069887571922610706 0.41986052517662931 -0.045608289459901613
0.07005248879151596 0.41974616374600698 -0.04559318573527063
0.070092345679649448 0.41973607862960993 -0.045575256558183133
0.070201762230914261 0.41967399874495548 -0.045556865786322939
0.071095817506979464 0.41946826501915879 -0.045151251266269135
0.07146199892085614 0.41907856435045415 -0.045251866464637469
0.071320679706916024 0.41877720230238302 -0.045607564819011612
0.071085584142282304 0.41882970597242319 -0.045715615679419175
0.070940055833681834 0.41883160284100496 -0.045812386556539006
0.070717505290035759 0.418931711127079 -0.045873242112414149
0.070085149778612937 0.41934735158687608 -0.045928562310924403
0.069771683861618722 0.41933750351537191 -0.046161661046125485
0.069282918166375704 0.41955332559816427 -0.046317166199579055
0.068642850851356463 0.42004911493093577 -0.046329069004812679
0.068540876128635228 0.42020348667159441 -0.046263156390470225
0.068384072183902439 0.42027878951703385 -0.046312248627829136
0.068333632342456513 0.42029880034585659 -0.04633195036943355
0.068328752256942488 0.42030136311572719 -0.046333384757735741
0.067465806194428851 0.42050332870781404 -0.046812855868640604
0.06809140824726187 0.42023968745063978 -0.046570638365930117
0.068362182893072526 0.41990751508604296 -0.046673500419885244
0.068602321274727956 0.4198529730698814 -0.046541896983376796
0.068905965834579627 0.41946610189154504 -0.046677615414387225
0.068934454381306853 0.41911864560482859 -0.046986062987867803
0.068498794598948767 0.41932542785162819 -0.047122338857044407
0.068441158492553986 0.41936000157274927 -0.047133508642114963
0.068407183685221862 0.41938182581606631 -0.047138720542479154
0.067571128696750582 0.41982544059510252 -0.047375473961830686
0.067343107176007472 0.41988657576545918 -0.047509546413725061
0.067026694607345672 0.41998794964197966 -0.047678564008584674
0.066690222365410667 0.42015946835981849 -0.047792702325199263
0.066185321716699497 0.42045719336009335 -0.047918522778077656
0.065725681364225366 0.4206445791364718 -0.048119117497316927
0.065392600185019162 0.42112555680218416 -0.047909378256612359
0.06505936666379325 0.42127405323710598 -0.048054527705549674
0.065051508214627518 0.42127678348958375 -0.048058527033177145
0.064994574562018292 0.42129953498559897 -0.048084317670744822
0.064935797466725453 0.42132044030805116 -0.0481137113647543
0.064710442009396879 0.42137700102397235 -0.048251691706774638
0.063864800054157816 0.42171174550269808 -0.048671437142131319
0.063408226196727119 0.42181756480592769 -0.048958008058981789
0.063340387894848027 0.42184126955551915 -0.048992468116450423
0.063003505219063782 0.42188491796617089 -0.049238935532035719
0.06342172902594026 0.42168696954889628 -0.049079186630038435
0.063690737015131921 0.42147286634197811 -0.049064702997857965
0.063807338317707907 0.42141175747015214 -0.049026187052821482
0.064436461829862013 0.42130838831363882 -0.0485666691268258
0.06499510282036014 0.42086724098323458 -0.048547134564132566
0.065038731290874743 0.4208652295591786 -0.048509533073182412
0.065467293967555948 0.42058367211089859 -0.048419507249432413
0.06536002185883133 0.42021024032619647 -0.048937133683578174
0.065097850553617304 0.4203274418606372 -0.049053592956510725
0.06493151522330895 0.42041280836048578 -0.049110546792189499
0.064858340051605262 0.42044517333208198 -0.049141373678834123
0.064516128451013566 0.42063520381723335 -0.049242533789141521
0.063751985712952652 0.420887943613523 -0.049720804014967181
0.063540349357476988 0.42092309364368552 -0.049896122832471704
0.063266321842578799 0.42104673678954585 -0.050008171374724852
0.062605984293641351 0.4215093106853508 -0.050077614035467566
0.062556921184812847 0.42143046426536757 -0.050241296243874536
0.062426861832384294 0.42096410734820716 -0.051030356214495316
0.062116649253842082 0.42108733702226275 -0.05120719588453175
0.062002169026664194 0.42114600390648405 -0.051244879431710078
0.061334994450022606 0.42139231030980207 -0.051664354213760297
0.060984003104225255 0.42152685669569423 -0.051877378491683827
0.060627335625846379 0.42166745796621657 -0.052087870171269229
0.060391653396574554 0.42178732575815014 -0.052170899819140401
0.060133655631995631 0.42185557324994816 -0.052392732432436931
0.059360159324290805 0.42215068116192911 -0.052901313735758945
0.059114935874685116 0.42225876636472237 -0.053037431139639865
0.058920831554869491 0.42237622769846728 -0.05307995138833034
0.058495865488832746 0.42270950159897724 -0.053043125568027649
0.05841240124745703 0.42273598640185306 -0.053115767623016674
0.058465856419552632 0.42240666460827925 -0.053689302548392742
0.058866602980414212 0.42220796038447084 -0.053507298101635903
0.05893773015250009 0.42217739603191662 -0.053461778648211833
0.05903712239793036 0.42212660056159557 -0.053420890917798836
0.059216818956488851 0.4220288295323098 -0.053363646499829026
0.059420143596951094 0.4219237562002307 -0.05328729604813711
0.060161845707938831 0.42163768041710692 -0.052806079364303302
0.060482313337755889 0.42148492600359955 -0.052671896994423456
0.060784938267027668 0.42133581797348368 -0.052557475761075861
0.061289442427347088 0.42106902083656295 -0.052404840577169112
0.061389283961505017 0.42104335221087463 -0.052317877685995516
0.061980993881078708 0.42086809233905964 -0.051855560664928385
0.06227259929666857 0.42075712723674774 -0.051684136510926335
0.062615498304441797 0.42044859662743772 -0.051861483906453537
0.06290559279557123 0.42021565294712193 -0.051944662229965646
0.063103505259911291 0.41997987656632241 -0.052184432281093908
0.062700837455035879 0.42010830176723196 -0.052533150301018988
0.062604026375866623 0.42013361774730318 -0.052630232601638238
0.062434158048905737 0.42021214530301698 -0.05269823694192538
0.062420147177211102 0.42021643152240207 -0.052710419551710769
0.061525295283788174 0.42056144501563419 -0.053307255900606892
0.061134739620715847 0.42075196219356681 -0.053466164479330502
0.060948031938800884 0.42085115498231412 -0.053518547145691597
0.060671608755084858 0.42099901364460413 -0.05359356460225248
0.060350716262989504 0.42101672148585517 -0.054127612514604337
0.059697948056291847 0.42149377231362795 -0.053982653176191497
0.059465785881986463 0.42162900446899221 -0.054027237558421343
0.059047468652121897 0.42182835351908654 -0.054239892296416445
0.058088282765751731 0.42256559485755107 -0.053940264843171035
0.057818834180156833 0.4226973800218502 -0.054082898592212818
0.057715871279773345 0.42275098364415237 -0.054130960283806026
0.057620087610309158 0.42280175795364283 -0.054173867809322304
0.057507546930060764 0.42286764117065878 -0.054204934852644937
0.056742926909311778 0.42324772866544841 -0.05462586401818556
0.056499750845581412 0.42337122895959001 -0.054753882821306332
0.056027122218534418 0.42362074077546585 -0.054981513962669454
0.055569258724373918 0.42389957991729665 -0.055085575229638119
0.055391643029035015 0.42399388953554307 -0.055156237913394135
0.055277493074304858 0.42402149539962286 -0.055299253553545868
0.054602846296323317 0.42435261955626208 -0.055713170593603978
0.054582809340266922 0.42426035636895187 -0.055987643075042857
0.054052119312455432 0.42447182263545041 -0.056337280386993462
0.053572384482383342 0.42519413987974192 -0.055367393853044927
0.053019243046511122 0.42547908141612523 -0.055683014541149205
0.052805581122262163 0.42550331022183308 -0.055941729598011275
0.052778745573620361 0.4255091303305728 -0.055969797875405951
0.052669608223336106 0.42554944607344153 -0.056047039084171107
0.052145107926209917 0.42550850579976568 -0.056938640209665922
0.052787604976550037 0.42531584552967894 -0.056384846126808136
0.05293618985350685 0.42525482479152898 -0.056303143364665888
0.053789660013598931 0.42458713200305004 -0.056539098612087134
0.054053589669830857 0.42444178788406101 -0.056413063218912013
0.054523690220156684 0.42402683470775437 -0.056696609482188146
0.054295138170217444 0.42409246887255231 -0.057001799985367613
0.054099956348496139 0.42414520563328517 -0.057273219129332975
0.053720981450491929 0.42424721723509057 -0.057801472713209318
0.053495942649460171 0.42438238249258142 -0.057804839321769566
0.053447154786224513 0.42440623112441156 -0.057820930354317408
0.053607547199059323 0.4242084991687014 -0.058208284021560613
0.054097231561542398 0.42386437415553013 -0.058433267885804649
0.054309274280393005 0.42353152011858114 -0.059350107155004328
0.054630383929455781 0.42338565525120608 -0.059141980121162986
0.054881526207071554 0.42316259217230667 -0.059457252572487788
0.055182870031930502 0.42295554950440173 -0.059512661101091741
0.055488675457110545 0.42267531145054638 -0.059807635192814172
0.055510779998010282 0.42265655963841609 -0.059822122158417111
0.055297557410355747 0.42272081166773057 -0.060031746503606723
0.055259650326623513 0.42267812252713421 -0.060231107461760081
0.055635104467119542 0.4223446868131514 -0.060422378238085758
0.056123032839397846 0.42201592441569946 -0.060421157588036456
0.056252564462742051 0.42210434545311543 -0.059958243083935117
0.056981715132375974 0.42162861974746946 -0.059787327528070602
0.057273858339932288 0.42147097108539289 -0.059636414252419487
0.057489179533044013 0.42135751600025984 -0.059514195107241152
0.057535927103784607 0.42133621780088182 -0.059474281124281186
0.057636163346267449 0.42129204294787126 -0.059382706144717648
0.058147536468781152 0.421095278716766 -0.05880072697068417
0.0581948378039438 0.42107520748006361 -0.058752536989538418
0.058210258498600009 0.42106880659397006 -0.058736396713589878
0.058495194521373972 0.42095251459307187 -0.058429978991477338
0.058617667499200984 0.42090321032095024 -0.058296198548977121
0.059464485667460265 0.42047905002939373 -0.057720047405195332
0.059782685602316823 0.42034962036984586 -0.057415105644338604
0.059784794830472929 0.4203488306401979 -0.057412815632909946
0.059786047598917508 0.42034805240615464 -0.057412673261363401
0.059787549793317622 0.42034710447755963 -0.057412560633631642
0.059920860057475378 0.42026748818394932 -0.057384816099520217
0.060676228740832311 0.41984159366533191 -0.057159793121540806
0.061077780086876268 0.41961437028168347 -0.057042900608600872
0.06113062261168823 0.41957193171301088 -0.057069273238053719
0.061369957745591813 0.41942649437762541 -0.057069449090752768
0.061469778453856538 0.41939308323127633 -0.057000046597429327
0.062291231662683647 0.41911050004717509 -0.056452550677932735
0.062436622803915258 0.41901947008772278 -0.056482653622978649
0.062618730389395028 0.41891159186096144 -0.056505070666687612
0.062641419091590461 0.41889994256191332 -0.056503403720788492
0.06276179543003689 0.41883035858297524 -0.056519586585557682
0.063030390977193068 0.41882215707472703 -0.056171505274383374
0.063494424565316149 0.41872123908539793 -0.05579677686461465
0.064202493004950123 0.41846790041050341 -0.055565704523652656
0.064282699469423568 0.41842008985968177 -0.055587823925012658
0.064592899357600334 0.4183828973922249 -0.055300139692417864
0.064677183378960987 0.41841757013547665 -0.054993474664458752
0.064721696331971779 0.41846335356229425 -0.054691330393949716
0.064688299492290574 0.41848318857682043 -0.054641520322754301
0.064672275367219145 0.41862427868987295 -0.053946217527668948
0.064667925487097072 0.41863356325680656 -0.053905534898748705
0.064548804937594184 0.41867528384592606 -0.053990894119792146
0.064408176294092415 0.41872131124670597 -0.054104687469014187
0.063927773477452307 0.41875095403409068 -0.055008424382153295
0.064123733724981674 0.4186053108843355 -0.055178844845030384
0.064088593007735561 0.41857618832379229 -0.055371253010602944
0.063622791297994585 0.41870778516900847 -0.055643511388693084
0.063781071643067178 0.41880414370994057 -0.055067163110344902
0.063458083254213898 0.41894082789742526 -0.055100125039598033
0.063250117211901616 0.41916339932475211 -0.054659848987461609
0.063176009097060989 0.41918877241572167 -0.054707553976717768
0.062665407082688307 0.41935475602889705 -0.055063277526483712
0.062170165887545786 0.41966156688420586 -0.054962089979261219
0.062218394770158572 0.41966392108593298 -0.054866177623218472
0.062055119573575561 0.41978823353548023 -0.05473757300222841
0.062062302663822809 0.41979695484139179 -0.054694603216811188
0.061839416830569427 0.41988526520017716 -0.054833914720127983
0.061782211326483732 0.41993103123738895 -0.054794979211062578
0.061320575854094138 0.42030751720729242 -0.054456699370706386
0.061306124311856586 0.42042870386870679 -0.054092957415025719
0.061379249858402068 0.42041160576519176 -0.054009223363780737
0.061604928060874919 0.42035536161205445 -0.053760909219452611
0.061905073031163105 0.42024615707096014 -0.053541890178973317
0.06245177448759124 0.41996742594439312 -0.053401038029558243
0.062746917885813769 0.41994390027958894 -0.052944077052159713
0.062776143044239535 0.41992955913340974 -0.052934870020053107
0.063484704897137173 0.41961478066634317 -0.052589204347009505
0.06379176419725241 0.41942389544917236 -0.052642008355213543
0.06401566228263153 0.41934490384252654 -0.052484839343377873
0.064211440507511333 0.41930953993182296 -0.05221721154461674
0.064773823125264168 0.41900139261889141 -0.052131622564023719
0.065372146276610227 0.41855307806814546 -0.052554747549753131
0.065517587134824043 0.41847686737977557 -0.052517756099565882
0.065586444300460275 0.41840963311529944 -0.052633204959959212
0.065421472787230137 0.41847925081382747 -0.052746981454021576
0.065319284600894978 0.41849428661696603 -0.052937335024502798
0.065460009730704011 0.41843795645023729 -0.052876240650300846
0.06581788653976077 0.41829854417243711 -0.052557136745247507
0.06600954111225707 0.41822290264891548 -0.052428102649531294
0.06606461577555936 0.41819570327715416 -0.052413088613870437
0.066625582760134028 0.41793217616288181 -0.052205574121482266
0.066735012966810475 0.41788098673696683 -0.052144033745801829
0.067476577679292438 0.41753379189742834 -0.051756433777369354
0.067807193925888964 0.41735033413531575 -0.051709163409535394
0.067962095208842957 0.41726395326863652 -0.051673205422650331
0.068163727728639892 0.41715139301014492 -0.05162252631870172
0.068913992532329937 0.416806532238854 -0.051105447552027977
0.069000049557651794 0.41676623005713398 -0.051054975341136899
0.069258586379881665 0.4166231462321448 -0.050999327162773306
0.069901599725898281 0.41627198240268881 -0.050790318257237635
0.070010486673132977 0.41625647208613975 -0.050574504821030923
0.070582857483043965 0.41604017385958691 -0.050137038057299105
0.070693057904795437 0.41599093693038824 -0.050081925971488014
0.071012800213340332 0.41586094701183363 -0.049853952787368788
0.071180874063226651 0.415768516085397 -0.049861593936499471
0.071471801982065958 0.41572277847810213 -0.049502566619306229
0.072024732909296341 0.41551795663919833 -0.04923830213926042
0.072081764526860784 0.41549167844094131 -0.049229315689452213
0.072189745617895221 0.41544487865569135 -0.049201824600852845
0.072447887926505611 0.41534494913761022 -0.049113592352261481
0.072656021663584286 0.41525219422305826 -0.049084903046042377
0.072669660301700523 0.41526901190168991 -0.049019118870844057
0.073018988479104402 0.41518776634645771 -0.048798037140799645
0.073100307497054179 0.41515896825143461 -0.048774834988867206
0.073412817237546113 0.41505401453006707 -0.048669321634508149
0.073715239540595778 0.41490860766409743 -0.04869255976797178
0.073745276433377915 0.41489639858349414 -0.048688483778161498
0.073996164688857585 0.41482150003749574 -0.048589929023166258
0.074202505635115185 0.41469538620414215 -0.048691496163674894
0.074275738991342405 0.4146555721578411 -0.04871354421350764
0.074447127783837941 0.41446419880575608 -0.049043111012018969
0.074484479623111166 0.41443792817837471 -0.049071238683567261
0.074577664713972536 0.41429325920040327 -0.049365405475954055
0.074197189292387472 0.41444307043818801 -0.049412317116480538
0.073933825220065003 0.41449791353428367 -0.049583087332607911
0.073833557956297619 0.41451230755638269 -0.04967206392135573
0.073812298189840655 0.41448475894889603 -0.049803983634933137
0.073926972043641348 0.41444662857248404 -0.049782275903065221
0.073951749069963171 0.41443808641642438 -0.049775247825709162
0.073980437001974514 0.4144271366255573 -0.049770578022158611
0.074015788388134288 0.41441423898013985 -0.049762874208482785
0.07442068162856913 0.41430135200402196 -0.049560608562427173
0.074562026876624943 0.41426199375234551 -0.049486848332557669
0.074643504543296713 0.41423941122458119 -0.049437661308708733
0.07504067369304912 0.41412758002998429 -0.049308762828934594
0.075149470311265371 0.41409709261269312 -0.049264175950301525
0.075321109760065424 0.41406206208950042 -0.049166989108928819
0.075497754995425659 0.41420597830794037 -0.048697226484099992
0.075731821057991602 0.41419576639946865 -0.048543669445946541
0.075991924419924417 0.41417361397918862 -0.048392137035879482
0.076036102598429994 0.41417345683018131 -0.048357874066503576
0.076348130681216361 0.4142441566932209 -0.047995445991730133
0.076386871959872926 0.41425123822196352 -0.047953292294716524
0.076679020137954079 0.41423953195803331 -0.047789313936501647
0.076734078994771721 0.41424038709440136 -0.047751173860006185
0.076885658342238039 0.41429859614665432 -0.047566031954519333
0.077280410866572738 0.41440444147000982 -0.04714951072578661
0.077328130602836609 0.4144112926192568 -0.047113416861371278
0.077354165159514959 0.41442932473226157 -0.04707503662350121
0.07740140622849459 0.41444453088582456 -0.047028291604140529
0.077464496964593191 0.41446684151834007 -0.04696058946488476
0.077502232058636322 0.41461311016434227 -0.046750554208262365
0.077563666842514395 0.41489952057643131 -0.046341164438104099
0.077591286519298794 0.41509049456794844 -0.046070206987156415
0.077613750079878571 0.41514676122550681 -0.045988209114310494
0.077976933496277837 0.41544195224244862 -0.045436053652706504
0.078008710573098994 0.41546270996867751 -0.045395180819264594
0.078025164484269563 0.41549814838629129 -0.045344816878050254
0.078064457193758624 0.41552326129542494 -0.045294932657916606
0.078134035322221462 0.41566800153460792 -0.045088012051599444
0.078320193753364409 0.41598907651916062 -0.044622891432764128
0.078325701730353303 0.41599660236255998 -0.044611769354727153
0.078346030937822275 0.41599691610821854 -0.044600915415771394
0.078635182047581326 0.41598690118599685 -0.044468312952298097
0.078647608316461587 0.41608842153991737 -0.044344406444818837
0.07867329887815859 0.41631221740807689 -0.044085058784472719
0.078682046267981753 0.41639161223388643 -0.043996023386766746
0.078588950904387972 0.41660707335159947 -0.043812439382426308
0.078509497713829229 0.41678396473184248 -0.043672374596976343
0.078406488856284026 0.41701959602795846 -0.043475829253556253
0.078383719462577384 0.41713897068660366 -0.043362167421419746
0.078361110672341749 0.41725562445527997 -0.043258070259863196
0.078125046408710097 0.41763719055477577 -0.042998099300930424
0.063839950047991784 0.42020956701037693 -0.050625215671729826
0.063757785338539014 0.42020402308703197 -0.05075824594840761
0.063734585824124224 0.42019441354707787 -0.050812489675328455
0.063605330223664075 0.42025323578626894 -0.05086628924365337
0.063282903317347594 0.42050746159753272 -0.050783826614626104
0.063686796066620671 0.4203139825535977 -0.050635214059075298
0.063744973471140678 0.42027474234291495 -0.050630538196286698
0.063763048094149719 0.42026374785471843 -0.050626603753462687
0.054542989174646631 0.42332997159572405 -0.059617026397551065
0.054494490087009309 0.4233303084635448 -0.059720400910130228
0.054365336716442517 0.42338114848828656 -0.059811664453911145
0.054148740188631583 0.42351485266954914 -0.059786221376645743
0.05417709866599104 0.42354558065998027 -0.059611827652264388
0.054330790746763079 0.42347620432432281 -0.05953593272411252
0.060168824681853236 0.42282641225558831 -0.050860401895753707
0.059610898799155806 0.42298431847472573 -0.051229710315242462
0.060159807587075537 0.42275669219175555 -0.050957953700202618
0.060336257958738773 0.42269012413541457 -0.050860554509963983
0.060436345384538653 0.42262896529005262 -0.050834931688569757
0.060634269714667136 0.42263659575873885 -0.050621485031470792
0.060320287931602601 0.42276822411704967 -0.050778120649320774
0.060273207990995933 0.42279304352460229 -0.050795172858077123
0.06584133845210946 0.41842003326080546 -0.052013223454068114
0.065629408886434315 0.41870183345395984 -0.051428102871763678
0.06561632777311778 0.41871089563035174 -0.051426273620995902
0.065583475213482414 0.41872542899861787 -0.051441558070763227
0.065834012552155027 0.41842131931293042 -0.052024640104711126
0.065841752674890147 0.41841761247860809 -0.052022062575729416
0.057102818464221522 0.42355556221189916 -0.053436085268321533
0.0564910186258335 0.42374115018188496 -0.053941926163020182
0.056473728077337984 0.42375360872081735 -0.053942813029484157
0.056205737934451314 0.42385970397880368 -0.054150935854463608
0.055781506213459384 0.42414395505374636 -0.054220562382692253
0.055264158602138416 0.42441404358400281 -0.054436462753982715
0.055085975943582374 0.4244532630286787 -0.054628437719211137
0.054368075512629815 0.42483903858687366 -0.054904018232627666
0.054167279157354128 0.42496857725224929 -0.054947644381711028
0.054044118096515506 0.42502613114479099 -0.055008263057482021
0.053824847075867793 0.42512335054163575 -0.055128889963813835
0.053726296183993327 0.4254282785761544 -0.054780053810886659
0.054042474635497335 0.42532534486086226 -0.054548639977873042
0.054095705320847592 0.42533938610814026 -0.05446127851722958
0.054433919062065517 0.42547276355708491 -0.053844239469250425
0.054981538450165533 0.42513772614671319 -0.053618288682886941
0.055310912852638394 0.42488670923605554 -0.053566405088900475
0.055545458126284072 0.42478133975520815 -0.053439301769383656
0.055556406622159896 0.42477404647026473 -0.053436286319498122
0.05649042353392443 0.42421089053087291 -0.053069557925706751
0.05662866043830117 0.42415489943500101 -0.05298139349999248
0.057024947918975666 0.42393990908511658 -0.052796133544839141
0.0554480284255345 0.42552404562779345 -0.052630758247229563
0.055775292843890566 0.42536819940504 -0.052450888028414681
0.056105816414420265 0.42556795954781751 -0.051902439327014216
0.055538776662225744 0.42586468650271392 -0.052186676900725953
0.055425690036054381 0.42591251680699738 -0.052250159485400891
0.055312638529109857 0.42597966463804571 -0.052293569997303044
0.055020876428528792 0.42606240840183635 -0.052499526295232232
0.054326575475111674 0.42635530433550783 -0.052925494573593718
0.053850091250394139 0.42648918882822523 -0.053262680030007642
0.053709520845855209 0.42656145797291134 -0.053330346023962763
0.053560321350773821 0.42659877334772489 -0.05344039954229815
0.053284422627938199 0.42654776638902425 -0.053760397053333076
0.053753197550549754 0.42631718887221376 -0.053524624202370169
0.053950706224503403 0.42618444927748211 -0.053459831861507011
0.054238896878597315 0.42605767445850906 -0.053300346282735042
0.054585329487306128 0.42596036948689908 -0.053040941413969249
0.055381291428971052 0.42557023469780131 -0.052649590460275925
0.052933057994595578 0.42617050617854241 -0.05470099171902932
0.052488371205759318 0.42662382592074843 -0.054597335590498411
0.052309848114663604 0.42672021995663056 -0.054692138606929147
0.051742074632512389 0.42688079814563407 -0.055170211823914531
0.051423102334990152 0.42704393567009941 -0.055325699616295201
0.05179320571328884 0.42705507981681112 -0.054898894865122505
0.052140603766847191 0.42699990005370536 -0.054554290309963158
0.052234972463352819 0.42697905848836898 -0.054467758175921824
0.052923794713360034 0.42667324686951613 -0.054022000716522675
0.053042008762672233 0.42664001856159861 -0.053929802339771328
0.053158171417955383 0.4265862227377778 -0.053856443211451291
0.053005544307985611 0.42613037519792291 -0.054664079213348704
0.051720410642972198 0.4255129824936289 -0.057707576012058198
0.051688265546363493 0.42556759970298613 -0.057582795760868444
0.051646623912929027 0.42558230861044349 -0.057629009445313219
0.051591868367612162 0.42557442269722323 -0.057750831580965792
0.058937971244190909 0.42324965987549956 -0.051599477400175661
0.059352085596584003 0.42307448947090021 -0.051383930370147685
0.058929942879946393 0.42320089097898272 -0.051666908605744424
0.058810964205163518 0.42323855980070102 -0.051743557794149922
0.058774498934978173 0.42325897990849803 -0.051756280791245647
0.058552698322306793 0.42335947916179006 -0.051862433383741635
0.058698612794316166 0.42335423543120176 -0.051718740083384042
0.058763034682427231 0.4233190247264017 -0.051695213530271608
0.051287107068230448 0.42559599370807977 -0.058282079647962136
0.051220513552989774 0.4255749051983756 -0.05848729538020056
0.051205670717293053 0.42557968973087212 -0.058504875735565308
0.051158105937093745 0.42560978465729227 -0.05851738455044149
0.05114178231649133 0.42564199845236605 -0.058456701484682794
0.051155533337325657 0.42563938273885232 -0.058435020206659985
0.074323959648609161 0.41515505313873291 -0.047694120556116104
0.075115017592906952 0.41510516405105591 -0.047302436083555222
0.059398744255304337 0.42104366421699524 -0.056028563529253006
0.058369845151901245 0.42132222652435303 -0.057509440928697586
0.056872975081205368 0.42241281270980835 -0.057271461933851242
0.057110130786895752 0.42200887203216553 -0.058275077491998672
0.058143261820077896 0.42171913385391235 -0.056630462408065796
0.075921289622783661 0.4180242121219635 -0.043716046959161758
0.076475329697132111 0.41668763756752014 -0.044754408299922943
0.076868407428264618 0.41741716861724854 -0.043825618922710419
0.074568070471286774 0.41785436868667603 -0.044553216546773911
0.075227901339530945 0.41651847958564758 -0.0455508753657341
0.075581617653369904 0.41723325848579407 -0.044637005776166916
0.073218800127506256 0.41766375303268433 -0.045479569584131241
0.074276141822338104 0.41706249117851257 -0.045485381036996841
0.071919672191143036 0.41743028163909912 -0.046538118273019791
0.0730128213763237 0.41686356067657471 -0.046437051147222519
0.070712678134441376 0.41719424724578857 -0.047747399657964706
0.069569393992424011 0.41780769824981689 -0.047971978783607483
0.071835771203041077 0.41664031147956848 -0.047540836036205292
0.069634601473808289 0.41705417633056641 -0.049079384654760361
0.068484976887702942 0.41767528653144836 -0.04938068613409996
0.070772290229797363 0.4164794385433197 -0.048782959580421448
0.067324236035346985 0.41831555962562561 -0.049689128994941711
0.076655536890029907 0.4148557186126709 -0.046867918223142624
0.077232159674167633 0.41622740030288696 -0.04488661140203476
0.076046787202358246 0.41604003310203552 -0.045667581260204315
0.076729200780391693 0.41563320159912109 -0.045814018696546555
0.074877932667732239 0.41590151190757751 -0.046419233083724976
0.075591236352920532 0.41550108790397644 -0.046531300991773605
0.074559547007083893 0.41542243957519531 -0.047180198132991791
0.073820658028125763 0.4157579243183136 -0.047220852226018906
0.075575895607471466 0.41481414437294006 -0.047496937215328217
0.074906922876834869 0.41464459896087646 -0.048207353800535202
0.076177135109901428 0.41515344381332397 -0.046692438423633575
0.075966715812683105 0.41455888748168945 -0.047702383249998093
0.072893187403678894 0.41615930199623108 -0.04735807329416275
0.074014231562614441 0.41635376214981079 -0.046391252428293228
0.07375817745923996 0.41529577970504761 -0.047905903309583664
0.066352769732475281 0.41833025217056274 -0.051216211169958115
0.059611890465021133 0.42065539956092834 -0.056838363409042358
0.060846976935863495 0.42002981901168823 -0.056275393813848495
0.071876488626003265 0.41598278284072876 -0.048483308404684067
0.0745868980884552 0.41490432620048523 -0.04793129488825798
0.060401789844036102 0.42088022828102112 -0.054430741816759109
0.068419367074966431 0.41845375299453735 -0.048215426504611969
0.055785350501537323 0.42271572351455688 -0.059030689299106598
0.074620924890041351 0.41425985097885132 -0.049413673579692841
0.057482402771711349 0.42137244343757629 -0.059493646025657654
0.067540585994720459 0.41770246624946594 -0.050853066146373749
0.074868112802505493 0.41871023178100586 -0.043626043945550919
0.055357355624437332 0.42358434200286865 -0.056434828788042068
0.070786952972412109 0.41804724931716919 -0.04668208584189415
0.062244467437267303 0.41919443011283875 -0.056306794285774231
0.063325546681880951 0.41896930336952209 -0.055249553173780441
0.062080156058073044 0.41946882009506226 -0.055759139358997345
0.061876829713582993 0.41981425881385803 -0.054997429251670837
0.060640923678874969 0.42040529847145081 -0.055492952466011047
0.07095617800951004 0.41593927145004272 -0.049697645008563995
0.063485831022262573 0.4187358021736145 -0.055770553648471832
0.056630983948707581 0.42289802432060242 -0.0559578537940979
0.066148146986961365 0.41896289587020874 -0.050001319497823715
0.065136164426803589 0.41895520687103271 -0.051572587341070175
0.06964585930109024 0.41869932413101196 -0.046859458088874817
0.062529981136322021 0.42090964317321777 -0.050999797880649567
0.054199408739805222 0.42381396889686584 -0.058401260524988174
0.06983792781829834 0.41648232936859131 -0.050090346485376358
0.073897868394851685 0.41493824124336243 -0.048420347273349762
0.055566474795341492 0.42311418056488037 -0.057874951511621475
0.077681638300418854 0.4169115424156189 -0.043935742229223251
0.064595825970172882 0.41850873827934265 -0.054740939289331436
0.063900873064994812 0.41957855224609375 -0.051937565207481384
0.061013605445623398 0.41973364353179932 -0.056838162243366241
0.077285289764404297 0.41529193520545959 -0.045968759804964066
0.059154357761144638 0.42153140902519226 -0.054920084774494171
0.057895123958587646 0.42220973968505859 -0.055437251925468445
0.077041387557983398 0.41459536552429199 -0.047035820782184601
0.072102531790733337 0.41831010580062866 -0.045533843338489532
0.068700104951858521 0.41707977652549744 -0.050475988537073135
0.066101148724555969 0.41978448629379272 -0.048753201961517334
0.06495329737663269 0.41961085796356201 -0.050319604575634003
0.075213916599750519 0.41441816091537476 -0.048463217914104462
0.067263603210449219 0.41911512613296509 -0.048476837575435638
0.055972512811422348 0.42235654592514038 -0.059850089251995087
0.076290704309940338 0.41433185338973999 -0.047893252223730087
0.075483404099941254 0.41421863436698914 -0.048685368150472641
0.073473416268825531 0.41853049397468567 -0.044520292431116104
0.058559048920869827 0.4210040271282196 -0.058125078678131104
0.07518315315246582 0.41963514685630798 -0.042736902832984924
0.076243773102760315 0.41887781023979187 -0.042823527008295059
0.057311959564685822 0.42167371511459351 -0.058976788073778152
0.077854610979557037 0.41584780812263489 -0.045018896460533142
0.078356891870498657 0.41650664806365967 -0.044034842401742935
0.078065238893032074 0.41767141222953796 -0.042993973940610886
0.077218309044837952 0.41821065545082092 -0.042916286736726761
0.072896115481853485 0.4155832827091217 -0.048184633255004883
0.054350689053535461 0.42342504858970642 -0.059707783162593842
0.076586239039897919 0.41797780990600586 -0.043201558291912079
0.076724156737327576 0.41742965579032898 -0.043630789965391159
0.075994543731212616 0.41837504506111145 -0.043190103024244308
0.075937524437904358 0.41773474216461182 -0.04378189891576767
0.076222904026508331 0.41883689165115356 -0.042699150741100311
0.074848257005214691 0.41826823353767395 -0.043931476771831512
0.075964808464050293 0.41690000891685486 -0.044568527489900589
0.074837483465671539 0.41728317737579346 -0.044829282909631729
0.074860267341136932 0.41608572006225586 -0.046043843030929565
0.075954169034957886 0.41583693027496338 -0.04572412371635437
0.076829329133033752 0.41665729880332947 -0.044372346252202988
0.077493801712989807 0.41654467582702637 -0.04419906809926033
0.077852159738540649 0.4173017144203186 -0.043228436261415482
0.076785676181316376 0.41565462946891785 -0.045553196221590042
0.070241920650005341 0.41721472144126892 -0.048013858497142792
0.068546019494533539 0.41779711842536926 -0.04888511449098587
0.071909777820110321 0.41673979163169861 -0.047234423458576202
0.073434263467788696 0.41771554946899414 -0.045244593173265457
0.073483720421791077 0.41637489199638367 -0.046565964818000793
0.066903539001941681 0.41841888427734375 -0.049841731786727905
0.058249253779649734 0.42181059718132019 -0.055868156254291534
0.076922021806240082 0.41815054416656494 -0.042882218956947327
0.07732989639043808 0.41734489798545837 -0.043409712612628937
0.07648911327123642 0.41921362280845642 -0.04231717437505722
0.077303506433963776 0.41833090782165527 -0.042564272880554199
0.056143302470445633 0.42337325215339661 -0.055341456085443497
0.05974305048584938 0.42118373513221741 -0.054766252636909485
0.073422536253929138 0.41976982355117798 -0.043518859893083572
0.074934884905815125 0.41900989413261414 -0.043261736631393433
0.075294949114322662 0.42013919353485107 -0.042299989610910416
0.056919287890195847 0.42233383655548096 -0.057073764503002167
0.055871017277240753 0.42271155118942261 -0.058420281857252121
0.066750206053256989 0.41948646306991577 -0.048433702439069748
0.074941977858543396 0.41486755013465881 -0.047574374824762344
0.068442277610301971 0.41897186636924744 -0.047501523047685623
0.070153042674064636 0.41851833462715149 -0.046625714749097824
0.068332329392433167 0.42025625705718994 -0.046364873647689819
0.070426754653453827 0.41623222827911377 -0.049568191170692444
0.059139762073755264 0.42076155543327332 -0.057438764721155167
0.070046231150627136 0.4198225736618042 -0.045528929680585861
0.067268714308738708 0.41763624548912048 -0.051368985325098038
0.059164721518754959 0.42211249470710754 -0.05322478711605072
0.060664523392915726 0.42153680324554443 -0.052244670689105988
0.065982133150100708 0.41823497414588928 -0.052393082529306412
0.065391182899475098 0.41900381445884705 -0.050831224769353867
0.075094558298587799 0.41960829496383667 -0.042715605348348618
0.052818901836872101 0.42540541291236877 -0.056079216301441193
0.053781434893608093 0.42416960000991821 -0.057916890829801559
0.054822001606225967 0.42385268211364746 -0.05658629909157753
0.062664143741130829 0.41894465684890747 -0.056320313364267349
0.078016124665737152 0.41552093625068665 -0.045307327061891556
0.061939649283885956 0.41974326968193054 -0.055101975798606873
0.062646955251693726 0.42005285620689392 -0.052752777934074402
0.068772397935390472 0.41693809628486633 -0.050415333360433578
0.078073762357234955 0.41647720336914062 -0.044017486274242401
0.057638939470052719 0.42275473475456238 -0.054238930344581604
0.0734066441655159 0.41888993978500366 -0.044234875589609146
0.071829363703727722 0.41811919212341309 -0.045849211513996124
0.071748264133930206 0.4194093644618988 -0.044775571674108505
0.062130492180585861 0.42102447152137756 -0.051278475672006607
0.063601985573768616 0.4205261766910553 -0.050320610404014587
0.06399901956319809 0.41953280568122864 -0.051793403923511505
0.076706081628799438 0.4145304262638092 -0.047083944082260132
0.075959622859954834 0.41467052698135376 -0.047242451459169388
0.063410870730876923 0.42175689339637756 -0.049004405736923218
0.064996615052223206 0.42124834656715393 -0.048121947795152664
0.06513281911611557 0.42000934481620789 -0.049375399947166443
0.075141072273254395 0.4141002893447876 -0.049214214086532593
0.073966555297374725 0.41442874073982239 -0.049738381057977676
0.073625922203063965 0.41514864563941956 -0.048122186213731766
0.078714974224567413 0.41646185517311096 -0.04371311143040657
0.060409907251596451 0.42031347751617432 -0.056167595088481903
0.061237052083015442 0.42058119177818298 -0.053731944411993027
0.077328130602836609 0.41446581482887268 -0.046982638537883759
0.077447757124900818 0.41556507349014282 -0.045428939163684845
0.077692754566669464 0.41831842064857483 -0.042445644736289978
0.078381583094596863 0.41719299554824829 -0.043151773512363434
0.072088822722434998 0.41560858488082886 -0.048802077770233154
0.058768033981323242 0.42327797412872314 -0.051731951534748077
0.054126016795635223 0.4250389039516449 -0.054844371974468231
0.05561872199177742 0.42449072003364563 -0.053716234862804413
0.053725097328424454 0.42641353607177734 -0.053425151854753494
0.055320046842098236 0.42584869265556335 -0.052374452352523804
0.052255243062973022 0.42686125636100769 -0.054543349891901016
0.06032315269112587 0.42273616790771484 -0.050805296748876572
0.051177982240915298 0.4256037175655365 -0.058472301810979843
3  485 509 442
3  442 509 480
3  480 473 442
3  442 473 472
3  472 443 442
3  442 443 485
3  75 92 76
3  92 521 93
3  81 90 89
3  89 88 82
3  82 88 87
3  96 345 352
3  100 99 349
3  348 130 349
3  131 130 513
3  103 127 104
3  123 110 109
3  244 136 135
3  135 134 246
3  137 243 242
3  141 486 516
3  240 486 241
3  499 444 486
3  486 444 516
3  448 517 444
3  444 517 516
3  444 499 482
3  482 499 483
3  444 482 448
3  448 482 445
3  447 446 445
3  445 446 448
3  445 482 529
3  198 482 199
3  445 529 447
3  447 529 532
3  525 488 532
3  532 488 447
3  195 529 196
3  532 490 525
3  185 525 186
3  488 507 510
3  180 488 525
3  170 510 507
3  169 168 510
3  510 493 446
3  446 493 502
3  446 447 510
3  510 447 488
3  152 493 154
3  150 149 502
3  517 448 502
3  502 448 446
3  117 115 114
3  143 516 144
3  145 517 146
3  119 111 120
3  337 336 534
3  340 511 341
3  343 535 344
3  1 535 2
3  5 536 6
3  7 531 8
3  536 535 451
3  451 535 511
3  451 449 536
3  536 449 531
3  449 492 531
3  531 492 530
3  449 451 454
3  454 451 450
3  454 452 449
3  449 452 492
3  452 528 492
3  27 492 28
3  452 454 456
3  456 454 453
3  456 455 452
3  452 455 528
3  455 519 528
3  32 528 519
3  455 456 458
3  458 456 479
3  458 457 455
3  455 457 519
3  457 494 519
3  51 50 494
3  457 458 461
3  461 458 478
3  461 459 457
3  457 459 494
3  459 460 494
3  494 460 505
3  459 461 464
3  464 461 484
3  464 462 459
3  459 462 460
3  462 463 460
3  460 463 487
3  462 464 508
3  508 464 500
3  508 520 462
3  462 520 463
3  520 491 463
3  463 491 465
3  270 520 508
3  266 520 267
3  265 491 266
3  263 481 491
3  255 259 258
3  223 220 224
3  217 226 218
3  229 228 496
3  501 215 214
3  211 501 213
3  210 495 211
3  196 529 197
3  201 483 514
3  200 482 483
3  483 497 514
3  514 497 495
3  206 514 207
3  497 483 498
3  498 483 499
3  232 496 233
3  497 496 495
3  495 496 501
3  230 232 231
3  247 131 248
3  250 513 251
3  504 513 522
3  346 522 513
3  522 503 504
3  368 503 481
3  254 371 259
3  503 522 521
3  521 524 503
3  503 524 465
3  503 465 481
3  481 465 491
3  72 524 521
3  68 524 69
3  68 487 524
3  524 487 465
3  465 487 463
3  65 55 66
3  67 66 487
3  487 505 460
3  45 44 40
3  51 494 52
3  48 37 36
3  32 519 48
3  19 25 20
3  13 530 14
3  26 19 18
3  27 26 492
3  12 531 530
3  160 164 161
3  157 166 158
3  172 507 174
3  167 157 156
3  309 527 310
3  314 526 315
3  518 526 466
3  466 526 477
3  466 515 518
3  324 515 325
3  321 518 323
3  321 323 322
3  515 466 469
3  469 466 476
3  515 469 533
3  533 469 467
3  330 533 331
3  469 468 467
3  467 468 450
3  467 450 511
3  511 450 451
3  511 534 467
3  467 534 533
3  471 470 468
3  468 470 453
3  468 453 450
3  450 453 454
3  468 469 471
3  471 469 476
3  470 479 453
3  453 479 456
3  471 443 470
3  470 443 472
3  472 473 470
3  470 473 479
3  476 474 471
3  471 474 443
3  474 475 443
3  443 475 485
3  474 476 477
3  477 476 466
3  477 523 474
3  474 523 475
3  292 523 293
3  523 477 527
3  527 477 526
3  527 489 523
3  293 489 294
3  302 295 303
3  295 299 296
3  305 489 306
3  283 537 284
3  279 484 537
3  284 537 285
3  286 480 509
3  537 484 478
3  478 484 461
3  537 478 480
3  480 478 473
3  277 484 278
3  484 500 464
3  275 500 276
3  274 273 500
3  289 485 290
3  291 485 475
3  458 479 478
3  478 479 473
3  290 485 291
3  475 292 291
3  285 480 286
3  287 286 509
3  484 277 500
3  0 344 535
3  262 481 263
3  512 219 218
3  220 219 512
3  482 198 529
3  11 531 12
3  199 482 200
3  530 26 18
3  25 19 26
3  200 483 201
3  278 484 279
3  190 189 490
3  493 155 154
3  489 304 303
3  530 13 12
3  517 145 516
3  505 52 494
3  485 289 509
3  81 89 82
3  31 528 32
3  345 522 346
3  129 349 130
3  129 506 349
3  220 223 221
3  220 512 224
3  518 315 526
3  489 305 304
3  486 240 499
3  140 486 141
3  497 233 496
3  236 235 498
3  345 96 522
3  96 95 522
3  520 266 491
3  506 103 102
3  66 505 487
3  67 487 68
3  500 275 274
3  253 252 504
3  176 175 507
3  169 510 170
3  26 530 492
3  340 339 534
3  232 230 496
3  268 267 520
3  507 488 177
3  488 178 177
3  507 177 176
3  535 343 511
3  343 342 511
3  521 92 75
3  74 521 75
3  178 488 179
3  179 488 180
3  513 348 347
3  130 348 513
3  513 347 346
3  155 493 156
3  156 493 168
3  167 156 168
3  131 247 132
3  131 513 248
3  480 285 537
3  527 306 489
3  516 143 142
3  516 142 141
3  534 339 338
3  534 338 337
3  504 371 253
3  367 368 481
3  370 371 504
3  371 254 253
3  489 293 523
3  490 191 190
3  272 508 273
3  273 508 500
3  529 194 532
3  195 194 529
3  505 66 55
3  54 505 55
3  264 263 491
3  265 264 491
3  163 162 164
3  161 164 162
3  507 172 171
3  507 171 170
3  256 255 258
3  495 207 514
3  206 205 514
3  205 204 514
3  528 28 492
3  38 37 47
3  46 45 38
3  46 38 47
3  493 152 502
3  153 152 154
3  49 494 50
3  49 519 494
3  501 211 495
3  209 208 495
3  210 209 495
3  213 501 214
3  211 213 212
3  226 225 512
3  228 501 496
3  151 150 502
3  152 151 502
3  233 497 234
3  234 497 498
3  235 234 498
3  239 498 499
3  239 238 498
3  240 239 499
3  515 324 518
3  244 243 136
3  241 138 137
3  241 486 138
3  242 241 137
3  243 137 136
3  277 276 500
3  501 217 215
3  215 217 216
3  149 517 502
3  503 368 369
3  503 370 504
3  503 369 370
3  486 140 138
3  140 139 138
3  504 252 251
3  251 513 504
3  98 97 352
3  351 98 352
3  352 97 96
3  159 165 160
3  159 166 165
3  160 165 164
3  505 54 53
3  505 53 52
3  123 122 110
3  108 107 123
3  109 108 123
3  126 125 107
3  106 126 107
3  107 125 124
3  107 124 123
3  128 127 506
3  129 128 506
3  71 524 72
3  175 174 507
3  172 174 173
3  525 185 184
3  184 183 525
3  367 262 372
3  255 254 259
3  262 367 481
3  262 261 372
3  372 261 260
3  260 259 371
3  372 260 371
3  490 188 525
3  187 525 188
3  187 186 525
3  272 271 508
3  508 271 270
3  294 303 295
3  294 489 303
3  300 299 295
3  302 301 295
3  301 300 295
3  509 289 288
3  509 288 287
3  297 296 299
3  298 297 299
3  116 115 117
3  127 103 506
3  106 127 126
3  105 127 106
3  104 127 105
3  168 493 510
3  527 309 308
3  308 307 527
3  307 306 527
3  535 1 0
3  526 314 313
3  526 313 312
3  526 312 311
3  324 323 518
3  320 318 518
3  320 319 318
3  321 320 518
3  258 257 256
3  222 221 223
3  531 6 536
3  102 100 506
3  102 101 100
3  511 340 534
3  341 511 342
3  512 225 224
3  230 229 496
3  513 250 249
3  513 249 248
3  514 203 202
3  514 202 201
3  515 327 326
3  515 326 325
3  498 238 236
3  237 236 238
3  228 217 501
3  226 512 218
3  227 226 217
3  228 227 217
3  145 144 516
3  517 149 148
3  517 147 146
3  517 148 147
3  166 157 167
3  166 159 158
3  48 47 37
3  36 33 48
3  35 34 33
3  36 35 33
3  533 327 515
3  329 327 533
3  330 329 533
3  328 327 329
3  42 41 43
3  495 208 207
3  64 55 65
3  64 56 55
3  518 318 317
3  518 317 315
3  316 315 317
3  133 132 247
3  246 134 133
3  247 246 133
3  135 246 245
3  245 244 135
3  118 117 113
3  114 113 117
3  118 113 119
3  119 113 112
3  119 112 111
3  49 48 519
3  33 32 48
3  91 77 76
3  91 90 77
3  92 91 76
3  268 520 269
3  269 520 270
3  81 80 90
3  78 77 90
3  80 79 90
3  79 78 90
3  521 74 73
3  521 73 72
3  506 100 349
3  98 351 99
3  99 351 350
3  99 350 349
3  204 203 514
3  93 521 522
3  94 93 522
3  95 94 522
3  110 122 111
3  121 120 111
3  122 121 111
3  83 87 86
3  83 86 84
3  87 83 82
3  84 86 85
3  523 292 475
3  71 70 524
3  524 70 69
3  525 183 181
3  181 183 182
3  525 181 180
3  526 311 310
3  310 527 526
3  31 29 528
3  528 29 28
3  31 30 29
3  60 59 62
3  60 62 61
3  332 331 533
3  334 336 335
3  198 197 529
3  40 44 41
3  40 39 45
3  44 43 41
3  39 38 45
3  21 20 25
3  24 21 25
3  23 22 24
3  22 21 24
3  282 281 283
3  18 17 530
3  14 530 15
3  16 530 17
3  15 530 16
3  531 10 8
3  531 11 10
3  6 531 7
3  8 10 9
3  56 64 63
3  56 63 58
3  59 58 63
3  57 56 58
3  59 63 62
3  191 490 532
3  192 191 532
3  194 193 532
3  532 193 192
3  336 334 534
3  333 533 534
3  333 332 533
3  334 333 534
3  536 5 4
3  536 4 3
3  536 2 535
3  2 536 3
3  537 283 281
3  279 537 280
3  280 537 281
3  189 188 490
3  375 392 374
3  379 387 388
3  390 376 377
3  387 379 380
3  381 382 386
3  387 380 386
3  386 380 381
3  394 373 393
3  383 384 382
3  385 386 382
3  382 384 385
3  376 392 375
3  376 390 391
3  376 391 392
3  393 373 392
3  392 373 374
3  389 390 377
3  389 377 378
3  378 379 388
3  388 389 378
3  428 430 431
3  430 428 429
3  433 434 432
3  431 432 435
3  432 434 435
3  431 435 428
3  359 361 360
3  361 359 366
3  366 362 361
3  364 363 365
3  362 365 363
3  366 365 362
3  426 424 427
3  425 424 426
3  412 421 423
3  420 412 413
3  420 421 412
3  416 417 415
3  422 423 421
3  419 420 413
3  414 417 418
3  415 417 414
3  413 414 419
3  414 418 419
3  401 400 411
3  410 402 401
3  395 398 396
3  402 409 403
3  410 409 402
3  411 400 399
3  399 398 395
3  411 399 395
3  401 411 410
3  409 408 403
3  406 405 407
3  407 403 408
3  404 403 407
3  407 405 404
3  397 396 398
3  356 357 538
3  358 538 357
3  538 358 353
3  355 356 538
3  353 354 538
3  355 538 354
3  437 438 441
3  438 440 441
3  437 441 436
3  438 439 440
3  226 216 222
3  7 563 614
3  9 562 8
3  563 551 614
3  614 551 615
3  551 593 615
3  615 593 609
3  540 561 539
3  539 561 560
3  539 560 541
3  541 560 543
3  541 542 539
3  539 542 540
3  10 562 9
3  17 584 568
3  568 584 562
3  562 584 543
3  21 584 20
3  584 566 567
3  584 567 543
3  543 567 541
3  567 595 544
3  567 544 541
3  541 544 542
3  595 556 544
3  544 556 546
3  544 546 542
3  542 546 545
3  546 547 545
3  545 547 548
3  548 552 545
3  545 552 549
3  549 540 545
3  545 540 542
3  552 613 549
3  549 613 550
3  550 561 549
3  549 561 540
3  613 589 550
3  550 589 593
3  593 551 550
3  550 551 561
3  613 552 612
3  612 552 601
3  322 612 321
3  267 592 579
3  273 576 272
3  553 554 576
3  576 554 592
3  576 616 553
3  553 616 555
3  596 574 555
3  555 574 553
3  616 608 555
3  555 608 557
3  555 557 596
3  596 557 556
3  608 572 557
3  557 572 547
3  557 547 556
3  556 547 546
3  572 608 606
3  311 602 572
3  572 602 547
3  547 602 548
3  602 601 548
3  548 601 552
3  574 573 553
3  553 573 554
3  50 51 596
3  46 47 578
3  595 596 556
3  73 571 72
3  571 605 558
3  558 605 583
3  558 554 571
3  571 554 573
3  558 583 579
3  369 368 583
3  579 592 558
3  558 592 554
3  605 599 583
3  128 129 598
3  251 600 250
3  125 126 581
3  239 610 590
3  610 611 565
3  205 590 610
3  565 559 610
3  610 559 577
3  205 610 204
3  559 569 577
3  194 569 193
3  193 569 192
3  186 570 181
3  181 184 186
3  87 88 603
3  565 594 559
3  594 564 559
3  559 564 569
3  153 154 564
3  564 587 569
3  569 587 570
3  165 166 585
3  587 586 570
3  177 570 586
3  262 579 582
3  560 563 543
3  543 563 562
3  560 561 563
3  563 561 551
3  563 8 562
3  584 21 566
3  16 17 568
3  589 329 330
3  34 35 597
3  30 595 29
3  566 23 24
3  319 320 612
3  316 317 601
3  562 10 568
3  8 563 7
3  578 39 40
3  588 209 210
3  604 79 80
3  568 15 16
3  83 84 603
3  173 174 586
3  607 301 302
3  300 301 607
3  589 328 329
3  181 182 184
3  185 186 184
3  183 184 182
3  6 7 614
3  4 5 614
3  614 5 6
3  580 110 111
3  581 109 110
3  581 110 580
3  580 111 112
3  59 60 575
3  58 59 575
3  577 195 196
3  577 196 197
3  570 192 569
3  249 600 248
3  248 600 591
3  246 247 591
3  591 247 248
3  320 321 612
3  57 58 575
3  42 578 41
3  41 578 40
3  206 590 205
3  586 174 175
3  176 177 175
3  586 175 177
3  36 597 35
3  566 22 23
3  159 585 158
3  160 161 585
3  159 160 585
3  151 152 564
3  564 152 153
3  582 260 261
3  156 154 155
3  156 587 154
3  154 587 564
3  148 594 147
3  564 594 149
3  594 148 149
3  564 149 150
3  564 150 151
3  580 112 113
3  580 113 114
3  162 585 161
3  212 213 588
3  14 15 568
3  565 142 143
3  565 143 594
3  580 116 117
3  118 580 117
3  580 118 119
3  594 143 144
3  580 119 120
3  158 585 157
3  157 585 587
3  156 157 587
3  565 140 141
3  611 139 140
3  580 120 121
3  611 140 565
3  565 141 142
3  21 22 566
3  581 598 106
3  598 105 106
3  581 106 107
3  581 107 108
3  611 591 136
3  591 134 135
3  581 124 125
3  591 135 136
3  611 136 137
3  249 250 600
3  233 590 588
3  233 234 590
3  231 232 588
3  588 232 233
3  179 180 570
3  186 187 570
3  570 180 181
3  75 76 604
3  73 74 571
3  75 604 571
3  74 75 571
3  604 76 77
3  604 77 78
3  83 603 82
3  81 603 604
3  81 82 603
3  80 81 604
3  599 97 98
3  605 97 599
3  603 86 87
3  98 99 599
3  573 70 71
3  71 571 573
3  72 571 71
3  57 575 56
3  56 575 574
3  43 44 578
3  42 43 578
3  53 54 574
3  55 56 574
3  54 55 574
3  53 574 52
3  51 574 596
3  52 574 51
3  45 46 578
3  44 45 578
3  598 104 105
3  607 298 299
3  607 299 300
3  572 310 311
3  311 312 602
3  567 566 25
3  567 26 27
3  595 567 28
3  25 566 24
3  567 25 26
3  595 28 29
3  567 27 28
3  568 10 12
3  12 10 11
3  568 12 13
3  568 13 14
3  575 60 61
3  569 195 577
3  194 195 569
3  259 260 582
3  257 259 582
3  257 258 259
3  327 589 613
3  327 328 589
3  326 327 613
3  179 177 178
3  179 570 177
3  133 134 591
3  128 598 127
3  126 598 581
3  127 598 126
3  172 586 171
3  585 163 164
3  585 164 165
3  172 173 586
3  342 343 615
3  341 342 615
3  191 192 570
3  570 187 188
3  570 188 191
3  191 188 190
3  190 188 189
3  597 36 37
3  38 39 578
3  597 37 578
3  578 37 38
3  109 581 108
3  571 92 93
3  571 93 605
3  605 93 94
3  92 571 604
3  91 92 604
3  78 79 604
3  606 308 309
3  309 310 572
3  606 309 572
3  208 588 590
3  206 207 590
3  208 209 588
3  207 208 590
3  216 227 215
3  226 222 223
3  224 226 223
3  227 216 226
3  225 226 224
3  585 162 163
3  218 219 220
3  220 221 216
3  218 220 216
3  221 222 216
3  217 218 216
3  614 2 3
3  614 3 4
3  257 582 255
3  253 254 252
3  255 582 254
3  257 255 256
3  254 582 252
3  252 582 600
3  251 252 600
3  577 202 610
3  204 610 203
3  203 610 202
3  582 261 262
3  263 264 579
3  262 263 579
3  574 575 64
3  574 66 573
3  64 575 63
3  574 64 65
3  66 67 573
3  68 69 573
3  67 68 573
3  574 65 66
3  602 312 313
3  264 265 579
3  579 266 267
3  579 265 266
3  592 271 272
3  272 576 592
3  69 70 573
3  63 575 62
3  62 575 61
3  273 274 576
3  275 276 576
3  274 275 576
3  600 345 347
3  583 345 600
3  345 583 599
3  350 351 599
3  346 347 345
3  352 345 599
3  351 352 599
3  280 616 279
3  279 616 278
3  278 616 277
3  277 616 576
3  276 277 576
3  199 202 577
3  201 202 200
3  199 200 202
3  197 198 577
3  577 198 199
3  296 297 607
3  287 608 286
3  284 608 616
3  286 608 285
3  284 285 608
3  287 288 608
3  283 284 616
3  282 283 616
3  341 609 340
3  341 615 609
3  339 340 609
3  338 339 609
3  611 242 243
3  590 237 238
3  590 238 239
3  244 245 591
3  611 244 591
3  611 243 244
3  599 99 100
3  85 86 603
3  599 100 101
3  597 578 47
3  49 50 596
3  597 48 596
3  596 48 49
3  597 47 48
3  588 213 230
3  215 227 228
3  213 214 230
3  214 228 230
3  230 228 229
3  588 230 231
3  215 228 214
3  318 612 601
3  318 319 612
3  317 318 601
3  579 583 368
3  579 367 582
3  582 367 372
3  579 368 367
3  581 580 122
3  611 137 138
3  611 138 139
3  581 123 124
3  122 580 121
3  581 122 123
3  600 371 370
3  600 370 583
3  371 600 582
3  372 371 582
3  583 370 369
3  307 606 306
3  306 606 305
3  302 303 607
3  305 303 304
3  305 606 607
3  303 305 607
3  20 584 19
3  18 584 17
3  19 584 18
3  587 585 167
3  587 169 170
3  586 587 170
3  587 167 168
3  167 585 166
3  586 170 171
3  587 168 169
3  603 84 85
3  211 212 588
3  210 211 588
3  599 102 103
3  102 599 101
3  103 104 598
3  599 103 598
3  333 593 332
3  331 593 589
3  331 332 593
3  330 331 589
3  591 245 246
3  234 235 236
3  236 237 590
3  234 236 590
3  130 598 129
3  600 130 131
3  600 598 130
3  591 131 132
3  600 131 591
3  591 132 133
3  592 269 270
3  592 270 271
3  269 592 268
3  268 592 267
3  606 307 308
3  335 609 593
3  334 335 593
3  333 334 593
3  114 115 116
3  594 144 145
3  114 116 580
3  594 145 146
3  594 146 147
3  596 31 32
3  31 596 595
3  30 31 595
3  33 34 597
3  596 32 597
3  597 32 33
3  598 600 349
3  349 350 599
3  598 349 599
3  348 349 600
3  347 348 600
3  316 601 315
3  315 601 602
3  314 315 602
3  313 314 602
3  90 604 89
3  88 89 603
3  91 604 90
3  89 604 603
3  96 97 605
3  94 95 605
3  605 95 96
3  606 291 293
3  606 293 294
3  291 606 608
3  607 294 295
3  606 294 607
3  289 291 608
3  607 295 296
3  292 293 291
3  289 290 291
3  288 289 608
3  335 336 609
3  337 338 609
3  336 337 609
3  610 239 240
3  610 240 241
3  611 610 241
3  611 241 242
3  324 613 612
3  325 326 613
3  322 323 612
3  612 323 324
3  613 324 325
3  2 614 1
3  0 1 615
3  615 1 614
3  344 0 615
3  343 344 615
3  297 298 607
3  282 616 281
3  281 616 280
3  435 617 428
3  617 434 433
3  617 435 434
3  617 432 431
3  433 432 617
3  431 430 617
3  617 430 429
3  429 428 617
3  380 378 618
3  386 388 387
3  619 388 618
3  386 385 618
3  388 386 618
3  618 384 383
3  377 619 378
3  378 619 618
3  379 378 380
3  381 380 618
3  374 394 619
3  374 373 394
3  374 619 375
3  619 377 376
3  375 619 376
3  382 381 618
3  383 382 618
3  392 394 393
3  619 394 392
3  619 392 391
3  385 384 618
3  619 391 390
3  389 619 390
3  619 389 388
3  399 621 398
3  402 620 621
3  396 397 621
3  620 403 404
3  621 399 400
3  406 620 405
3  621 401 402
3  401 621 400
3  402 403 620
3  620 407 408
3  620 404 405
3  395 621 411
3  395 396 621
3  407 620 406
3  621 620 410
3  620 408 409
3  410 620 409
3  621 410 411
3  397 398 621
3  419 622 420
3  418 417 622
3  622 417 416
3  422 421 420
3  422 420 622
3  622 414 413
3  413 412 423
3  622 413 423
3  622 416 415
3  622 415 414
3  419 418 622
3  622 423 422
3  365 366 623
3  623 362 363
3  623 364 365
3  364 623 363
3  623 360 361
3  623 361 362
3  359 623 366
3  359 360 623
3  624 441 440
3  624 439 438
3  440 439 624
3  436 441 624
3  624 437 436
3  624 438 437
3  427 425 426
3  427 424 425
3  358 354 353
3  358 355 354
3  358 357 355
3  355 357 356

