OFF
755 1514 0

0.084148163466778059 0.1946685857090088 -0.073636434986200511
0.084089203349888231 0.19478462465079613 -0.07364725464709368
0.083991576134997969 0.19510970843225617 -0.07365059927740325
0.083968437089727677 0.19516237972711775 -0.073651815337294396
0.083956247529343137 0.19536567765556825 -0.073649407460404936
0.083974058675667221 0.19655611231282938 -0.07362709511095139
0.083974142926784706 0.1965578582075109 -0.073627015915068289
0.084006049800874782 0.19673409020918592 -0.073617034976579954
0.084218897362663581 0.19709388637692821 -0.073584117758948159
0.084525472132413598 0.19748646529187297 -0.073541890462551995
0.084627920191572892 0.19785499196245021 -0.073608671369274126
0.085039929304028386 0.19809383154258386 -0.073668155602086727
0.085451514737616391 0.19829501348184042 -0.073721286827351795
0.085640988409413421 0.19843169689916931 -0.07380174372843204
0.086288936374689845 0.19861938824899461 -0.074035788337898825
0.08673826784924113 0.19862767932858194 -0.074180186977584578
0.086976062744175492 0.19858922601860396 -0.074250311584503015
0.087294453836180064 0.19850519478049916 -0.074279392031314673
0.087618751199198069 0.19840573738874984 -0.07430489780281771
0.087690745831346562 0.19840024037706233 -0.074344489124517438
0.088621243107696923 0.19778207971074602 -0.074700693998184894
0.088724031763370959 0.19771890861642472 -0.074746709610035808
0.088830696109277352 0.19762001313165273 -0.074786372871887469
0.088879681937630892 0.19757694650377156 -0.074805158637331226
0.089207833585608395 0.19682161320082481 -0.07481776991863677
0.089291145263928562 0.19664503406045608 -0.074845844122642669
0.089460798800104074 0.19635660793347179 -0.075019553526513683
0.089461186810229187 0.19635585377075709 -0.075019796018911608
0.089610839663518904 0.19604668352272822 -0.07510792370444469
0.089736446742843437 0.1952978504978794 -0.075037456055741969
0.089838771448351784 0.1948419734917991 -0.0750860613108916
0.089950712320048976 0.19430358610849963 -0.075132289222622495
0.089963492896829117 0.1942531257311329 -0.075145022798468325
0.089965493347896247 0.19424154904126015 -0.075144524640575666
0.089814351751369356 0.19377855916696829 -0.074902162144092052
0.089669441560023599 0.1932158455483165 -0.074644921947556286
0.089700513065834486 0.1929605138941175 -0.074700123625574294
0.089766198255636614 0.19259894263454308 -0.074816798939129708
0.09000881443940674 0.19197968843284952 -0.075150554371144915
0.0902832159252661 0.19145515030208357 -0.075543263391764814
0.090538689177313669 0.19153675365210504 -0.075958241429214812
0.090734916927709408 0.19117428070898812 -0.076294334650585244
0.090806091746761478 0.19085714659499867 -0.07642381766819184
0.091071585521804138 0.19036352842363374 -0.07694684303954466
0.091400328941558195 0.18997786737062367 -0.077607569468958179
0.091827552877406168 0.19018583561834623 -0.07828880135866037
0.091840522436121341 0.19020124656310694 -0.078309609715183914
0.091849854224411193 0.19019185692573404 -0.078324294216139762
0.091852991258969341 0.19018593309014636 -0.07832919181240186
0.092000034732650893 0.19015964823680953 -0.078562287095945579
0.091934237817003606 0.18957453348307685 -0.078848072405402217
0.091648834938119733 0.18931240562248858 -0.078430268654521546
0.091411327397286288 0.18822656225554152 -0.078584522119087119
0.091848214928009764 0.18854869639471361 -0.079378371737402698
0.091153486549535645 0.18762398213411213 -0.078744047181351834
0.090847655206088895 0.18693534200916495 -0.078893530456894623
0.090760760856811395 0.18673842211972752 -0.078939652886231185
0.090735520776813988 0.1866395457879732 -0.079017779329179139
0.090762484810131633 0.18654642671920124 -0.079452352891357714
0.090420515661205153 0.1859155354514139 -0.079941961482244348
0.090322859990069629 0.18573319483306441 -0.080206958660630739
0.090325961408403099 0.18573797711026718 -0.080256517476452655
0.090457303502005745 0.18587789305350727 -0.080588852665474997
0.090472001527074353 0.18592122236008063 -0.081406769136085688
0.090471565611692797 0.18592082259884557 -0.081416592090033144
0.08999607424657291 0.18545152519848601 -0.082165322320183101
0.09002116447352089 0.18550704142237939 -0.082355513442676151
0.090189146412286786 0.1856442556126468 -0.082512849973384844
0.090811669042731746 0.1862613644142877 -0.082340681119157905
0.090839885451860558 0.18628639946314746 -0.082353293633796815
0.091122621657140426 0.18656876188199287 -0.08199957934249158
0.091185171315042987 0.18663058433975938 -0.081927348042553014
0.091189056488929165 0.18663443715890959 -0.081926703161023351
0.09129491406526391 0.18673137949510873 -0.081927998019898918
0.091395780746445582 0.18681135027482021 -0.081958353309194557
0.091933766738080847 0.18731757545404115 -0.081933119126210374
0.092149117394020139 0.1876025978976984 -0.081729551084375629
0.092556809410083429 0.18792450119895637 -0.081924510963284208
0.092798996353227248 0.18830257520936869 -0.081542194853730432
0.092747814972853032 0.18847521268106901 -0.081245647566533172
0.092255203369590338 0.1882493769629742 -0.080695914145132192
0.092229302044105801 0.1882429396975393 -0.080656537560757524
0.092003513662902547 0.18865687641565146 -0.079674505724404238
0.092004073603491277 0.18868893128534844 -0.079626394638237064
0.092011794737167169 0.18870510895834547 -0.079624346386301614
0.092569721545915334 0.18924849716502823 -0.07992253440965183
0.092379877192799512 0.18929897910963353 -0.079653193632451824
0.092325568436626843 0.18950916004098461 -0.07946542226723452
0.09240605930137491 0.19033856313654332 -0.079041559163925523
0.092950385508723574 0.19093133219213643 -0.079453438043071423
0.093166885915202918 0.19110636272917725 -0.079629025235003814
0.093222333569962457 0.19119986911991882 -0.079646458832224432
0.093348230110712013 0.19142978760903279 -0.079682634020072307
0.093740268500719565 0.19203360513041048 -0.079816991799275649
0.094201668666738653 0.1925356644881509 -0.080106140944221874
0.09456927048681929 0.19280800787252977 -0.080416690121964035
0.094574437775755194 0.19281063221093059 -0.08042181165135312
0.094748993671363843 0.19315658127168267 -0.080636799575499851
0.094774953575592763 0.19319255159794196 -0.080666247106090244
0.094949101491958621 0.19331851505212216 -0.080969584829455765
0.095050048748277632 0.19338553452874752 -0.081142860138734368
0.095251534168300289 0.19345367264216073 -0.081512852672598959
0.095462366209905461 0.19329501503981894 -0.081984606571227359
0.09557848029643351 0.19312863276363512 -0.082273485408183966
0.095617187320358288 0.19320317127585296 -0.082624251782688965
0.095575834130630699 0.19299131645484288 -0.083407204629627779
0.095542424585306734 0.19282934092641107 -0.083959348623437208
0.095525459776655636 0.19277125351909297 -0.084028168312109769
0.095507419367467872 0.19266356384546207 -0.084136082285750535
0.095486757622406229 0.19255152282795449 -0.084225630244465582
0.095283108245647771 0.19237893618566154 -0.084585079331352966
0.094950653838522511 0.19206343671406537 -0.085133968535855586
0.094828737397399457 0.19192392040709477 -0.085308508429109337
0.094618665387697809 0.19159608940782169 -0.085511069044372751
0.094387633269918114 0.19123064627493869 -0.085734279736379718
0.094316315260095207 0.19117224943883238 -0.085798306175268541
0.093645315225483472 0.19052214374739379 -0.086317748355452001
0.093425716792553182 0.19031836178962619 -0.086495144410258962
0.093423404203069188 0.19031633138527282 -0.086497012056790973
0.092902714358486835 0.18982119936650696 -0.086885576619303725
0.092413126180410407 0.18952331776111442 -0.087257258015458444
0.092324143246862472 0.1894834420871177 -0.087335853113859496
0.091904493035721402 0.18927192673445403 -0.087688354718077469
0.091409549312314431 0.18900876967832309 -0.088103289636738802
0.091175162996198031 0.18902492161943657 -0.088308139823965515
0.090689158006552417 0.18892753818466637 -0.088641100936374423
0.08988991576038953 0.18872420154915495 -0.089158366649418175
0.089762330837794085 0.18860590844781905 -0.089180732087977943
0.089711644174219951 0.18856191949914164 -0.089190112244458192
0.089507279785597263 0.18856393138429811 -0.0892574585814747
0.08913046922263701 0.18854385460759404 -0.089377717449971111
0.088579037896991411 0.18849713263983664 -0.089540063354390159
0.087907726720961282 0.18811653586864124 -0.089483020948336753
0.087740070324487635 0.18799253438014868 -0.089445999172739515
0.087600331334565434 0.18797668097439674 -0.089436959519259396
0.08726801785102295 0.18799990784028897 -0.089430654197376891
0.086442707709450062 0.18781025531729428 -0.089139584855026599
0.085986585050835992 0.18755875622924811 -0.088815387255111469
0.085745161515582521 0.18741701599287333 -0.088634189336896596
0.085743766313623487 0.18741574467424776 -0.088632927707158582
0.085742861257503369 0.18741550429264758 -0.088632386438154104
0.08573858069193091 0.18741591740533223 -0.088630561623137094
0.085282053650341166 0.18742739170978928 -0.088420488173646686
0.084740284878927652 0.18736949522494314 -0.088043037686972872
0.084691125463666667 0.18730731379919249 -0.087906772707594061
0.08459475277327505 0.18688824406554069 -0.087299295036570634
0.084499528191677054 0.18686163059060548 -0.087142810251247468
0.084361320733032333 0.18680705876534448 -0.086878253192072014
0.084756098134388808 0.18641275036810256 -0.086342178588406648
0.085355432419311289 0.1859307092453697 -0.085802047835053935
0.085413853715313681 0.18588350106432414 -0.085672086138462278
0.085982016654440718 0.18561514874462343 -0.085163157839475742
0.08626488583680611 0.1854814718143695 -0.084910017487083808
0.086855023034745626 0.18527206525388318 -0.084655248320054527
0.087123019250414963 0.185176936401547 -0.084539664266061035
0.087148684047993002 0.18516931198029879 -0.084523352905958249
0.087182853725769366 0.18516528895089374 -0.084480012358452455
0.087183645725944614 0.18516433184682973 -0.084472256893296599
0.08760642757370235 0.18486736501958961 -0.083316882644931367
0.087754166306628412 0.18485037386554559 -0.083201546931930326
0.087552436357310928 0.18478669259101674 -0.083070297760605732
0.087473928130796311 0.18472843832452757 -0.082907984356132572
0.086780597111036084 0.18469308582538546 -0.082144452663764189
0.086514998741775817 0.18471565904931136 -0.082008624640404038
0.085720456257530345 0.18477255336591625 -0.081593425122574378
0.08565242629651143 0.18476987236604209 -0.081526724117590169
0.085180882375433892 0.18492427667847183 -0.081163129961612124
0.084229759901095019 0.18509099477074714 -0.080035610547184929
0.084065174121740388 0.18522530550767347 -0.079933637144495417
0.083825398685866345 0.18543732778194527 -0.079574553544306356
0.083639819238211857 0.18563977531621073 -0.078802940462145143
0.083584884804597609 0.18569909925073377 -0.078582303078430921
0.083473068785050328 0.18580718952603026 -0.078079207732718509
0.083403897075695038 0.18592337214779664 -0.07797832879014896
0.083284204965168113 0.18615070347902857 -0.077749498155627428
0.083123333751660977 0.18645846658295429 -0.077437357213964969
0.082911674378245565 0.18685094976156397 -0.076965190109947734
0.082924599304007848 0.18689825090226408 -0.076845635340325305
0.083005614347777354 0.18696065282444427 -0.076583646015087659
0.082992225148342064 0.18699818502297461 -0.07656178130332858
0.082712820270129578 0.18772923557245735 -0.076151884338855613
0.082752753181425387 0.18803430782223873 -0.075846402070140317
0.08275480235890928 0.18852927257491309 -0.075455011926170948
0.082682565279986686 0.18872195408896067 -0.075423994455893456
0.082201805701090661 0.18930785987188381 -0.075478754543826909
0.082018996028676905 0.18953775774608692 -0.07549225688479716
0.082517860231038853 0.19011870650922896 -0.074980343393116433
0.082990410948589749 0.19034313011453058 -0.074623557587767758
0.082964812048486991 0.19095169408847634 -0.07455297112740436
0.083042271286117575 0.19139190043571902 -0.074436050715489643
0.083213576461116628 0.1916724813852726 -0.074318904899920588
0.083465462180427885 0.19213826440269294 -0.074135792870391209
0.083837912625305586 0.19202965757097806 -0.07402776738970647
0.083945460444248068 0.19278299846555016 -0.073932516786245961
0.083990612715937801 0.19284427054237352 -0.073913344199617315
0.084268415477629116 0.19325114424718576 -0.073791313054880209
0.084041492931693759 0.19367904467809585 -0.07378747317141357
0.084178023604100594 0.19449810600275924 -0.073643199106306817
0.076613027450069704 0.19679064999239446 -0.071962910180623174
0.076350837049611403 0.19633022005656711 -0.071873102247784162
0.076468980942987028 0.19616354118246659 -0.071957143941710086
0.076514852605494343 0.19606381810282825 -0.071993851688280597
0.076747016596708781 0.19603485650617436 -0.072124228869752949
0.076723564140901437 0.19632601144072767 -0.07207749109173564
0.077377797994834879 0.19452281959152379 -0.07311736940154881
0.077271781148673946 0.19525445051096638 -0.07273156867667474
0.077269784330830135 0.19527566993787168 -0.072721276960056785
0.077233166304215312 0.19574870055563148 -0.072495853841827579
0.077807337285584116 0.1959872950295064 -0.072874873425462255
0.077839765469785771 0.19602443602826244 -0.072886525055232243
0.07783519202365545 0.19626532927698212 -0.072865581981985145
0.077826584705928986 0.19640509455777128 -0.072845010313581704
0.077764046454851854 0.19667441552736906 -0.072773052245851122
0.077509464376096154 0.19716559847052353 -0.072542987084306482
0.077103700437280445 0.19805068060128239 -0.072191527864514771
0.077053751427127226 0.19837125140704362 -0.072179792312941651
0.077009855553452244 0.19864400393498555 -0.072168750892965011
0.077017789754425331 0.19910456330098253 -0.072247972547088743
0.0767800551792161 0.19998545044723048 -0.072240487159923289
0.076651631714789309 0.2004707943255532 -0.072237973413569814
0.076624228701317007 0.20052336377489755 -0.072223904899797575
0.076627037833185058 0.20105007104757586 -0.072366549920198545
0.076563779871446622 0.20128115773131905 -0.072414145903764784
0.076468901779250253 0.20158200905422979 -0.072447574652407309
0.076359964464525393 0.20187056428753519 -0.072469773669712897
0.076078493669192088 0.20225637926482934 -0.072424770805851441
0.075667765497361761 0.20299954049833746 -0.072565024668737488
0.075434676158712105 0.20331321236572891 -0.072521098413996996
0.075343478104261147 0.2034273572227627 -0.072503226533937634
0.075201648273789196 0.2036896481402457 -0.0725890242846738
0.075161584383606594 0.20373324603213164 -0.072603480588754293
0.074445839642209799 0.20437289816001225 -0.072656767538919864
0.074416328602318435 0.20439648674386054 -0.072658091108169273
0.07413594582691091 0.20472812133068796 -0.072850877526067601
0.073860907215635624 0.2048312442986413 -0.072917058815086144
0.073810859028497822 0.20486946216965701 -0.072939864265150284
0.073513380817100057 0.20507558475347282 -0.073050345056536445
0.0734651607111588 0.20513113732816074 -0.073094638727584052
0.07306701437094551 0.20530097663375035 -0.073260098405753843
0.072760661116391762 0.20551012629827237 -0.07344181420340426
0.072593011321216788 0.2055905197730116 -0.073474938011576688
0.072552321664201003 0.20561514881601278 -0.073492940199204063
0.072493965028092369 0.20565909209886651 -0.07353554294100953
0.072454851791083838 0.20567950371841154 -0.073562678298906406
0.072154171426246513 0.20579872321870726 -0.07371649512448597
0.071543136358061227 0.20584563362723396 -0.073971815690898307
0.071349568022031115 0.20589162559831031 -0.074061822802171828
0.071063516958121908 0.2060520854368669 -0.074414111650053849
0.070899666203928846 0.20603663807430245 -0.074576104495444939
0.070882412027522518 0.20603632008631909 -0.074593648168198967
0.070403403803679737 0.20602394913298772 -0.075004433004061594
0.070376981305110331 0.2060153659171895 -0.075023288341939262
0.070292027535641941 0.20601094274724507 -0.075168645861350997
0.070279349625356924 0.2060101604585611 -0.07519026287041361
0.069826373646419387 0.20562100288175567 -0.07574054348283174
0.069817049690091504 0.20561214967874242 -0.075751352103340913
0.069718959536878317 0.20551360239975097 -0.075903203379921208
0.06961594151126789 0.2053212762530634 -0.076023602342775581
0.069513571976585378 0.20513086484524876 -0.076142203707658007
0.069308437385445759 0.20468232337851061 -0.076350451840818678
0.069301351809550327 0.20462368421439275 -0.076408226331022649
0.069304086896393891 0.20450104217455056 -0.07646163458465359
0.069378829895169289 0.20325158614100022 -0.076825691231107357
0.06940978428995026 0.20298107561623199 -0.076847770684728756
0.069412114641723338 0.20296524349297679 -0.07684707066739084
0.06940304850054213 0.20291528235984443 -0.076834096476148306
0.069405609131631268 0.20284355556192146 -0.076825682180980071
0.069715769055746946 0.20152108196223334 -0.076842934445553943
0.069739395002489518 0.20138662201191287 -0.076814819951961794
0.069804578787397736 0.20090673872186421 -0.076642210428965046
0.069942882784465851 0.20060002494245566 -0.076582031160934205
0.070265207101638666 0.19987937317170321 -0.076403163329927332
0.070310414969191742 0.19977763967816592 -0.076373725951616678
0.070330223822742399 0.19970773001793571 -0.076348090459376738
0.070371982634941266 0.19963630536808535 -0.076332235269105056
0.070376946455905254 0.19961318063389089 -0.076322992611486784
0.070422386334678844 0.19902275049499177 -0.075909095597488541
0.070456469238963454 0.19855590022487551 -0.075577789104574133
0.070567628360998655 0.19829161080878269 -0.075453522807328144
0.070590603666920271 0.19818427618393175 -0.075324299280917398
0.070602468367436444 0.19814509961676524 -0.075289491891534527
0.070714736014404478 0.19792493686577572 -0.075151770678791904
0.070977696947052971 0.19744004125675724 -0.074991984002348466
0.071006008019961597 0.19736378989110442 -0.074947400480238735
0.071275070688615147 0.19667969485011172 -0.07461943887467512
0.071089438193921661 0.19689704990571261 -0.074244955738515611
0.071145313558341 0.19682781300315177 -0.074216784613052561
0.07133020558619102 0.196537390216733 -0.074201681787674278
0.071506461874757274 0.1962312998598002 -0.074091297086518362
0.071553229047286365 0.19615293275143195 -0.074071365442567261
0.071773328603883871 0.19568334931350212 -0.074190226840526799
0.072173846915786266 0.19479384977718572 -0.074480370718686656
0.072233260927759946 0.19466229574227967 -0.074524528020062097
0.072468645298148907 0.19394547532994327 -0.075107490313157638
0.072505574111196291 0.19383633711331094 -0.075212822663979634
0.072516275293498828 0.19377833753723117 -0.075305351812256782
0.072604513507934731 0.19339553605223925 -0.075618335257932962
0.072646453285305612 0.19315214904487121 -0.075847135232638349
0.072482727749111714 0.19371563507237505 -0.076130173808826931
0.072468332135280866 0.19376504469269243 -0.076132627746994946
0.072478530068626715 0.19373253987188802 -0.076545697336042912
0.072504598606786916 0.19346530149396499 -0.077196665112118895
0.072505749644185657 0.19345617790274267 -0.077231292972317317
0.072439571229452604 0.19360349561457779 -0.077915370217744223
0.072433722214463481 0.19362774732686733 -0.077968869614286507
0.072480272720169464 0.19347684989484656 -0.078541654034476771
0.072631255028976938 0.19293029290827388 -0.079044709543545727
0.07266555461121936 0.19280679496196035 -0.079174801568437037
0.072755366305330305 0.19268429072790041 -0.079515532199588318
0.072781806369230928 0.19268451991200178 -0.07961585790976955
0.072821503323481987 0.19269583045953542 -0.079784143140507385
0.072922565939667339 0.19257588870869705 -0.080178011592816886
0.073004241829679822 0.19246524473569598 -0.080332652648209241
0.073101002533245502 0.19232422698310569 -0.080397207846308882
0.073338282954616613 0.19198105414986863 -0.080586986094012547
0.073865752649739366 0.19098793147173548 -0.08098208437954646
0.073971832113540983 0.19093826063429098 -0.081078991681048443
0.074601001943592482 0.19036997447585716 -0.081242710143547836
0.074663593546549001 0.19031782375358042 -0.081265581752993504
0.075253850848115769 0.18976909727945418 -0.081467403896824386
0.075899863963647382 0.18896070142105037 -0.081272886109933523
0.076174336001579968 0.18881374255914032 -0.081282313887829388
0.076407023691595605 0.18869893288947348 -0.081308504971716766
0.076452807983766455 0.18866082713029692 -0.081284778038607397
0.076598037155447718 0.18855764861347701 -0.081221039724384186
0.077262993707006705 0.18800430212117331 -0.080745199442261717
0.077519841554193572 0.18790818911971163 -0.080614289534616107
0.078144975824048418 0.1876229069354079 -0.080063221899725742
0.078162093569097341 0.18761487702165056 -0.080047144779191171
0.078402952642759066 0.18755455388297992 -0.079863794586275683
0.078612793210016046 0.18753725077437394 -0.079732750350652845
0.078811038665453914 0.18752428493790924 -0.079539220811444683
0.07885265237143721 0.18752241368347847 -0.079481059947737881
0.079289003477677672 0.18744507013564196 -0.078805705443588808
0.079297799070583985 0.18744614775237456 -0.078763662021713726
0.079372118686719145 0.18748177813718842 -0.07853243328018375
0.079541086272118922 0.18762415469608593 -0.078293677638426581
0.079793722519703555 0.18785891079890132 -0.077906442778676172
0.079756997831424398 0.18794747655980154 -0.077793075212646751
0.079765882333642096 0.18825586000428957 -0.077364438696274573
0.079748137499959987 0.18836694082580574 -0.077188432357555611
0.079746207321511636 0.18837730432078711 -0.077172139375970811
0.079747380843458365 0.18837876585741892 -0.077169168543196498
0.079741647604031712 0.18838156269099501 -0.077167198160112915
0.079581053257450601 0.18847170461921936 -0.077092431761448268
0.079491380574110676 0.18862428297066486 -0.077007687186227275
0.079157041438590689 0.18911931092610251 -0.076722778429011734
0.079111195080008898 0.18914563175854404 -0.076712441375823198
0.077953683670370089 0.18937653484144867 -0.07654227118228496
0.077725425972398801 0.18937330272626879 -0.076537242429417257
0.076969967182823507 0.18942406760237346 -0.076506072015288501
0.076658505385103728 0.18967319607494221 -0.0763628993265697
0.076015213904350204 0.19001452222274595 -0.076166116464830458
0.076012338543976349 0.1900053212774992 -0.076171362718411448
0.075867009768573662 0.19005757773498042 -0.076165730555967828
0.075818315265787029 0.19008954986783316 -0.076156272478369674
0.07561191720121524 0.19021351555753108 -0.076126451795758943
0.075602748042475992 0.19027697925595577 -0.076073610982099527
0.075328704029676438 0.1906319065820069 -0.075800490830365178
0.074926199729628787 0.19127443790678444 -0.075248939943195051
0.074873509336300964 0.19155911971800632 -0.074927899595377684
0.075281058823278221 0.19131682763078534 -0.07514427740832974
0.07565929521104775 0.1908584912000405 -0.075521404166695533
0.075763717183609691 0.19125189246025817 -0.075232875729793106
0.076156416586300707 0.19151369650473976 -0.075067354891764318
0.076103225681513662 0.19156296759364846 -0.075010230952909207
0.075968218298742382 0.19212594988889919 -0.074374644037771137
0.076034842595998089 0.19237397978236231 -0.074099194691582243
0.076549063506282752 0.19215288902493224 -0.074462211739726558
0.076830170749544818 0.19267793458883389 -0.074158392087976435
0.076847023164799591 0.19287032043633379 -0.07398708706041611
0.077210039745862963 0.19355135964733403 -0.073505883876805123
0.077518650628321639 0.19358396067507547 -0.073682291753606022
0.077558594633822892 0.19374375869548743 -0.073616663464699514
0.077597106056565446 0.19389317073104476 -0.073556035650549467
0.077497487238873619 0.19401682404736453 -0.073422799402529854
0.077113293214167711 0.19387387497147274 -0.073275582184677016
0.077182105005618645 0.19377950728366194 -0.073358514429250343
0.07720709651689793 0.19355315967697576 -0.073503001198208601
0.07691364396964831 0.19353179598810044 -0.073401674808709114
0.076800534376480739 0.19368757593209418 -0.073264960045727287
0.075726456013946106 0.19460647018265087 -0.072300394814004076
0.075738845331882854 0.19464994277458025 -0.072279324904603884
0.075768135898877126 0.19473496769509702 -0.072237509863161603
0.075777489793190878 0.19477905090707309 -0.072213645576252636
0.075914836274668218 0.1948532764495296 -0.072219001877231778
0.076031804323761887 0.19476880765181717 -0.07231524557026163
0.077080350891266414 0.19390266529402672 -0.07324563691348096
0.075639767247668299 0.19720225476519299 -0.071493357690040865
0.075470561046565063 0.19738311282391607 -0.07141748183602839
0.074938228804629428 0.19687142876377955 -0.071475530098720749
0.074747874562744523 0.19664458045890004 -0.071499904413286616
0.074690294068538748 0.19666047212200505 -0.071500310632372555
0.074573897906400274 0.19674415387492605 -0.071482328561728981
0.074177958988016296 0.19633819947091335 -0.071673028031332048
0.074926307953551485 0.19607981409334288 -0.07168665782687636
0.074815026726951644 0.19647372540839114 -0.071554982956559682
0.074815137992709363 0.19647544672996251 -0.071554343199813963
0.075414226044810795 0.19646624763451895 -0.071660530494594477
0.076083860429334516 0.19656819315924151 -0.071736267523932806
0.088323116302490234 0.18396812677383423 -0.079092912375926971
0.087119691073894501 0.1931220144033432 -0.073436476290225983
0.087850265204906464 0.19509117305278778 -0.073501765727996826
0.089316636323928833 0.18668566644191742 -0.076030723750591278
0.089449040591716766 0.18817022442817688 -0.075378686189651489
0.089004151523113251 0.1854657381772995 -0.076813377439975739
0.088617466390132904 0.18448273837566376 -0.077760949730873108
0.087319836020469666 0.1864272803068161 -0.075018361210823059
0.085799053311347961 0.18849709630012512 -0.074146613478660583
0.085283465683460236 0.18692278861999512 -0.074822008609771729
0.087669029831886292 0.18800660967826843 -0.074466221034526825
0.086946994066238403 0.18514320254325867 -0.075879320502281189
0.084915205836296082 0.18565143644809723 -0.07595408707857132
0.086714863777160645 0.18417510390281677 -0.077156797051429749
0.086300723254680634 0.19019815325737 -0.073865890502929688
0.086756162345409393 0.19182385504245758 -0.073655344545841217
0.087920159101486206 0.18972492218017578 -0.074161596596240997
0.088060453534126282 0.1914430558681488 -0.073911644518375397
0.089403882622718811 0.18983107805252075 -0.074854359030723572
0.086921900510787964 0.18370874226093292 -0.07914377748966217
0.09027467668056488 0.18592289090156555 -0.085535503923892975
0.088059231638908386 0.19318799674510956 -0.073622055351734161
0.089564606547355652 0.1866329163312912 -0.087919458746910095
0.092782534658908844 0.18785053491592407 -0.083560213446617126
0.088075503706932068 0.18654868006706238 -0.08834432065486908
0.090365439653396606 0.18582023680210114 -0.082830175757408142
0.091665066778659821 0.1868918240070343 -0.084653213620185852
0.090539775788784027 0.1904885321855545 -0.076002798974514008
0.088561266660690308 0.18546053767204285 -0.086307235062122345
0.091187186539173126 0.18746016919612885 -0.087200641632080078
0.08481520414352417 0.18475569784641266 -0.077553801238536835
0.083425387740135193 0.18805566430091858 -0.075249753892421722
0.08906487375497818 0.19327640533447266 -0.074075803160667419
0.090827383100986481 0.18764238059520721 -0.077757366001605988
0.093951985239982605 0.18951022624969482 -0.085001721978187561
0.090807676315307617 0.18899713456630707 -0.076835744082927704
0.090558849275112152 0.18646982312202454 -0.078753329813480377
0.089076265692710876 0.19498801231384277 -0.074154667556285858
0.089234843850135803 0.19156646728515625 -0.074409998953342438
0.086832150816917419 0.18594315648078918 -0.087289005517959595
0.087579928338527679 0.19715411961078644 -0.073926985263824463
0.089166589081287384 0.19661271572113037 -0.07474248856306076
0.088984586298465729 0.18514421582221985 -0.083687789738178253
0.087748251855373383 0.18791331350803375 -0.089380718767642975
0.083142936229705811 0.18687188625335693 -0.076544620096683502
0.091847799718379974 0.19018107652664185 -0.078324742615222931
0.086471334099769592 0.19448915123939514 -0.073282800614833832
0.094898559153079987 0.19045771658420563 -0.083472296595573425
0.083976380527019501 0.1895681768655777 -0.074367918074131012
0.085448570549488068 0.19297848641872406 -0.073545388877391815
0.093515120446681976 0.18875230848789215 -0.082193098962306976
0.085107333958148956 0.18444119393825531 -0.079725198447704315
0.095050536096096039 0.19162040948867798 -0.081793181598186493
0.087775848805904388 0.18434792757034302 -0.081523127853870392
0.092628411948680878 0.18852891027927399 -0.086222678422927856
0.090055026113986969 0.18545585870742798 -0.079754449427127838
0.089212119579315186 0.18466895818710327 -0.080754213035106659
0.093579918146133423 0.18999938666820526 -0.080779053270816803
0.084679067134857178 0.19125449657440186 -0.07389194518327713
0.085347771644592285 0.19696906208992004 -0.073493428528308868
0.069325439631938934 0.20060965418815613 -0.074924670159816742
0.073772244155406952 0.19355405867099762 -0.073369897902011871
0.072644807398319244 0.19597503542900085 -0.072454065084457397
0.074223801493644714 0.18946485221385956 -0.078428760170936584
0.071521811187267303 0.19883911311626434 -0.072033151984214783
0.070850454270839691 0.20164121687412262 -0.072052650153636932
0.072102628648281097 0.20174588263034821 -0.071523986756801605
0.072595052421092987 0.19899165630340576 -0.071469001471996307
0.069884605705738068 0.20138281583786011 -0.072861358523368835
0.069320060312747955 0.20101222395896912 -0.073893897235393524
0.070916905999183655 0.20390526950359344 -0.072885535657405853
0.073546856641769409 0.20162446796894073 -0.071329154074192047
0.069870047271251678 0.20355862379074097 -0.073669910430908203
0.073856689035892487 0.19905681908130646 -0.071172304451465607
0.073076725006103516 0.19168186187744141 -0.076857000589370728
0.07675546407699585 0.18782725930213928 -0.078070387244224548
0.073906727135181427 0.19016818702220917 -0.079817138612270355
0.074897453188896179 0.18935330212116241 -0.077169276773929596
0.076738692820072174 0.19821296632289886 -0.071928791701793671
0.076601125299930573 0.20048791170120239 -0.072208978235721588
0.070077799260616302 0.19902767241001129 -0.07515929639339447
0.070659689605236053 0.19868822395801544 -0.072858147323131561
0.070318169891834259 0.1997520923614502 -0.076315142214298248
0.06938866525888443 0.20166414976119995 -0.075732462108135223
0.073678471148014069 0.20366044342517853 -0.072275348007678986
0.074828922748565674 0.19390052556991577 -0.072725944221019745
0.06927238404750824 0.20286786556243896 -0.074688203632831573
0.072804667055606842 0.19223698973655701 -0.078068241477012634
0.079056650400161743 0.18754592537879944 -0.078521914780139923
0.072223208844661713 0.20392856001853943 -0.072409674525260925
0.075967617332935333 0.19243977963924408 -0.074023045599460602
0.074784837663173676 0.19168554246425629 -0.074825160205364227
0.077477216720581055 0.18888425827026367 -0.076815813779830933
0.07183394581079483 0.19599612057209015 -0.073289915919303894
0.079447925090789795 0.18850663304328918 -0.077096469700336456
0.070226907730102539 0.20503312349319458 -0.07468094676733017
0.070145472884178162 0.19868001341819763 -0.073939606547355652
0.072880513966083527 0.1936022937297821 -0.074227340519428253
0.07509990781545639 0.20115038752555847 -0.071571961045265198
0.076230570673942566 0.18800777196884155 -0.079538449645042419
0.075912699103355408 0.18885143101215363 -0.081082724034786224
0.075286790728569031 0.19885534048080444 -0.071301594376564026
0.072546884417533875 0.20553316175937653 -0.073483400046825409
0.07129649817943573 0.20546199381351471 -0.073956876993179321
0.073745861649513245 0.19144254922866821 -0.075760617852210999
0.075143344700336456 0.20317162573337555 -0.072423577308654785
0.073613815009593964 0.19613797962665558 -0.071863412857055664
0.069551683962345123 0.20420973002910614 -0.075662441551685333
0.084836423397064209 0.18372933566570282 -0.079068176448345184
0.085053063929080963 0.18388506770133972 -0.080156035721302032
0.084852978587150574 0.1841057687997818 -0.077306486666202545
0.088335730135440826 0.18383768200874329 -0.076979123055934906
0.088281460106372833 0.1831870973110199 -0.078603066504001617
0.087517701089382172 0.18339408934116364 -0.077227264642715454
0.089041285216808319 0.18392911553382874 -0.077880345284938812
0.08833322674036026 0.18464618921279907 -0.076079502701759338
0.08703932911157608 0.1842789351940155 -0.075946882367134094
0.091721691191196442 0.18669505417346954 -0.084617897868156433
0.092901326715946198 0.18754088878631592 -0.083892822265625
0.094060301780700684 0.18938949704170227 -0.081074513494968414
0.095250681042671204 0.18905507028102875 -0.082774445414543152
0.094794958829879761 0.18893115222454071 -0.082143664360046387
0.094165399670600891 0.18818627297878265 -0.083404265344142914
0.095086514949798584 0.18980161845684052 -0.081542283296585083
0.084980450570583344 0.18726341426372528 -0.074315659701824188
0.084848679602146149 0.18930408358573914 -0.073897987604141235
0.095685616135597229 0.19007807970046997 -0.08421548455953598
0.096108503639698029 0.19094251096248627 -0.082933880388736725
0.089701317250728607 0.19018577039241791 -0.074908196926116943
0.086535930633544922 0.19623309373855591 -0.072775565087795258
0.087555043399333954 0.19663548469543457 -0.073029018938541412
0.086331829428672791 0.19724036753177643 -0.072822540998458862
0.086889490485191345 0.19772130250930786 -0.073142409324645996
0.095846123993396759 0.19166861474514008 -0.081823825836181641
0.095282942056655884 0.19108317792415619 -0.081117779016494751
0.094310931861400604 0.19072280824184418 -0.080460965633392334
0.088422909379005432 0.18409153819084167 -0.081794649362564087
0.089399218559265137 0.18452024459838867 -0.081266343593597412
0.090169943869113922 0.18556971848011017 -0.083977125585079193
0.089028306305408478 0.18495212495326996 -0.084419608116149902
0.090607672929763794 0.18572913110256195 -0.085373744368553162
0.089297205209732056 0.18493823707103729 -0.085871510207653046
0.08962646871805191 0.18530747294425964 -0.087169565260410309
0.092153757810592651 0.18718720972537994 -0.085750371217727661
0.091254003345966339 0.18714585900306702 -0.087511412799358368
0.092413060367107391 0.18813152611255646 -0.086642585694789886
0.093340553343296051 0.1879955381155014 -0.085008569061756134
0.094629794359207153 0.18866941332817078 -0.084299467504024506
0.094906508922576904 0.18955427408218384 -0.084967918694019318
0.095680378377437592 0.18960635364055634 -0.083500184118747711
0.086733497679233551 0.19476898014545441 -0.072988875210285187
0.087987691164016724 0.19518981873989105 -0.073134399950504303
0.088273793458938599 0.19346697628498077 -0.07343880832195282
0.088913962244987488 0.19576787948608398 -0.073729932308197021
0.088317736983299255 0.19720351696014404 -0.073666542768478394
0.086837805807590485 0.19310961663722992 -0.073318392038345337
0.088364265859127045 0.19160783290863037 -0.073830418288707733
0.08833988755941391 0.18968789279460907 -0.074168018996715546
0.089753866195678711 0.18822295963764191 -0.075329646468162537
0.088334441184997559 0.1877811998128891 -0.074532732367515564
0.08972475677728653 0.18644638359546661 -0.076031692326068878
0.090755060315132141 0.18893365561962128 -0.076400384306907654
0.089495062828063965 0.18500438332557678 -0.076968938112258911
0.088360458612442017 0.18602454662322998 -0.075164780020713806
0.08680339902639389 0.18566516041755676 -0.074844934046268463
0.08666769415140152 0.18748293817043304 -0.074106298387050629
0.085867077112197876 0.18403744697570801 -0.076441779732704163
0.086545683443546295 0.18311826884746552 -0.077822312712669373
0.085355520248413086 0.18542101979255676 -0.075223177671432495
0.085576310753822327 0.18324537575244904 -0.078546471893787384
0.087320201098918915 0.18284799158573151 -0.079276539385318756
0.086224161088466644 0.18305931985378265 -0.079894274473190308
0.087956428527832031 0.18329644203186035 -0.080599181354045868
0.088945798575878143 0.18368278443813324 -0.079975925385951996
0.087754696607589722 0.18471400439739227 -0.085982456803321838
0.08797929435968399 0.18497037887573242 -0.087403342127799988
0.089902475476264954 0.18626534938812256 -0.088223271071910858
0.088317811489105225 0.18588890135288239 -0.088554516434669495
0.091011196374893188 0.18619367480278015 -0.086541041731834412
0.086310692131519318 0.18538451194763184 -0.087270073592662811
0.086776018142700195 0.18354395031929016 -0.081073187291622162
0.086678080260753632 0.18944190442562103 -0.07377278059720993
0.086778886616230011 0.19134040176868439 -0.073591090738773346
0.093631893396377563 0.18892914056777954 -0.085801295936107635
0.089703463017940521 0.18452979624271393 -0.079209581017494202
0.095786772668361664 0.1903376579284668 -0.082146890461444855
0.085322111845016479 0.19633792340755463 -0.072909891605377197
0.088769443333148956 0.18475654721260071 -0.083032816648483276
0.085195720195770264 0.19311197102069855 -0.073509149253368378
0.088617466390132904 0.18733911216259003 -0.089315012097358704
0.087131872773170471 0.18746671080589294 -0.089292749762535095
0.091203324496746063 0.18650884926319122 -0.083211213350296021
0.095481164753437042 0.1930585503578186 -0.081621244549751282
0.092429839074611664 0.18942666053771973 -0.087240539491176605
0.091260671615600586 0.18852639198303223 -0.088204175233840942
0.093694187700748444 0.1901775449514389 -0.086279988288879395
0.084007710218429565 0.18510770797729492 -0.079752765595912933
0.092491194605827332 0.18773531913757324 -0.082157716155052185
0.091288983821868896 0.18800994753837585 -0.078443527221679688
0.093842878937721252 0.18837384879589081 -0.082222774624824524
0.094337664544582367 0.19202916324138641 -0.080200709402561188
0.085935041308403015 0.19835029542446136 -0.073553629219532013
0.08549143373966217 0.19759051501750946 -0.073022715747356415
0.08418312668800354 0.18537229299545288 -0.076174311339855194
0.091422118246555328 0.1897352933883667 -0.077638760209083557
0.090656913816928864 0.18712425231933594 -0.077195078134536743
0.083577364683151245 0.18698927760124207 -0.075295507907867432
0.089780814945697784 0.18524768948554993 -0.082568660378456116
0.085008397698402405 0.19129903614521027 -0.073720060288906097
0.090008288621902466 0.18773497641086578 -0.088956713676452637
0.084771119058132172 0.18640251457691193 -0.086976371705532074
0.084122344851493835 0.19670650362968445 -0.073507525026798248
0.089326456189155579 0.19404990971088409 -0.074035808444023132
0.082887008786201477 0.18896447122097015 -0.074894219636917114
0.083335854113101959 0.19134743511676788 -0.074241027235984802
0.087266579270362854 0.18430757522583008 -0.082105956971645355
0.089581452310085297 0.19221772253513336 -0.074488803744316101
0.090614765882492065 0.19104599952697754 -0.076037213206291199
0.095174908638000488 0.19239574670791626 -0.080899521708488464
0.089821390807628632 0.19462347030639648 -0.074874289333820343
0.089508838951587677 0.19610147178173065 -0.074784636497497559
0.093166641891002655 0.19053339958190918 -0.079739786684513092
0.085097655653953552 0.18705660104751587 -0.088157571852207184
0.086675584316253662 0.18618865311145782 -0.088490806519985199
0.084143415093421936 0.18453130125999451 -0.078417219221591949
0.092950500547885895 0.18905960023403168 -0.080525271594524384
0.087706670165061951 0.18490307033061981 -0.0845232754945755
0.086182728409767151 0.18526744842529297 -0.085803583264350891
0.090153947472572327 0.18542033433914185 -0.080519929528236389
0.090277329087257385 0.18568442761898041 -0.078247062861919403
0.088860489428043365 0.19757695496082306 -0.074732080101966858
0.087461277842521667 0.19823257625102997 -0.073839403688907623
0.095897674560546875 0.19118751585483551 -0.084077879786491394
0.095990642905235291 0.19225440919399261 -0.082743726670742035
0.085528641939163208 0.18449865281581879 -0.081253334879875183
0.095677517354488373 0.19250842928886414 -0.084003902971744537
0.094994828104972839 0.19078978896141052 -0.085273243486881256
0.083446890115737915 0.18572998046875 -0.077524162828922272
0.085284896194934845 0.19478540122509003 -0.073169834911823273
0.077458649873733521 0.18701356649398804 -0.077266335487365723
0.076537244021892548 0.18694724142551422 -0.077405840158462524
0.076335161924362183 0.18655288219451904 -0.077969953417778015
0.075211159884929657 0.1874811202287674 -0.077757582068443298
0.075926035642623901 0.18770968914031982 -0.077176764607429504
0.075754344463348389 0.18738967180252075 -0.080345191061496735
0.074450694024562836 0.18827588856220245 -0.080139920115470886
0.069981589913368225 0.20363500714302063 -0.072487004101276398
0.070863142609596252 0.20423802733421326 -0.07234896719455719
0.069813266396522522 0.20446376502513885 -0.07298007607460022
0.06916915625333786 0.20320077240467072 -0.072961814701557159
0.070381402969360352 0.20506511628627777 -0.073100157082080841
0.068665333092212677 0.20357905328273773 -0.075968101620674133
0.068516366183757782 0.2039913535118103 -0.075080610811710358
0.068761534988880157 0.20429061353206635 -0.074227087199687958
0.068313561379909515 0.20228476822376251 -0.075408920645713806
0.068785406649112701 0.20199152827262878 -0.076210550963878632
0.068810358643531799 0.20060363411903381 -0.075714826583862305
0.068416573107242584 0.2006002813577652 -0.074877835810184479
0.068245381116867065 0.20254465937614441 -0.07451920211315155
0.068420164287090302 0.20077811181545258 -0.073969051241874695
0.068557016551494598 0.20284877717494965 -0.073669679462909698
0.069522075355052948 0.20168709754943848 -0.072420105338096619
0.069696493446826935 0.19943793118000031 -0.072790101170539856
0.068815805017948151 0.20116044580936432 -0.073121353983879089
0.070375733077526093 0.20003578066825867 -0.072080999612808228
0.070437170565128326 0.20231623947620392 -0.071905955672264099
0.071271553635597229 0.20070511102676392 -0.071494303643703461
0.071450911462306976 0.20301991701126099 -0.071635410189628601
0.072319917380809784 0.20144312083721161 -0.071093931794166565
0.07344161719083786 0.2022135853767395 -0.071041055023670197
0.071800321340560913 0.20482581853866577 -0.072506792843341827
0.072488881647586823 0.20371656119823456 -0.071686558425426483
0.069305934011936188 0.19900454580783844 -0.073631107807159424
0.070918843150138855 0.19782429933547974 -0.072686582803726196
0.07154431939125061 0.1983097642660141 -0.071978934109210968
0.072583585977554321 0.19629739224910736 -0.072107665240764618
0.072381854057312012 0.19887678325176239 -0.071394838392734528
0.073422476649284363 0.19952051341533661 -0.070978514850139618
0.074592776596546173 0.20023001730442047 -0.070910744369029999
0.075943313539028168 0.18675819039344788 -0.079548418521881104
0.074513569474220276 0.18771690130233765 -0.079294286668300629
0.07339709997177124 0.18982739746570587 -0.079862482845783234
0.073436953127384186 0.18922822177410126 -0.078941754996776581
0.073759771883487701 0.18888190388679504 -0.078115552663803101
0.072780653834342957 0.19092628359794617 -0.078289680182933807
0.073175579309463501 0.19040647149085999 -0.077477350831031799
0.074768915772438049 0.18745364248752594 -0.07848743349313736
0.073846794664859772 0.19009433686733246 -0.076833702623844147
0.074366822838783264 0.18876753747463226 -0.077417746186256409
0.073239885270595551 0.19262833893299103 -0.074533537030220032
0.077663607895374298 0.18640801310539246 -0.077996797859668732
0.073425129055976868 0.19414821267127991 -0.072716265916824341
0.072687387466430664 0.19414719939231873 -0.073333494365215302
0.074377641081809998 0.194380983710289 -0.072314240038394928
0.071924053132534027 0.19601538777351379 -0.072798885405063629
0.073554307222366333 0.19136819243431091 -0.0758657306432724
0.076955541968345642 0.18802352249622345 -0.076845958828926086
0.076125256717205048 0.18647350370883942 -0.078741282224655151
0.077650345861911774 0.18635745346546173 -0.078854762017726898
0.074464961886405945 0.20291140675544739 -0.071457475423812866
0.069275327026844025 0.20445990562438965 -0.073484472930431366
0.074238426983356476 0.20442742109298706 -0.072479583323001862
0.077485464513301849 0.18678398430347443 -0.079747959971427917
0.074779674410820007 0.19004978239536285 -0.076348833739757538
0.078978650271892548 0.18709394335746765 -0.078825227916240692
0.069235824048519135 0.20455451309680939 -0.076387867331504822
0.07373201847076416 0.19062082469463348 -0.080809943377971649
0.069452323019504547 0.20056678354740143 -0.076313205063343048
0.069666095077991486 0.20143726468086243 -0.076798573136329651
0.069263063371181488 0.20307333767414093 -0.076764561235904694
0.075624734163284302 0.18825680017471313 -0.081001892685890198
0.072925679385662079 0.19182001054286957 -0.076493464410305023
0.072552613914012909 0.19247142970561981 -0.077292539179325104
0.074414350092411041 0.19121329486370087 -0.075399905443191528
0.074034765362739563 0.19245937466621399 -0.074018031358718872
0.075464434921741486 0.19133873283863068 -0.075090192258358002
0.072427235543727875 0.19326335191726685 -0.078270718455314636
0.072267509996891022 0.19445565342903137 -0.074181929230690002
0.077129244804382324 0.18759547173976898 -0.080607034265995026
0.075035169720649719 0.19256320595741272 -0.07367388904094696
0.069840006530284882 0.20542699098587036 -0.07389291375875473
0.075641289353370667 0.2009681910276413 -0.071336917579174042
0.073483631014823914 0.20425225794315338 -0.072055675089359283
0.078225359320640564 0.1885707825422287 -0.076739609241485596
0.076672382652759552 0.19860734045505524 -0.071760699152946472
0.074732214212417603 0.18911285698413849 -0.08101113885641098
0.071567907929420471 0.19601069390773773 -0.073678821325302124
0.072709538042545319 0.19309991598129272 -0.075236491858959198
0.072952345013618469 0.19240611791610718 -0.080262832343578339
0.073455952107906342 0.19671821594238281 -0.071612201631069183
0.070555597543716431 0.19753207266330719 -0.073535837233066559
0.070519611239433289 0.19760207831859589 -0.074493013322353363
0.069626599550247192 0.19918641448020935 -0.075485214591026306
0.070189490914344788 0.19976800680160522 -0.076310805976390839
0.078640148043632507 0.18756985664367676 -0.077176868915557861
0.079742707312107086 0.18837618827819824 -0.077169701457023621
0.07451406866312027 0.19723248481750488 -0.071310676634311676
0.075164847075939178 0.20351392030715942 -0.072284631431102753
0.076328136026859283 0.20171540975570679 -0.072237491607666016
0.069359846413135529 0.2053995281457901 -0.07471960037946701
0.072833269834518433 0.20519757270812988 -0.072886720299720764
0.07126057893037796 0.20560885965824127 -0.07338271290063858
0.070758186280727386 0.20601426064968109 -0.074294425547122955
0.069284074008464813 0.19889771938323975 -0.074573591351509094
0.072682797908782959 0.19161571562290192 -0.079239688813686371
0.076210066676139832 0.19293077290058136 -0.073486104607582092
0.075484864413738251 0.19479142129421234 -0.072096377611160278
0.077445536851882935 0.19369924068450928 -0.073508687317371368
0.076405555009841919 0.18916323781013489 -0.076553396880626678
0.075276114046573639 0.18886515498161316 -0.076878257095813751
0.069102197885513306 0.20507682859897614 -0.075568661093711853
0.07894008606672287 0.1870361715555191 -0.077927909791469574
0.077628768980503082 0.19637374579906464 -0.07256712019443512
0.075662009418010712 0.19784773886203766 -0.071319550275802612
0.076639905571937561 0.19542291760444641 -0.072136901319026947
3  456 453 400
3  400 453 419
3  406 455 400
3  400 455 456
3  400 419 406
3  406 419 413
3  9 459 8
3  1 446 0
3  197 446 449
3  459 440 446
3  446 440 402
3  16 440 459
3  138 424 443
3  139 439 424
3  424 422 443
3  129 422 128
3  439 428 424
3  424 428 422
3  36 432 35
3  35 432 34
3  32 432 31
3  415 449 401
3  401 449 446
3  401 446 421
3  421 446 402
3  401 421 415
3  415 421 417
3  43 435 427
3  89 85 87
3  445 433 435
3  403 404 433
3  433 404 435
3  52 54 433
3  436 405 433
3  433 405 403
3  411 407 405
3  405 407 403
3  405 436 406
3  406 436 455
3  405 406 411
3  411 406 413
3  407 409 410
3  410 409 408
3  407 410 403
3  403 410 404
3  407 411 409
3  409 411 412
3  412 444 409
3  409 444 431
3  411 413 412
3  412 413 430
3  412 430 444
3  172 173 430
3  177 444 176
3  171 430 451
3  178 179 444
3  186 184 185
3  184 448 183
3  187 458 448
3  190 458 189
3  458 414 448
3  448 414 408
3  448 408 431
3  431 408 409
3  414 458 415
3  415 458 449
3  415 417 414
3  414 417 416
3  414 416 408
3  408 416 410
3  417 438 416
3  416 438 418
3  418 404 416
3  416 404 410
3  418 438 427
3  39 438 38
3  427 435 418
3  418 435 404
3  192 449 458
3  413 419 430
3  430 419 451
3  57 58 436
3  74 75 423
3  73 74 426
3  68 69 425
3  62 456 61
3  426 420 425
3  425 420 442
3  65 442 456
3  456 442 453
3  420 428 442
3  161 453 159
3  420 426 429
3  429 426 454
3  429 422 420
3  420 422 428
3  122 429 454
3  128 422 127
3  131 443 130
3  99 452 96
3  91 92 457
3  95 452 94
3  107 105 106
3  107 109 452
3  452 447 457
3  457 447 450
3  113 447 111
3  114 447 113
3  447 434 450
3  450 434 423
3  118 454 434
3  434 454 423
3  423 454 426
3  78 79 450
3  85 80 81
3  41 427 40
3  27 28 441
3  437 402 441
3  441 402 440
3  20 22 440
3  421 432 417
3  417 432 438
3  402 437 421
3  421 437 432
3  419 453 451
3  163 164 453
3  154 428 439
3  149 150 439
3  148 145 146
3  141 439 140
3  437 31 432
3  140 439 139
3  429 127 422
3  422 129 443
3  24 25 441
3  441 25 26
3  172 430 171
3  431 181 182
3  75 450 423
3  445 46 47
3  446 1 459
3  74 423 426
3  447 114 434
3  123 429 122
3  133 134 443
3  129 130 443
3  132 443 131
3  133 443 132
3  434 117 118
3  118 119 454
3  139 424 138
3  145 141 144
3  145 439 141
3  156 442 428
3  156 157 442
3  155 156 428
3  459 9 11
3  459 11 12
3  9 10 11
3  152 153 151
3  109 107 108
3  109 447 452
3  73 69 70
3  73 70 72
3  73 426 69
3  69 426 425
3  92 452 457
3  39 40 427
3  42 427 41
3  155 428 154
3  98 99 97
3  126 127 125
3  429 123 124
3  429 125 127
3  429 124 125
3  82 83 84
3  56 57 436
3  55 56 436
3  451 165 166
3  451 166 167
3  151 439 150
3  439 153 154
3  151 153 439
3  18 440 17
3  17 440 16
3  438 36 37
3  438 37 38
3  175 444 174
3  174 444 430
3  174 430 173
3  431 182 183
3  183 448 431
3  180 444 179
3  180 431 444
3  181 431 180
3  437 29 30
3  437 30 31
3  445 50 51
3  51 52 433
3  445 51 433
3  80 85 457
3  84 85 82
3  85 81 82
3  440 18 19
3  440 19 20
3  32 33 34
3  34 432 32
3  77 78 450
3  75 77 450
3  75 76 77
3  455 59 60
3  432 36 438
3  55 433 54
3  55 436 433
3  53 54 52
3  434 114 115
3  116 434 115
3  434 116 117
3  193 194 449
3  195 197 449
3  194 195 449
3  195 196 197
3  435 43 44
3  435 44 445
3  445 44 45
3  59 436 58
3  59 455 436
3  441 26 27
3  441 28 437
3  28 29 437
3  438 39 427
3  145 148 439
3  149 439 148
3  148 146 147
3  23 441 22
3  440 22 441
3  23 24 441
3  22 20 21
3  442 159 453
3  158 442 157
3  161 159 160
3  158 159 442
3  442 65 66
3  442 67 425
3  442 66 67
3  134 135 443
3  443 136 137
3  443 135 136
3  443 137 138
3  5 7 459
3  8 459 7
3  7 5 6
3  92 93 452
3  94 452 93
3  96 452 95
3  175 176 444
3  178 444 177
3  445 48 49
3  88 89 87
3  445 49 50
3  0 446 197
3  109 110 447
3  113 111 112
3  447 110 111
3  184 186 448
3  187 448 186
3  193 449 192
3  162 163 453
3  161 162 453
3  142 144 141
3  142 143 144
3  96 97 99
3  99 100 452
3  101 102 452
3  102 103 452
3  100 101 452
3  63 64 65
3  63 65 456
3  425 67 68
3  70 71 72
3  80 457 79
3  79 457 450
3  167 169 451
3  451 170 171
3  451 169 170
3  167 168 169
3  188 458 187
3  103 104 452
3  452 105 107
3  452 104 105
3  47 48 445
3  165 453 164
3  165 451 453
3  454 119 120
3  454 120 121
3  121 122 454
3  46 445 45
3  427 42 43
3  455 60 61
3  61 456 455
3  62 63 456
3  85 89 457
3  90 91 457
3  89 90 457
3  85 86 87
3  459 1 2
3  459 2 4
3  4 2 3
3  459 4 5
3  188 189 458
3  192 458 190
3  192 190 191
3  12 13 459
3  459 15 16
3  459 14 15
3  459 13 14
3  469 496 460
3  460 496 480
3  480 482 460
3  460 482 483
3  460 483 469
3  469 483 486
3  265 507 486
3  266 486 483
3  259 507 261
3  267 483 268
3  271 482 272
3  389 478 388
3  199 399 198
3  393 501 392
3  385 395 201
3  374 373 375
3  367 369 368
3  378 371 379
3  379 490 380
3  364 491 365
3  361 364 363
3  491 461 490
3  490 461 485
3  462 506 461
3  461 506 485
3  461 491 497
3  497 491 504
3  461 497 462
3  462 497 493
3  481 464 493
3  493 464 462
3  288 287 493
3  285 481 286
3  282 285 283
3  280 496 281
3  277 480 279
3  277 276 480
3  475 492 488
3  488 492 494
3  329 488 332
3  329 328 475
3  463 477 499
3  499 477 475
3  325 324 499
3  500 476 499
3  499 476 463
3  476 487 463
3  463 487 474
3  318 476 500
3  308 476 314
3  308 487 476
3  303 487 305
3  297 504 474
3  293 497 294
3  504 477 474
3  474 477 463
3  300 474 301
3  297 300 298
3  320 500 321
3  355 477 356
3  357 504 358
3  354 353 477
3  477 492 475
3  348 492 349
3  465 466 464
3  464 466 467
3  464 467 462
3  462 467 506
3  464 481 465
3  465 481 468
3  468 481 469
3  469 481 496
3  469 486 468
3  468 486 472
3  468 472 465
3  465 472 470
3  472 495 470
3  470 495 503
3  470 503 489
3  489 503 502
3  470 489 465
3  465 489 466
3  237 236 238
3  236 484 489
3  489 484 466
3  466 484 471
3  473 467 471
3  471 467 466
3  484 505 471
3  471 505 498
3  471 498 473
3  473 498 501
3  225 505 226
3  224 498 225
3  498 479 501
3  501 479 478
3  220 479 221
3  214 478 215
3  232 231 484
3  233 484 234
3  228 505 229
3  241 502 242
3  251 250 495
3  246 503 247
3  495 472 507
3  507 472 486
3  255 507 257
3  467 473 506
3  394 506 393
3  394 395 506
3  383 382 506
3  386 202 206
3  203 212 207
3  214 213 198
3  478 389 501
3  273 272 482
3  264 507 265
3  235 484 236
3  220 219 479
3  388 198 399
3  388 478 198
3  487 301 474
3  482 274 273
3  335 334 488
3  473 393 506
3  328 499 475
3  488 329 475
3  331 330 332
3  330 329 332
3  505 228 227
3  505 227 226
3  488 334 333
3  488 333 332
3  504 295 497
3  294 497 295
3  369 490 370
3  370 490 379
3  371 370 379
3  478 214 198
3  213 203 198
3  216 215 478
3  353 492 477
3  320 319 500
3  500 319 318
3  315 476 316
3  316 476 317
3  317 476 318
3  323 322 321
3  321 500 323
3  485 380 490
3  209 208 210
3  222 221 479
3  315 314 476
3  309 308 314
3  310 309 314
3  504 357 477
3  356 477 357
3  355 354 477
3  241 240 502
3  396 397 398
3  200 396 398
3  398 399 199
3  200 398 199
3  307 306 487
3  487 306 305
3  303 305 304
3  274 482 275
3  276 482 480
3  275 482 276
3  350 353 351
3  351 353 352
3  492 353 350
3  492 350 349
3  216 478 217
3  218 478 479
3  218 217 478
3  219 218 479
3  279 278 277
3  280 279 480
3  376 375 377
3  376 204 375
3  291 290 493
3  289 288 493
3  290 289 493
3  248 247 503
3  249 248 503
3  481 285 496
3  286 481 287
3  243 242 502
3  482 271 483
3  270 269 483
3  271 270 483
3  307 487 308
3  369 367 490
3  202 386 201
3  386 385 201
3  202 207 206
3  386 206 205
3  494 345 344
3  377 371 378
3  373 377 375
3  371 377 373
3  371 373 372
3  200 201 395
3  385 384 395
3  396 200 395
3  269 268 483
3  266 483 267
3  235 234 484
3  232 484 233
3  230 484 231
3  230 505 484
3  212 203 213
3  202 203 207
3  210 207 211
3  210 208 207
3  211 207 212
3  507 255 495
3  256 255 257
3  502 240 239
3  381 485 382
3  382 485 506
3  204 386 205
3  204 376 387
3  204 387 386
3  505 225 498
3  265 486 266
3  487 303 302
3  487 302 301
3  336 488 338
3  338 488 494
3  335 488 336
3  338 337 336
3  339 338 494
3  502 239 238
3  238 236 489
3  238 489 502
3  490 367 366
3  365 491 366
3  366 491 490
3  492 347 494
3  348 347 492
3  495 255 254
3  495 253 252
3  495 254 253
3  495 252 251
3  485 381 380
3  499 328 327
3  499 326 325
3  499 327 326
3  287 481 493
3  494 347 346
3  494 346 345
3  300 297 474
3  298 300 299
3  249 495 250
3  249 503 495
3  496 280 480
3  281 496 282
3  491 360 504
3  358 504 359
3  359 504 360
3  285 282 496
3  283 285 284
3  312 311 313
3  311 310 313
3  313 310 314
3  501 389 390
3  501 390 392
3  391 392 390
3  344 339 494
3  344 343 340
3  343 341 340
3  344 340 339
3  343 342 341
3  291 493 497
3  292 291 497
3  293 292 497
3  498 222 479
3  224 223 498
3  223 222 498
3  364 360 491
3  360 364 361
3  361 363 362
3  323 500 324
3  324 500 499
3  507 259 258
3  507 258 257
3  501 393 473
3  243 502 244
3  244 502 503
3  245 244 503
3  246 245 503
3  295 504 296
3  296 504 297
3  230 229 505
3  506 395 383
3  395 384 383
3  264 262 507
3  261 507 262
3  262 264 263
3  260 259 261
3  509 571 508
3  508 571 569
3  569 510 508
3  508 510 624
3  624 596 508
3  508 596 509
3  511 513 514
3  514 513 512
3  514 562 511
3  511 562 515
3  515 516 511
3  511 516 513
3  597 591 518
3  518 591 517
3  597 518 599
3  599 518 522
3  79 599 625
3  625 599 519
3  70 591 71
3  521 520 523
3  523 520 585
3  599 522 521
3  521 522 520
3  523 519 521
3  521 519 599
3  132 589 133
3  606 524 613
3  613 524 525
3  613 525 614
3  614 525 608
3  632 527 526
3  526 527 549
3  95 600 618
3  617 616 528
3  28 620 29
3  34 619 612
3  620 553 619
3  619 553 612
3  529 530 531
3  531 530 532
3  602 586 531
3  531 586 529
3  532 601 531
3  531 601 602
3  104 633 105
3  527 632 633
3  633 632 635
3  633 592 533
3  633 533 527
3  527 533 585
3  533 534 585
3  585 534 523
3  592 618 533
3  533 618 534
3  534 535 523
3  523 535 519
3  618 600 534
3  534 600 535
3  535 621 519
3  519 621 625
3  535 600 621
3  93 92 600
3  86 621 87
3  44 604 45
3  604 561 598
3  598 561 605
3  49 51 50
3  604 617 561
3  54 605 55
3  58 629 59
3  628 629 584
3  628 584 537
3  537 584 573
3  537 607 628
3  64 628 65
3  607 537 587
3  587 537 536
3  607 587 538
3  538 587 539
3  538 591 607
3  69 68 591
3  538 539 540
3  540 539 541
3  540 517 538
3  538 517 591
3  541 542 540
3  540 542 578
3  540 578 517
3  517 578 543
3  578 544 543
3  543 544 545
3  543 545 546
3  546 545 583
3  546 518 543
3  543 518 517
3  546 583 547
3  547 583 548
3  547 522 546
3  546 522 518
3  547 548 549
3  549 548 526
3  549 520 547
3  547 520 522
3  583 595 548
3  548 595 636
3  548 636 526
3  526 636 632
3  115 595 116
3  111 636 112
3  110 632 111
3  10 602 11
3  602 611 586
3  4 586 611
3  2 638 3
3  196 588 638
3  588 555 638
3  638 555 550
3  550 529 638
3  638 529 586
3  555 552 550
3  550 552 551
3  550 551 529
3  529 551 530
3  552 612 551
3  551 612 553
3  551 553 530
3  530 553 554
3  554 630 631
3  19 631 20
3  631 532 554
3  554 532 530
3  553 620 554
3  554 620 630
3  552 555 556
3  556 555 582
3  556 616 552
3  552 616 612
3  556 582 557
3  557 582 581
3  557 528 556
3  556 528 616
3  557 581 559
3  559 581 565
3  559 558 557
3  557 558 528
3  558 559 560
3  560 559 563
3  560 605 558
3  558 605 561
3  558 561 528
3  528 561 617
3  563 515 560
3  560 515 562
3  562 629 560
3  560 629 605
3  563 564 515
3  515 564 516
3  559 565 563
3  563 565 564
3  564 568 516
3  516 568 566
3  565 524 564
3  564 524 568
3  566 510 567
3  567 510 569
3  567 513 566
3  566 513 516
3  568 603 566
3  566 603 510
3  603 637 510
3  510 637 624
3  603 568 606
3  606 568 524
3  177 603 178
3  177 637 603
3  180 606 181
3  169 624 170
3  173 172 637
3  567 569 570
3  570 569 571
3  570 512 567
3  567 512 513
3  570 571 572
3  572 571 580
3  572 573 570
3  570 573 512
3  572 580 536
3  536 580 615
3  572 536 573
3  573 536 537
3  580 634 615
3  163 634 164
3  160 587 615
3  615 587 536
3  158 626 159
3  587 626 539
3  153 627 154
3  626 627 574
3  626 574 539
3  539 574 541
3  627 579 574
3  574 579 575
3  574 575 541
3  541 575 542
3  579 623 575
3  575 623 577
3  575 577 542
3  542 577 576
3  577 589 576
3  576 589 609
3  576 609 544
3  544 609 594
3  544 578 576
3  576 578 542
3  126 125 609
3  593 545 594
3  594 545 544
3  131 130 589
3  623 590 577
3  577 590 589
3  623 579 622
3  622 579 610
3  137 590 623
3  579 627 610
3  148 610 149
3  509 596 634
3  166 634 167
3  634 580 509
3  509 580 571
3  581 525 565
3  565 525 524
3  582 608 581
3  581 608 525
3  555 588 582
3  582 588 608
3  194 588 195
3  191 614 192
3  595 583 593
3  593 583 545
3  573 584 512
3  512 584 514
3  584 629 514
3  514 629 562
3  99 618 100
3  14 601 15
3  631 601 532
3  527 585 549
3  549 585 520
3  631 15 601
3  3 586 4
3  121 120 593
3  588 194 608
3  94 93 600
3  635 106 105
3  592 102 101
3  613 186 185
3  23 22 630
3  586 3 638
3  101 100 592
3  33 619 34
3  624 169 596
3  590 136 135
3  596 169 168
3  190 189 614
3  159 587 160
3  617 41 40
3  595 115 636
3  601 11 602
3  606 180 179
3  94 600 95
3  130 609 589
3  195 588 196
3  125 124 594
3  589 132 131
3  136 590 137
3  627 150 149
3  627 149 610
3  635 108 107
3  635 107 106
3  152 151 627
3  627 151 150
3  593 120 119
3  119 118 595
3  593 119 595
3  590 133 589
3  133 590 134
3  134 590 135
3  66 607 67
3  67 607 591
3  68 67 591
3  597 71 591
3  70 69 591
3  54 53 598
3  103 592 633
3  103 102 592
3  104 103 633
3  121 593 122
3  123 122 594
3  594 122 593
3  124 123 594
3  595 118 117
3  595 117 116
3  125 594 609
3  592 100 618
3  99 98 618
3  634 163 615
3  163 162 615
3  596 167 634
3  167 596 168
3  174 173 637
3  56 605 629
3  57 56 629
3  58 57 629
3  597 76 75
3  597 74 71
3  597 75 74
3  74 73 71
3  73 72 71
3  51 604 598
3  52 51 598
3  53 52 598
3  599 79 78
3  599 77 597
3  599 78 77
3  587 159 626
3  90 621 91
3  92 621 600
3  91 621 92
3  12 11 601
3  13 12 601
3  9 611 602
3  9 8 611
3  10 9 602
3  8 7 611
3  606 179 178
3  178 603 606
3  41 617 42
3  43 617 604
3  44 43 604
3  42 617 43
3  49 48 604
3  45 604 48
3  45 47 46
3  45 48 47
3  90 89 621
3  621 89 88
3  147 146 610
3  636 115 114
3  636 113 112
3  636 114 113
3  605 54 598
3  55 605 56
3  143 142 622
3  176 637 177
3  613 183 182
3  182 606 613
3  181 606 182
3  7 6 611
3  628 64 63
3  628 63 62
3  607 66 65
3  607 65 628
3  614 191 190
3  88 87 621
3  608 192 614
3  193 192 194
3  192 608 194
3  613 185 184
3  613 184 183
3  631 19 18
3  631 18 17
3  619 30 29
3  29 620 619
3  609 130 129
3  609 127 126
3  128 609 129
3  609 128 127
3  143 622 144
3  144 622 145
3  145 622 610
3  146 145 610
3  51 49 604
3  611 6 5
3  611 5 4
3  625 83 82
3  625 82 81
3  34 612 35
3  35 612 616
3  36 35 616
3  37 36 616
3  14 13 601
3  630 22 21
3  187 186 613
3  189 188 614
3  187 613 614
3  188 187 614
3  161 160 615
3  162 161 615
3  610 148 147
3  37 616 38
3  38 616 39
3  39 616 617
3  40 39 617
3  631 17 16
3  631 16 15
3  626 158 157
3  626 157 156
3  618 97 96
3  96 95 618
3  98 97 618
3  619 33 31
3  31 33 32
3  619 31 30
3  23 630 24
3  27 26 620
3  24 630 620
3  25 24 620
3  26 25 620
3  83 625 85
3  84 83 85
3  85 625 621
3  86 85 621
3  137 623 138
3  138 623 139
3  140 623 622
3  142 141 622
3  139 623 140
3  622 141 140
3  628 62 61
3  170 624 171
3  171 624 172
3  172 624 637
3  77 76 597
3  80 625 81
3  80 79 625
3  626 156 155
3  155 154 626
3  154 627 626
3  153 152 627
3  628 61 60
3  628 60 629
3  59 629 60
3  630 21 20
3  20 631 630
3  632 110 635
3  635 105 633
3  634 166 165
3  634 165 164
3  109 108 635
3  110 109 635
3  28 27 620
3  636 111 632
3  637 176 175
3  637 175 174
3  0 638 1
3  2 1 638
3  197 196 638
3  0 197 638
3  639 696 640
3  640 696 643
3  641 690 640
3  640 690 639
3  640 643 641
3  641 643 642
3  644 645 710
3  710 645 725
3  710 718 644
3  321 710 725
3  723 347 348
3  733 732 707
3  707 732 656
3  656 655 707
3  707 655 708
3  270 707 269
3  271 733 270
3  646 647 648
3  648 647 650
3  700 649 648
3  648 649 646
3  648 650 700
3  700 650 720
3  229 230 737
3  722 699 701
3  701 699 737
3  234 701 233
3  235 722 234
3  258 750 257
3  750 705 652
3  652 705 651
3  652 653 750
3  750 653 739
3  254 750 739
3  252 739 720
3  252 720 251
3  651 705 709
3  262 705 261
3  709 708 655
3  709 655 651
3  651 655 654
3  655 656 654
3  654 656 657
3  654 657 658
3  658 657 659
3  658 652 654
3  654 652 651
3  659 663 658
3  658 663 660
3  658 660 652
3  652 660 653
3  663 661 660
3  660 661 649
3  660 649 653
3  653 649 700
3  661 663 664
3  664 663 662
3  664 666 661
3  661 666 665
3  661 665 649
3  649 665 646
3  666 668 665
3  665 668 667
3  665 667 646
3  646 667 647
3  668 669 667
3  667 669 671
3  667 671 647
3  647 671 670
3  741 650 670
3  670 650 647
3  671 722 670
3  670 722 740
3  670 740 741
3  242 741 740
3  245 246 741
3  276 733 275
3  279 280 743
3  278 743 732
3  743 657 732
3  732 657 656
3  743 731 672
3  672 731 730
3  672 659 743
3  743 659 657
3  730 673 672
3  672 673 662
3  672 662 659
3  659 662 663
3  730 726 673
3  673 726 694
3  694 675 673
3  673 675 674
3  673 674 662
3  662 674 664
3  675 729 674
3  674 729 676
3  674 676 664
3  664 676 666
3  729 736 676
3  676 736 677
3  676 677 666
3  666 677 668
3  736 753 677
3  677 753 678
3  677 678 668
3  668 678 669
3  753 724 678
3  678 724 721
3  678 721 669
3  669 721 699
3  218 724 217
3  721 738 699
3  699 738 737
3  226 737 225
3  330 702 329
3  330 704 702
3  702 704 698
3  698 697 702
3  702 697 679
3  702 679 718
3  718 679 644
3  697 686 679
3  679 686 680
3  679 680 644
3  644 680 645
3  680 682 645
3  645 682 681
3  686 683 680
3  680 683 682
3  683 685 682
3  682 685 684
3  683 686 688
3  688 686 642
3  688 687 683
3  683 687 685
3  687 695 685
3  685 695 711
3  687 688 703
3  703 688 749
3  687 703 695
3  695 703 713
3  714 689 713
3  713 689 695
3  356 357 703
3  359 360 713
3  714 715 719
3  693 691 719
3  719 691 714
3  365 366 715
3  368 745 367
3  719 745 693
3  693 745 746
3  746 729 693
3  206 754 205
3  208 752 207
3  752 753 198
3  753 752 724
3  336 751 704
3  338 751 337
3  338 339 734
3  734 639 751
3  751 639 690
3  751 690 704
3  704 690 698
3  734 735 723
3  345 723 344
3  723 696 734
3  734 696 639
3  372 747 371
3  370 745 369
3  675 694 691
3  691 694 692
3  691 692 714
3  714 692 689
3  691 693 675
3  675 693 729
3  692 694 717
3  717 694 726
3  692 717 689
3  689 717 727
3  294 727 293
3  298 711 297
3  299 712 298
3  711 695 727
3  727 695 689
3  304 716 303
3  716 744 712
3  712 744 684
3  712 684 711
3  711 684 685
3  306 744 716
3  728 706 744
3  744 706 681
3  744 681 684
3  684 681 682
3  313 314 728
3  317 725 706
3  706 725 681
3  681 725 645
3  290 717 726
3  355 703 749
3  355 749 354
3  749 643 748
3  748 643 696
3  696 723 748
3  350 723 349
3  688 642 749
3  749 642 643
3  686 697 642
3  642 697 641
3  697 698 641
3  641 698 690
3  287 726 286
3  286 730 285
3  742 720 741
3  741 720 650
3  669 699 671
3  671 699 722
3  653 700 739
3  739 700 720
3  366 719 715
3  738 223 224
3  701 234 722
3  247 248 742
3  731 283 284
3  253 254 739
3  748 351 352
3  705 262 709
3  326 327 718
3  728 311 312
3  341 342 735
3  735 342 343
3  724 218 721
3  748 350 351
3  705 260 261
3  211 212 752
3  361 362 715
3  359 713 358
3  707 270 733
3  747 373 374
3  322 710 321
3  244 245 741
3  726 289 290
3  746 398 397
3  754 398 746
3  736 391 390
3  747 372 373
3  716 304 305
3  356 703 355
3  711 298 712
3  733 276 732
3  740 237 238
3  737 227 228
3  737 228 229
3  723 346 347
3  701 231 232
3  701 232 233
3  704 331 332
3  704 332 333
3  718 327 702
3  328 702 327
3  329 702 328
3  358 703 357
3  358 713 703
3  319 725 318
3  318 725 317
3  331 704 330
3  335 336 704
3  334 335 704
3  333 334 704
3  259 705 750
3  259 260 705
3  258 259 750
3  724 215 216
3  724 216 217
3  745 370 371
3  745 371 747
3  316 706 315
3  314 706 728
3  314 315 706
3  708 268 269
3  269 707 708
3  266 267 708
3  263 265 709
3  263 264 265
3  266 708 709
3  265 266 709
3  324 718 710
3  323 324 710
3  322 323 710
3  727 296 297
3  297 711 727
3  712 299 300
3  712 300 301
3  712 301 302
3  735 340 341
3  715 362 363
3  256 257 750
3  281 731 280
3  280 731 743
3  714 713 360
3  714 360 715
3  715 360 361
3  244 741 243
3  243 741 242
3  292 717 291
3  291 717 290
3  231 737 230
3  231 701 737
3  712 302 716
3  303 716 302
3  717 293 727
3  293 717 292
3  723 350 748
3  349 723 348
3  325 326 718
3  324 325 718
3  719 366 367
3  719 367 745
3  742 250 720
3  251 720 250
3  221 738 721
3  220 221 721
3  218 220 721
3  218 219 220
3  742 248 249
3  742 249 250
3  754 206 207
3  754 207 752
3  752 208 209
3  722 235 236
3  236 237 740
3  722 236 740
3  363 365 715
3  363 364 365
3  735 343 344
3  344 723 735
3  345 346 723
3  754 746 385
3  754 387 747
3  754 386 387
3  385 746 384
3  754 385 386
3  383 746 382
3  383 384 746
3  213 214 752
3  212 213 752
3  214 215 724
3  752 214 724
3  316 317 706
3  752 209 210
3  752 210 211
3  751 338 734
3  320 321 725
3  319 320 725
3  281 282 731
3  731 282 283
3  730 286 726
3  288 289 726
3  287 288 726
3  727 294 295
3  727 295 296
3  311 728 310
3  310 728 309
3  716 305 306
3  393 391 736
3  729 394 393
3  393 392 391
3  729 393 736
3  397 396 395
3  397 395 746
3  394 729 746
3  395 394 746
3  731 285 730
3  285 731 284
3  368 369 745
3  732 276 277
3  732 277 278
3  708 267 268
3  312 313 728
3  733 271 272
3  273 733 272
3  733 273 275
3  275 273 274
3  340 735 339
3  339 735 734
3  753 736 389
3  399 398 754
3  753 388 399
3  389 736 390
3  753 389 388
3  753 399 754
3  262 263 709
3  738 221 222
3  738 222 223
3  738 225 737
3  226 227 737
3  225 738 224
3  253 739 252
3  740 238 239
3  241 740 240
3  740 241 242
3  240 740 239
3  247 742 246
3  246 742 741
3  279 743 278
3  744 306 307
3  744 309 728
3  744 307 308
3  744 308 309
3  745 747 378
3  387 376 747
3  381 382 746
3  745 381 746
3  745 380 381
3  376 377 747
3  745 379 380
3  378 747 377
3  745 378 379
3  747 204 754
3  204 747 375
3  205 754 204
3  375 747 374
3  748 352 353
3  748 353 354
3  354 749 748
3  256 750 255
3  255 750 254
3  337 751 336
3  752 198 203
3  198 753 199
3  752 202 754
3  201 200 199
3  202 201 754
3  199 753 754
3  201 199 754
3  752 203 202

