OFF
511 1014 0

0.087201783599796828 0.198924848968769 -0.075997127578605522
0.087200185099391786 0.1989242458130257 -0.075979548753049797
0.087188915431620218 0.19892690406449265 -0.075968283444446727
0.087072358826513374 0.19895472875741457 -0.075857180042562491
0.086871662392640797 0.19899635721217912 -0.075690696747869796
0.086817798222993417 0.19901712045314118 -0.075608118938527397
0.086585000586063804 0.19901779315647572 -0.075603145250403139
0.086473459852715331 0.19901909341270535 -0.075607354200308063
0.085627633108084356 0.19901384041409897 -0.075709191232204043
0.085471758205255058 0.19899742964595857 -0.075584522554175776
0.085232190044595146 0.19895026514140352 -0.075565040290762595
0.084736774640942786 0.19890279010093898 -0.075789889185431614
0.084063224024360145 0.19882826198344747 -0.075780217253547083
0.084045140323431689 0.19877746778047722 -0.075608942699166154
0.083748389689762809 0.19858600769327925 -0.075490703633963624
0.083536064128080789 0.19845184724477369 -0.075417968474740915
0.083466558761995199 0.19849817086911356 -0.075559411391576431
0.08340442397479636 0.19861840713561368 -0.075843377472929185
0.083374738046130464 0.19883559054534933 -0.076286641280662468
0.083108256024013422 0.1986957443620104 -0.076197286857075691
0.0832818018948005 0.1988782742512811 -0.076388346028383847
0.083332719712141734 0.19901391576893779 -0.076541461162067601
0.083514258440286621 0.19898446801390288 -0.076480741898439425
0.083522627452139092 0.19895148807447616 -0.076410780269640335
0.083545832291675226 0.19894475814236959 -0.076381745746913476
0.084003006212677173 0.19885288061402706 -0.075888991438249065
0.084177008639844272 0.19898597517629807 -0.07629049093459972
0.084178592473581587 0.19905932165679402 -0.076518375224498392
0.084152000257765175 0.19914016820991837 -0.076779422397981911
0.084564471619900675 0.19930825914206096 -0.077159413065361213
0.084688106843220368 0.19937270910613736 -0.077317120441366238
0.084682603624692321 0.19938836157525486 -0.07735030924386585
0.083918843357930706 0.19950285269234719 -0.077488965130305509
0.083584644407645736 0.19978774635302185 -0.077884104312962332
0.083554115390287592 0.19987746908790638 -0.078010937907955991
0.083809709763827497 0.2000855915466529 -0.078315587152306104
0.084067574547380591 0.20010411112693754 -0.07835021897609884
0.084598780446429711 0.19987954265730129 -0.078172128902610077
0.084624615191925309 0.19987333322822343 -0.078171895678420006
0.084672268360548419 0.1998569492847323 -0.078162647286600911
0.085008211335412392 0.19970505958516396 -0.078032369195600568
0.085055402510545483 0.19954131061184219 -0.077798320465953849
0.084989122855553004 0.19950470143800342 -0.077697793883124672
0.084808591497119418 0.19943967180713917 -0.077479829495345237
0.084752942484453322 0.19939169847953037 -0.077367674604429615
0.084860432468650632 0.1993801380676829 -0.077358044404397849
0.085706863475194531 0.19937586554579648 -0.077651115706001986
0.086315667027763165 0.19936282475885564 -0.077819527146267831
0.086515054769001704 0.19941207210167811 -0.078102243352158207
0.086648296771327446 0.1994365829498316 -0.078255457592425068
0.086955508661499828 0.19946232655867702 -0.078477883380689215
0.087216341157070942 0.19936227692808417 -0.078490193848106321
0.087614039529915588 0.19912431196043054 -0.078219372333352605
0.087695557095343712 0.19906754666403598 -0.078136776288802584
0.087768495534388896 0.19892842047145437 -0.077763386730505979
0.087586981143016995 0.19892236622709109 -0.077498241335745482
0.087493461509745296 0.19889280960891925 -0.077272001694797615
0.087716659269423319 0.19882104243674908 -0.077237139542330885
0.087878680100512807 0.19876307198347562 -0.077022313979608001
0.088332798221214301 0.1986196204419024 -0.077034168602250264
0.088336283932763451 0.19857792787571141 -0.076829918274652992
0.08826786347072324 0.19860752433801035 -0.076632142093334743
0.088198882821984043 0.19860524644252647 -0.076261451781930334
0.088124238913876857 0.19865849850111306 -0.076157495495413841
0.088048586636048046 0.19868187792208369 -0.076138795222331856
0.087262517547108287 0.19890671389719661 -0.075995731582766221
0.087266279491092419 0.19890681931276558 -0.076015677881360461
0.082626093485580948 0.19833833775211718 -0.075883976412872478
0.082648538503019453 0.19833360017885093 -0.07586750725732698
0.082703338360798684 0.19827715438499222 -0.075762096972994186
0.082695941017463998 0.19824120102895282 -0.075744957220133871
0.082642591103577079 0.19805448617964916 -0.075673597859783545
0.082757486814910713 0.19763126802590802 -0.075233107601247906
0.082661223232363829 0.19744202818013501 -0.075194380042549275
0.0824353845499875 0.19709943146610109 -0.0752037857876591
0.082301719696068809 0.19702156324896028 -0.075332890800131114
0.082285737194006586 0.19701816205584893 -0.075349333679947089
0.08224674557507887 0.19706279218643591 -0.07539845486381784
0.082203708957156479 0.19706396137180746 -0.075425573371705162
0.082044446903283358 0.19709738958562284 -0.075542326869817114
0.081872266822380857 0.19661763901048229 -0.075590437913315045
0.081509131110317573 0.19593623027563284 -0.075752480207501416
0.081987854939829991 0.1961233869440405 -0.075470159955915161
0.081842460394530872 0.1955958870450078 -0.075510437287815507
0.081721403620393679 0.19527853016665081 -0.075577855190498353
0.081482819972365172 0.19417530219107601 -0.075696082527556885
0.081439666974733607 0.19388015672331707 -0.075700017210464668
0.081432695485212536 0.19365014634946393 -0.075689929872452488
0.081390575905003204 0.19337105069784741 -0.075715731124672739
0.0813318553529431 0.19283642586675032 -0.075754199782675502
0.081335153244989244 0.19272004818227007 -0.075754552464013539
0.08136385167212834 0.19267835048476367 -0.075728542699720736
0.081219822499975239 0.19200348839123443 -0.075799151482476831
0.081179295142371516 0.19155487920821102 -0.075801483816292176
0.0811638973280151 0.19149945325709622 -0.075824215712039317
0.081154851922596208 0.1913377541349339 -0.075861401241582693
0.081160612671330817 0.19129727294996174 -0.075864193876344022
0.081144523771127686 0.19121240247407828 -0.075892920729463687
0.081035404191492161 0.19067294066901855 -0.076046432275180098
0.08101765312879447 0.19042668371820815 -0.076094050787086406
0.080945572684426856 0.19024271443489971 -0.076170825877820175
0.080835108217091556 0.18986519376360128 -0.076302141820666941
0.080833548189669549 0.18986266904924221 -0.07630359529508754
0.08082868927288972 0.18985410412971951 -0.076308222545508009
0.080815689324826329 0.18983481834628757 -0.076320084100754221
0.080870180027931338 0.18964428573064651 -0.076471003246434716
0.080853611603662612 0.1893685716214395 -0.076671796946822607
0.080868684546739733 0.18900183478364632 -0.076925000542112154
0.080829932055427545 0.18888696385896792 -0.077020568601418815
0.080905819324555886 0.18887909731139757 -0.077019423097074907
0.081121006292716624 0.18885717070632477 -0.077099212670369108
0.081146123746716536 0.18885459863186527 -0.077105746366405492
0.081256310724385467 0.18884380933067824 -0.077242402402039917
0.081350823491607938 0.18883446412147559 -0.077339793725353434
0.08142807264348717 0.1888271624841581 -0.07749296875939507
0.081544410695809449 0.18881630734903107 -0.077754518524187174
0.081695060574537681 0.18871912517232228 -0.077985480384624301
0.081700933606292991 0.18872390139053954 -0.078005584026829916
0.081639086746877823 0.18900186900231861 -0.078486968389360839
0.081794010141118978 0.18893138297575038 -0.078602441759791059
0.081873982579043048 0.18898201858731248 -0.078786002916457654
0.081919268264826123 0.1891239213011488 -0.079087078342702954
0.08187775388635446 0.18927815490703453 -0.07928164155075311
0.082098350501826803 0.18915510276766123 -0.079336255537641051
0.082173865791220602 0.18919370082423875 -0.079436617282270652
0.082164261233192176 0.18945531591645354 -0.079738693632864427
0.082166025662564438 0.18947301487391205 -0.079760880770629414
0.082178873697704796 0.18945055288413593 -0.079752654936131484
0.082351054799200657 0.18905083016839935 -0.079503419894066646
0.082344594504457108 0.18898415203117588 -0.079414421627105117
0.082360622023414487 0.18888001294250062 -0.07932911092653086
0.082380264810938048 0.18882371511260176 -0.079301379732441196
0.082554592955278408 0.18848236041844524 -0.079253846972171138
0.08280846708002404 0.18831219818672335 -0.079594812138053556
0.08287671451788757 0.18832366624976232 -0.079758248230439616
0.082892177949457885 0.18833492552340803 -0.079802821565137266
0.082996127512548229 0.18836361220067538 -0.080061525791978991
0.0830976253812718 0.18843063526018305 -0.080358992815122737
0.083105028394978991 0.18849657422606592 -0.080450896650405945
0.083089384995180982 0.1885710178749635 -0.080502538049627301
0.08295285572480024 0.189107465275999 -0.08082298799607926
0.082884957566281309 0.18927451234623272 -0.080867656827391471
0.082859034273172164 0.18938372426259997 -0.080967392982042488
0.082711433246805591 0.18984541665823215 -0.081292458813164298
0.082648128531675177 0.19002727369937794 -0.081407375664192039
0.082462531008827611 0.19055879400756753 -0.081741235339054905
0.082388649505059683 0.19075944001514461 -0.081857538849955502
0.082328765927303649 0.19086741542993296 -0.081851277083629798
0.082060202757220202 0.19147607516180301 -0.081983853926003186
0.081772545895877416 0.19238480278582915 -0.082457456264152185
0.081766335376704399 0.19240481096461187 -0.082468372789959762
0.08175828666106924 0.192446702698026 -0.082502696512255114
0.081729309287126795 0.1926003588306909 -0.082630614076705203
0.081850643910478596 0.19231460387439592 -0.08264285300594866
0.081964344127269703 0.19204520824176052 -0.082615369727408822
0.08214069818767597 0.19162403070382472 -0.082492623797051912
0.08203270719379098 0.1919065112180865 -0.083158421541573907
0.082033999709016064 0.19191130852876012 -0.083347039730196401
0.082024090178572234 0.19195454770070289 -0.0835429493599045
0.082070870448151909 0.19179748005437147 -0.083583651300928874
0.082063591790538404 0.19164283832881054 -0.083846858485927656
0.082128005367551452 0.19111249689556137 -0.08437561883190467
0.082097627483873364 0.19102283759470035 -0.084637654717292649
0.082079254541410948 0.19097357062198886 -0.084791064114088099
0.082055700612190086 0.19091101835609664 -0.084987112066530882
0.082035463941342063 0.19105684595613609 -0.084951424687186097
0.082000999523805143 0.19122841486722147 -0.08496918432233716
0.081975283122355802 0.19148713807273082 -0.084848750112832841
0.081962039188877844 0.19164809704778873 -0.084638478795175665
0.081910306008149303 0.19217954377514535 -0.084337484012720954
0.081807621024147542 0.19273270340456938 -0.084408262258769171
0.081853376167937406 0.1925484165672583 -0.083818898958942567
0.081838445794878228 0.19259787221680658 -0.083792077887984595
0.081646113531775533 0.19342179401426052 -0.083913665560584869
0.081569224588425165 0.19374937875900988 -0.084006922873310352
0.081619705726914044 0.19372341355419709 -0.084401594693754953
0.081627225854663685 0.19371342575035286 -0.084452409214516411
0.081765342132487165 0.19294043581170273 -0.084616984881359131
0.081789153606239645 0.19278977990431984 -0.084801341036171901
0.081886673413981481 0.19217874347606367 -0.085502786827471991
0.081910854074327411 0.19194725235311733 -0.085553013016984217
0.081916259572577949 0.19189625749335723 -0.085560207266271504
0.081928575786264113 0.19199579507058795 -0.085911762445745055
0.081912308989095142 0.19213351122234576 -0.08586565378071595
0.081910922561098776 0.19214602742296377 -0.085861603764550348
0.081904093364208924 0.19222200742834211 -0.085863815248846731
0.081869998049933931 0.19247382612251546 -0.085677631843866536
0.081766485015552795 0.19329731834040015 -0.085092012535263328
0.081629903314242094 0.19375934807104422 -0.084535014181541329
0.081620207674644063 0.19380270579410303 -0.08450924186346534
0.081612176604080419 0.19383579578375582 -0.084484212108049905
0.08152142034826336 0.19421098015146082 -0.084201543697799502
0.081445277647847647 0.19417604611193282 -0.083912785299787213
0.081491046293753533 0.19397459327572464 -0.083841709623225402
0.081556412343787868 0.19358861287701179 -0.083503297030862844
0.081708776680718131 0.19266120806193576 -0.082647680663704662
0.081608936333182752 0.19286945217881846 -0.082596417971650654
0.081380750908856145 0.19341802152897117 -0.08253764637079819
0.08130295421940939 0.19333162577335644 -0.082297786306847198
0.08123629033517353 0.19332047381424453 -0.08215365161653751
0.081288745619051667 0.19286954225987957 -0.081900864541974844
0.080917270523906293 0.19363882597049398 -0.0818988956714507
0.080863901802623803 0.19307499152787083 -0.081589129885444089
0.080813618484901456 0.19265750392490025 -0.081349476007191862
0.081076251118704173 0.19247269179866805 -0.081450637699681
0.081489560314956425 0.19151219975320519 -0.081109799083158851
0.081501357877901873 0.19146803453293626 -0.081089225282599708
0.081564735319660242 0.19114607420228924 -0.080912427016719315
0.081544686657123486 0.19108851386478104 -0.080843626404415919
0.081525106650313595 0.19107161648607468 -0.080813178524486828
0.081419993521581274 0.19115023164456429 -0.080807968350131876
0.080953369826592514 0.1919879105544039 -0.081044185285604919
0.081040792303387232 0.19111387098251789 -0.08061936457191568
0.080858209097193476 0.19099264846427383 -0.080473511276642623
0.08081472316920052 0.19099674380118109 -0.080465634777898032
0.080772128655227704 0.19103588467844934 -0.080486543214714851
0.080752243312741959 0.19104862761805375 -0.080494701049874912
0.080711609713896348 0.19104908791116862 -0.080503954813063272
0.080511444428408102 0.19112438440807639 -0.080570712885841347
0.080081214682266033 0.19100626863288572 -0.080567816695867905
0.080166223923102242 0.1908288913613258 -0.08047649798247955
0.080165499348310854 0.19078003647091635 -0.080454217610037501
0.080086911842070563 0.19052616126998029 -0.080347337988286666
0.080007700530651121 0.19051352420479828 -0.080387257196301451
0.079740541743398466 0.19041359508391104 -0.080487110159070951
0.079735229522819445 0.190410331193924 -0.080488648259024867
0.079422108302902264 0.18986613697975258 -0.080456044159607318
0.079376275820841821 0.1897555949179397 -0.080440449846134535
0.079372358111356206 0.18974229298307083 -0.0804377668921884
0.079389117874031231 0.18964547642842511 -0.080374425891934539
0.079413441209773436 0.18959241301700391 -0.080325060677002763
0.079647456087378138 0.18917533626238217 -0.079907631330735307
0.079614357607624767 0.18898969917824865 -0.079816110629331194
0.079654413583259379 0.18886734429607693 -0.07971329275491304
0.079687543371117497 0.18875110841770351 -0.07962200765116717
0.079693093847189228 0.18873576192967406 -0.079608428242540968
0.07971690388173755 0.1887342909289712 -0.079576908009851816
0.079956344571527976 0.18864435279380848 -0.079228720526025032
0.079991443605368362 0.1884052706075936 -0.078942326073227237
0.080080721528581658 0.18832594702101824 -0.078764794822278578
0.080203512167836083 0.18834581769950592 -0.07850686376551938
0.080203510096783143 0.18834573960622522 -0.078506678098637234
0.080204434351524023 0.18830565222975573 -0.078312057391114478
0.080252502480325477 0.18831886517111257 -0.078186511821245586
0.080370626336823514 0.18835713626103107 -0.077905633040804279
0.080377429514039769 0.1885785811656403 -0.07761181492113832
0.080383012737968829 0.18858808551441336 -0.077588793632645536
0.0804075063650114 0.18861889554852984 -0.077525724131511972
0.080441071360098759 0.18866288502580544 -0.077433134169026197
0.080531509297883858 0.18877130938053394 -0.0772188516763474
0.080555828684426706 0.18879230245362827 -0.077189669183971549
0.080649938082473421 0.18887655063939326 -0.077066251670218119
0.080603140620494562 0.18893711983686795 -0.077033548686884737
0.080499772287211002 0.1891975339558378 -0.076845053556395981
0.080294053707104657 0.18966470216941847 -0.076506485533839014
0.080260110694325065 0.18967448660563849 -0.076511727550762937
0.080235024748813444 0.18969754354001536 -0.076512774057489963
0.080040472594348266 0.18987706802450299 -0.076520763627915683
0.080039415879345488 0.1898790817299425 -0.076520621448193493
0.080033202952747337 0.18989184460567449 -0.076519620525946852
0.079887724965450629 0.1902289726259685 -0.076489343747623478
0.079836173158425644 0.19037508693238708 -0.076473853268800088
0.079787370675619723 0.19072901203659515 -0.076420665798538401
0.079730914573841433 0.19121249040195271 -0.076345906470162095
0.07971118634038088 0.19136293835339871 -0.076318123463436138
0.079713598138293817 0.1914379918900537 -0.076301054643216015
0.079719551157444307 0.19145757711963748 -0.07629975367938753
0.079790043031421204 0.19176000243413549 -0.076285747321475722
0.079850399257407778 0.19200833676945603 -0.076273544433990884
0.079845822710420428 0.19207751010713281 -0.076255094023965714
0.079748990404118314 0.19297047602232487 -0.076006070213326504
0.079820268738471131 0.19362946207034715 -0.075945952771631658
0.079848986925228252 0.19384591809460119 -0.075927131280936949
0.079855360052043439 0.19394910593797554 -0.075916882798224034
0.079909911424136559 0.19434154883507998 -0.075910198657080735
0.080134897052672863 0.19470061257427249 -0.075938164588813042
0.080420755492711299 0.19544363645288867 -0.075961050991882439
0.080446707042271193 0.19563698123813311 -0.075946896134336653
0.080403271370762475 0.19586080206450263 -0.075931596981254221
0.080404125618876721 0.19591815498478293 -0.075932609303444337
0.080416399039689695 0.19596734962345394 -0.075938227643745998
0.080708361813561766 0.19719324891326465 -0.076080674144957283
0.081146481293929373 0.19686973327670323 -0.075952502328003491
0.080975762988477487 0.19625459335572526 -0.075940957549413796
0.081132805442823475 0.19570436206540542 -0.075931948308370842
0.081002667003011508 0.19552870768563413 -0.075946384277091133
0.081010856794855174 0.1951195201206361 -0.075975407530926353
0.081017888085184939 0.19507555789591008 -0.075978434736204623
0.081104499426915944 0.19532192252885877 -0.075950187944857556
0.081162427616194216 0.19548970399769616 -0.075931472432340386
0.081192243363110483 0.19565933863301344 -0.075926737165645797
0.081194734712311034 0.19569168676999704 -0.07592614094159067
0.081198517183030033 0.19571036290275212 -0.075925571602719455
0.081576658850539968 0.19711930478920281 -0.07587370943333413
0.08160142455020819 0.19728934711928789 -0.075882087643901447
0.081615465561623524 0.19730055336613034 -0.075879769710119532
0.08164333534266402 0.19742984846692702 -0.075934709845461662
0.081878308317645851 0.19824020245265617 -0.076276598812224983
0.082106323618614613 0.19843585358347354 -0.076247644287479696
0.079459806049820031 0.197477072970764 -0.075312121005654722
0.07928484567670363 0.19733642974701965 -0.075088812484594869
0.079268795263076425 0.19733253221982228 -0.07507238181541756
0.079260083941046208 0.19689425965136936 -0.07486705023851413
0.079354863110637081 0.19632099424331964 -0.074989975876230575
0.079434034580520424 0.19590241101905101 -0.075116482098284768
0.079497847770847729 0.19572467418701045 -0.075281541567335519
0.079564293715142315 0.19584098314221468 -0.075351086420329505
0.079628650663816761 0.19554299084120125 -0.075412194552699041
0.079560518769205224 0.19534518088451022 -0.075372274569164524
0.079527251550326694 0.19531392555139857 -0.075349629512241639
0.07948659228581112 0.19482084568416003 -0.075343906554100948
0.079526673896080702 0.19418493241952364 -0.075577755871281904
0.079723807614758641 0.19449651566779941 -0.075686353991870903
0.079913366621146092 0.19444730919111664 -0.075896416928831117
0.080061406873222621 0.19507134147107225 -0.075859847092492189
0.080219865153160819 0.19563111705531919 -0.075853462987773512
0.08030249363500068 0.19579354405342791 -0.075889343157289235
0.080319629157021594 0.19588367597434114 -0.075897434294199373
0.07986267716242329 0.19713792833105487 -0.075723807325235884
0.079861052333345617 0.19734613635546411 -0.075725537183915753
0.07986015740022423 0.19758990043212402 -0.075728986837709927
0.079848800849861831 0.19760276576385966 -0.075724396733628241
0.079819380663604972 0.19783322964349281 -0.075801281117209088
0.079795445123973574 0.19801748964439025 -0.075862603130949752
0.079438027315019699 0.19835256630460057 -0.075686873510746017
0.079443937495207603 0.19804743541872888 -0.075554462061514616
0.073318672458265233 0.19836215366469684 -0.078243343765559276
0.073642764318575499 0.1984806145400872 -0.078553580270360884
0.073649081775739381 0.19846779481992166 -0.078560994934223916
0.073638877357759785 0.19845557396815464 -0.07855548651967198
0.07333244554920329 0.19825435119110194 -0.078283409555012534
0.073300861895691904 0.19820718000022286 -0.078261663659447214
0.073295641541546289 0.19819601577285675 -0.078258871597628121
0.073186797999567649 0.19814370343136101 -0.078098664486817723
0.073154328292630161 0.19841313535050475 -0.078043668158917445
0.073114598206044656 0.19856983761040586 -0.077980746209190252
0.081207309856740711 0.19019504156305039 -0.079901889430191358
0.081115821432542978 0.19022193216424793 -0.079939000326258058
0.081060323183142019 0.19050133844070122 -0.080128740562543446
0.081141390000448566 0.19038477683947608 -0.080051239683600561
0.081223717245862359 0.19029564021598588 -0.079999840327430294
0.081429735976315434 0.19040057573391633 -0.08017755088355448
0.081483427336539432 0.19024203721298905 -0.080075436321615859
0.081382506636703517 0.19017267116898715 -0.079946424539066335
0.081235362096332656 0.19021687258549036 -0.07993077952785782
0.08121515426083778 0.19018699987621057 -0.079895061521419147
0.080669634367321885 0.19249281880829799 -0.081212686976376805
0.080763743122827594 0.19245681691595024 -0.081215574968801066
0.080777364651548098 0.19264894336157248 -0.081318938325621509
0.080515189424840108 0.19311388153727979 -0.081354368191790871
0.080526097056291338 0.19261776528408353 -0.081226529499415945
0.08045491898679738 0.19251748379005654 -0.081176114374386016
0.080398845746432412 0.18994555875813199 -0.079850937965328495
0.080351190161843195 0.1899957236279009 -0.07989818886610528
0.080367009916569448 0.1899264687229098 -0.079850237295151172
0.080388371844335366 0.18992059008094109 -0.079832359346934612
0.094173496575916671 0.19545797108972784 -0.083208708290228181
0.094333874813612079 0.19536280927798538 -0.082354610415160304
0.09433620732518587 0.19539649151865901 -0.082146691390824395
0.094329632217078352 0.19540344061271933 -0.082111870711924523
0.094296530688352559 0.19541858101990267 -0.08205749336257856
0.094228938755274341 0.19544943606360421 -0.081946829011003836
0.094139600204613871 0.19551674841534844 -0.081855117072874878
0.09403660511936926 0.19559433651656613 -0.081749933354225063
0.093683870527088431 0.1959065323292053 -0.081487307275907139
0.093630042787792855 0.19596951182749045 -0.081479442705976846
0.0933308706584835 0.19639224732277799 -0.081588410738145253
0.093291121405382371 0.19644234830078702 -0.081590150262834227
0.093462359054379884 0.1962604908045677 -0.082571660612652045
0.093371376926627253 0.19639314402811786 -0.083098951512163011
0.093627815668516745 0.1960769813744882 -0.083293225084711514
0.093503550382601289 0.19608102453629378 -0.083529009823988212
0.093192851894967121 0.19578846189684612 -0.084535005463480889
0.093102474284342929 0.19579738352894255 -0.084665788588806551
0.093181398911391017 0.19564211175815474 -0.084758622698422159
0.093181891426956653 0.19564061762384236 -0.084759722017313507
0.093210208495342367 0.19557435288643865 -0.084795902838955967
0.093230080279569971 0.19554286292164952 -0.084800637080248667
0.093366193052781293 0.19542561992273644 -0.084767665289532876
0.093538198428748526 0.19536107998620927 -0.084587581160272568
0.093640771572115686 0.19537032431384443 -0.084401178662703968
0.093780437568767264 0.19519895419034028 -0.084386940380578035
0.094096459677376551 0.19530480712427328 -0.083711881915123687
0.094250419048458087 0.19529271392526007 -0.083465916631338094
0.079834489155221205 0.19467721511293745 -0.081553702557823377
0.079822962944176401 0.19471811928796223 -0.081561736503187945
0.079788714898008484 0.19476707423329087 -0.081555418166630977
0.079784756437507848 0.19470289218483156 -0.081549804435506634
0.081473151186858606 0.18959787114899951 -0.079328407640235549
0.081405099087470983 0.1897194612451511 -0.079442252936701693
0.081387232507567853 0.18959575840513737 -0.079308153863661718
0.081455096719538794 0.18955950113118164 -0.07924823591837557
0.081448276359410543 0.19253854857225758 -0.081901249327346104
0.081358360101381838 0.19267190686979271 -0.081861701877638804
0.081348795490313347 0.19259407943981738 -0.081789469617700755
0.081348075881081866 0.1925333447905101 -0.081743462791429133
0.081361596520213575 0.1924956942484041 -0.08172766097440487
0.081693297213454502 0.19188649720173567 -0.081644146564767511
0.081571886840927532 0.18907310821613424 -0.078522739539328187
0.081546109698998739 0.18912628820461425 -0.078591047189949581
0.081529027077732255 0.18908715220096997 -0.078518625102144329
0.081547161056403278 0.18908069272554184 -0.078496571656370709
0.073313586413860321 0.19827359914779663 -0.078246310353279114
0.080239571630954742 0.19183391332626343 -0.076426871120929718
0.080347329378128052 0.19025424122810364 -0.076869115233421326
0.080564819276332855 0.18922370672225952 -0.077624134719371796
0.080355852842330933 0.18875062465667725 -0.078463532030582428
0.080292545258998871 0.18913979828357697 -0.079194031655788422
0.080402664840221405 0.18914365768432617 -0.077620081603527069
0.080564036965370178 0.19180090725421906 -0.076380163431167603
0.080747775733470917 0.18927846848964691 -0.077609293162822723
0.080845698714256287 0.18913611769676208 -0.078476466238498688
0.080940894782543182 0.18927058577537537 -0.077571660280227661
0.080543681979179382 0.19025976955890656 -0.076834596693515778
0.080727763473987579 0.19022628664970398 -0.07676011323928833
0.080571919679641724 0.18897250294685364 -0.078471876680850983
0.080282941460609436 0.18902693688869476 -0.07758302241563797
0.083079203963279724 0.18851333856582642 -0.080378703773021698
0.080882549285888672 0.19015929102897644 -0.076653368771076202
0.079937979578971863 0.19000506401062012 -0.076648242771625519
0.080978602170944214 0.18995299935340881 -0.076387912034988403
0.08286256343126297 0.18917329609394073 -0.080597929656505585
0.081532970070838928 0.19390958547592163 -0.083908051252365112
0.081260338425636292 0.18905456364154816 -0.077390290796756744
0.079854823648929596 0.18947304785251617 -0.079875670373439789
0.082135006785392761 0.19103194773197174 -0.081491045653820038
0.080635793507099152 0.18941561877727509 -0.079196356236934662
0.082723349332809448 0.18869201838970184 -0.079734191298484802
0.080690495669841766 0.19012044370174408 -0.07985735684633255
0.080231115221977234 0.18984498083591461 -0.079847246408462524
0.081126287579536438 0.18919791281223297 -0.077504843473434448
0.081268295645713806 0.19252920150756836 -0.081617832183837891
0.080147534608840942 0.19021724164485931 -0.076858930289745331
0.081632405519485474 0.19254811108112335 -0.082191199064254761
0.080206669867038727 0.19081424176692963 -0.080450244247913361
0.081077389419078827 0.19161252677440643 -0.076032549142837524
0.080982834100723267 0.19006335735321045 -0.076520062983036041
0.081061840057373047 0.18958775699138641 -0.079231448471546173
0.081707596778869629 0.19528627395629883 -0.075597763061523438
0.081229940056800842 0.19345960021018982 -0.075904190540313721
0.08175455778837204 0.19114062190055847 -0.081049419939517975
0.081720292568206787 0.19023783504962921 -0.080180063843727112
0.08129439502954483 0.19115383923053741 -0.080717325210571289
0.08026093989610672 0.18886014819145203 -0.077541545033454895
0.080852366983890533 0.19172488152980804 -0.076242916285991669
0.081933990120887756 0.19222542643547058 -0.082815341651439667
0.082545854151248932 0.18998180329799652 -0.080965004861354828
0.082068763673305511 0.18948644399642944 -0.079647451639175415
0.08215457946062088 0.1901526004076004 -0.080508172512054443
0.082486920058727264 0.18935014307498932 -0.080046974122524261
0.080378003418445587 0.18868950009346008 -0.077470220625400543
0.079987093806266785 0.19013182818889618 -0.076784953474998474
0.079887226223945618 0.19364717602729797 -0.076000683009624481
0.080017633736133575 0.18879148364067078 -0.079210266470909119
0.080213122069835663 0.1884666234254837 -0.078473955392837524
0.080339506268501282 0.19366843998432159 -0.076156213879585266
0.080817095935344696 0.1935914009809494 -0.076119862496852875
0.079905293881893158 0.19180308282375336 -0.076357364654541016
0.081171587109565735 0.18920427560806274 -0.078484311699867249
0.081559352576732635 0.18959999084472656 -0.079348728060722351
0.081605516374111176 0.18906208872795105 -0.07852596789598465
0.080835156142711639 0.18985570967197418 -0.076308228075504303
0.080548405647277832 0.19563961029052734 -0.075988784432411194
0.081678710877895355 0.19726616144180298 -0.075862288475036621
0.08118012547492981 0.19548538327217102 -0.075929820537567139
0.081295043230056763 0.1888958066701889 -0.077266767621040344
0.079763635993003845 0.1975879967212677 -0.075688228011131287
0.07995181530714035 0.19562418758869171 -0.075743056833744049
0.084960728883743286 0.19926495850086212 -0.077122427523136139
0.086962118744850159 0.1989571750164032 -0.0765179842710495
0.084708027541637421 0.1995551586151123 -0.077716074883937836
0.085292354226112366 0.19906266033649445 -0.076450526714324951
0.086688980460166931 0.19906936585903168 -0.07706596702337265
0.086419939994812012 0.19924786686897278 -0.077604740858078003
0.084598921239376068 0.19987434148788452 -0.078167200088500977
0.085597038269042969 0.19899751245975494 -0.075787536799907684
0.084050431847572327 0.19882771372795105 -0.075807429850101471
0.094100013375282288 0.1955113410949707 -0.083212472498416901
0.093691825866699219 0.19599595665931702 -0.083280391991138458
0.08201715350151062 0.19110110402107239 -0.084856517612934113
0.082092776894569397 0.18982689082622528 -0.080125786364078522
0.081924885511398315 0.19218003749847412 -0.083618581295013428
0.08171505481004715 0.19263437390327454 -0.08263985812664032
0.08161512017250061 0.19377578794956207 -0.084486320614814758
0.081880442798137665 0.19217853248119354 -0.085810013115406036
0.08133002370595932 0.19273835420608521 -0.081880107522010803
0.081542573869228363 0.18927963078022003 -0.078908778727054596
0.08275941014289856 0.1894010454416275 -0.080740556120872498
0.081553258001804352 0.18881627917289734 -0.077948696911334991
0.080694578588008881 0.18890117108821869 -0.077061161398887634
0.080804117023944855 0.1887146383523941 -0.077909022569656372
0.080544963479042053 0.18960416316986084 -0.079555116593837738
0.08133503794670105 0.18994361162185669 -0.079714126884937286
0.082259595394134521 0.19713921844959259 -0.075397774577140808
0.081555336713790894 0.19100666046142578 -0.080792203545570374
0.082115285098552704 0.19089695811271667 -0.081370048224925995
0.079708650708198547 0.18875415623188019 -0.079606376588344574
0.080768994987010956 0.18902961909770966 -0.078766405582427979
0.081015594303607941 0.19155760109424591 -0.07593391090631485
0.080110460519790649 0.19048216938972473 -0.08032439649105072
0.080861903727054596 0.1909041702747345 -0.08042820543050766
0.080645829439163208 0.19370611011981964 -0.076081477105617523
0.080718092620372772 0.18984362483024597 -0.076387189328670502
0.083494782447814941 0.1989414244890213 -0.076389126479625702
0.084736056625843048 0.19939003884792328 -0.077354408800601959
0.085192278027534485 0.19905227422714233 -0.076143704354763031
0.086758308112621307 0.19904357194900513 -0.075783990323543549
0.086675651371479034 0.19914405047893524 -0.077021665871143341
0.093972049653530121 0.19574443995952606 -0.083350822329521179
0.093268647789955139 0.19560527801513672 -0.084727764129638672
0.079646788537502289 0.19610011577606201 -0.075398474931716919
3  334 326 335
3  331 330 402
3  402 333 332
3  402 332 331
3  402 334 333
3  402 328 326
3  328 327 326
3  326 334 402
3  402 330 329
3  402 329 328
3  243 443 242
3  248 249 450
3  249 253 255
3  100 101 420
3  269 452 457
3  267 457 266
3  264 432 451
3  404 432 403
3  403 432 457
3  416 451 408
3  408 451 432
3  404 405 432
3  432 405 408
3  261 451 419
3  455 403 452
3  452 403 457
3  455 456 403
3  403 456 409
3  286 287 455
3  275 276 455
3  274 455 452
3  68 79 67
3  76 68 71
3  80 463 79
3  82 438 81
3  215 428 338
3  217 428 216
3  215 339 214
3  441 447 448
3  125 126 447
3  342 343 441
3  441 459 447
3  207 208 440
3  440 441 448
3  337 428 336
3  437 428 426
3  352 355 428
3  400 399 458
3  426 411 437
3  437 411 458
3  225 429 224
3  226 227 230
3  426 429 407
3  407 429 424
3  231 232 424
3  424 453 407
3  407 415 426
3  426 415 411
3  415 407 406
3  406 407 453
3  204 202 203
3  453 233 236
3  406 453 454
3  238 453 237
3  454 416 406
3  406 416 408
3  241 454 240
3  454 443 416
3  403 409 404
3  404 409 413
3  413 410 404
3  404 410 405
3  458 411 412
3  412 411 410
3  412 430 458
3  398 401 460
3  117 460 423
3  423 460 430
3  114 423 465
3  465 423 420
3  420 423 436
3  99 436 98
3  94 95 435
3  96 418 95
3  418 436 430
3  430 436 423
3  111 465 461
3  461 465 420
3  129 427 449
3  124 447 122
3  121 460 120
3  449 427 421
3  421 427 417
3  140 421 139
3  143 446 142
3  134 427 133
3  414 418 412
3  412 418 430
3  413 414 410
3  410 414 412
3  418 414 435
3  435 414 444
3  89 439 88
3  94 435 93
3  464 438 456
3  456 438 439
3  456 439 409
3  409 439 444
3  409 444 413
3  413 444 414
3  415 405 411
3  411 405 410
3  405 415 408
3  408 415 406
3  451 416 419
3  419 416 443
3  258 443 257
3  258 419 443
3  178 186 187
3  160 168 169
3  174 422 173
3  171 172 158
3  166 162 163
3  193 422 192
3  195 433 152
3  392 397 433
3  425 431 440
3  148 433 425
3  146 425 145
3  446 425 448
3  448 425 440
3  448 449 446
3  446 449 421
3  461 101 102
3  91 92 435
3  211 212 442
3  434 219 220
3  197 433 196
3  422 193 194
3  445 155 156
3  417 138 139
3  420 99 100
3  418 96 436
3  259 419 258
3  131 132 427
3  101 461 420
3  427 132 133
3  465 112 113
3  201 202 431
3  437 336 428
3  443 243 450
3  417 139 421
3  428 217 434
3  450 249 256
3  249 255 256
3  247 248 450
3  113 114 465
3  259 260 419
3  422 190 191
3  440 206 207
3  211 442 210
3  439 89 444
3  220 221 434
3  424 230 231
3  226 230 424
3  168 161 167
3  168 160 161
3  445 154 155
3  147 148 425
3  198 199 433
3  197 198 433
3  421 140 141
3  421 141 142
3  182 183 180
3  181 182 180
3  153 154 445
3  150 433 149
3  149 433 148
3  191 192 422
3  463 297 67
3  297 298 67
3  215 216 428
3  338 428 337
3  215 338 339
3  438 82 83
3  438 83 84
3  107 110 106
3  107 109 110
3  445 172 173
3  173 422 445
3  429 225 424
3  159 160 169
3  159 169 170
3  177 178 187
3  271 452 270
3  270 452 269
3  275 455 274
3  341 441 442
3  341 342 441
3  340 341 442
3  446 145 425
3  146 147 425
3  117 423 115
3  116 117 115
3  115 423 114
3  95 418 435
3  442 212 339
3  340 442 339
3  214 339 213
3  213 339 212
3  232 453 424
3  425 433 397
3  425 397 431
3  431 397 396
3  431 396 395
3  431 394 200
3  199 200 433
3  433 393 392
3  394 393 200
3  395 394 431
3  200 201 431
3  433 200 393
3  202 204 431
3  224 429 223
3  223 429 222
3  222 429 434
3  221 222 434
3  437 391 390
3  458 391 437
3  391 458 459
3  388 391 459
3  129 449 128
3  447 124 125
3  128 449 127
3  426 428 355
3  426 355 429
3  429 355 354
3  427 136 417
3  135 136 427
3  134 135 427
3  102 103 461
3  131 427 130
3  130 427 129
3  454 242 443
3  241 242 454
3  428 353 352
3  434 353 428
3  353 434 429
3  354 353 429
3  430 460 401
3  430 401 458
3  458 401 400
3  246 247 450
3  459 122 447
3  123 124 122
3  205 440 431
3  205 206 440
3  204 205 431
3  457 267 268
3  457 268 269
3  464 81 438
3  184 179 180
3  185 179 184
3  186 178 179
3  183 184 180
3  186 179 185
3  266 264 265
3  266 432 264
3  249 250 253
3  254 255 253
3  152 445 195
3  422 194 445
3  433 150 151
3  152 153 445
3  194 195 445
3  433 195 196
3  433 151 152
3  462 455 276
3  277 462 276
3  439 86 87
3  439 87 88
3  436 96 97
3  436 97 98
3  434 217 218
3  434 218 219
3  225 226 424
3  92 93 435
3  463 81 464
3  80 81 463
3  436 99 420
3  450 256 257
3  262 451 261
3  344 459 343
3  343 459 441
3  419 260 261
3  459 344 389
3  437 390 389
3  389 388 459
3  437 389 345
3  345 336 437
3  344 345 389
3  281 462 280
3  422 174 190
3  176 187 188
3  176 177 187
3  175 176 190
3  174 175 190
3  176 189 190
3  176 188 189
3  463 295 296
3  463 296 297
3  462 285 286
3  462 286 455
3  464 288 289
3  73 75 72
3  74 75 73
3  460 121 459
3  121 122 459
3  438 84 85
3  85 86 439
3  438 85 439
3  417 137 138
3  162 167 161
3  164 165 163
3  166 163 165
3  162 166 167
3  271 272 452
3  209 440 208
3  441 440 209
3  442 209 210
3  441 209 442
3  450 257 443
3  91 435 444
3  90 91 444
3  89 90 444
3  460 118 119
3  460 119 120
3  156 157 445
3  157 172 445
3  170 171 159
3  158 172 157
3  171 158 159
3  421 142 446
3  446 143 144
3  446 144 145
3  448 447 126
3  448 126 449
3  449 126 127
3  136 137 417
3  450 243 245
3  245 243 244
3  450 245 246
3  453 232 233
3  235 236 234
3  236 233 234
3  453 236 237
3  228 229 227
3  229 230 227
3  280 462 278
3  462 277 278
3  279 280 278
3  263 264 451
3  262 263 451
3  272 273 452
3  452 273 274
3  453 238 454
3  454 238 239
3  454 239 240
3  456 455 287
3  456 287 464
3  464 287 288
3  432 266 457
3  252 253 250
3  251 252 250
3  118 460 117
3  459 458 399
3  459 399 460
3  460 399 398
3  108 109 107
3  111 106 110
3  111 461 105
3  104 461 103
3  111 105 106
3  104 105 461
3  293 294 463
3  283 462 281
3  282 283 281
3  295 463 294
3  79 68 78
3  79 463 67
3  78 68 77
3  77 68 76
3  464 289 290
3  285 462 284
3  464 292 463
3  462 283 284
3  463 292 293
3  464 290 292
3  290 291 292
3  75 76 72
3  70 68 69
3  76 71 72
3  71 68 70
3  112 465 111
3  309 312 311
3  313 312 467
3  300 299 467
3  299 466 467
3  324 323 466
3  314 313 467
3  310 309 311
3  299 325 466
3  466 325 324
3  315 314 467
3  303 301 305
3  303 302 301
3  304 303 305
3  319 466 320
3  466 321 320
3  309 308 312
3  466 323 322
3  466 322 321
3  466 319 318
3  467 318 317
3  467 316 315
3  467 317 316
3  466 318 467
3  467 308 307
3  312 308 467
3  300 306 301
3  300 467 306
3  306 467 307
3  301 306 305
3  22 20 21
3  19 22 18
3  476 471 475
3  28 468 27
3  471 469 475
3  1 469 0
3  468 472 471
3  471 472 469
3  12 476 11
3  1 2 475
3  40 470 39
3  472 468 473
3  55 473 54
3  51 49 50
3  48 473 47
3  60 61 469
3  57 469 472
3  33 474 470
3  53 54 473
3  28 29 468
3  32 33 470
3  37 38 474
3  469 66 0
3  61 66 469
3  47 473 46
3  470 41 42
3  49 52 48
3  49 51 52
3  42 43 470
3  45 46 468
3  46 473 468
3  469 1 475
3  475 10 11
3  475 11 476
3  468 30 45
3  470 31 32
3  43 31 470
3  30 31 44
3  29 30 468
3  44 45 30
3  43 44 31
3  473 55 472
3  471 27 468
3  66 62 65
3  66 61 62
3  58 469 57
3  474 39 470
3  40 41 470
3  474 35 36
3  474 36 37
3  27 471 26
3  26 471 476
3  25 26 476
3  469 58 60
3  58 59 60
3  56 57 472
3  55 56 472
3  473 48 52
3  53 473 52
3  34 474 33
3  25 17 18
3  25 476 17
3  18 22 23
3  18 24 25
3  18 23 24
3  475 8 9
3  475 9 10
3  34 35 474
3  475 2 7
3  2 6 7
3  475 7 8
3  63 64 62
3  64 65 62
3  476 12 13
3  476 14 15
3  476 13 14
3  20 22 19
3  476 15 16
3  476 16 17
3  474 38 39
3  5 6 4
3  3 6 2
3  3 4 6
3  357 477 356
3  365 478 364
3  370 478 368
3  380 377 379
3  381 477 380
3  371 478 370
3  477 363 364
3  478 365 366
3  478 380 477
3  362 357 361
3  363 357 362
3  363 477 357
3  477 364 478
3  377 372 374
3  377 374 375
3  377 478 372
3  376 377 375
3  371 372 478
3  381 382 477
3  477 382 383
3  477 383 356
3  366 368 478
3  368 366 367
3  370 368 369
3  377 380 478
3  379 377 378
3  373 374 372
3  358 360 357
3  360 361 357
3  358 359 360
3  347 349 350
3  347 348 349
3  351 346 350
3  346 347 350
3  387 384 386
3  385 386 384
3  141 487 142
3  145 495 146
3  264 498 265
3  188 187 483
3  189 483 190
3  169 168 481
3  173 194 174
3  156 481 157
3  151 392 482
3  198 196 485
3  206 397 495
3  396 204 395
3  200 485 202
3  279 284 283
3  70 296 71
3  298 69 67
3  130 133 131
3  399 497 486
3  497 488 490
3  497 491 486
3  389 491 492
3  391 388 122
3  126 492 480
3  134 128 135
3  343 480 492
3  341 500 494
3  494 495 480
3  480 495 487
3  338 499 500
3  355 352 491
3  222 221 499
3  212 494 500
3  229 228 353
3  233 491 496
3  223 499 224
3  491 497 496
3  236 496 237
3  241 240 490
3  250 490 489
3  490 488 489
3  115 114 488
3  108 107 489
3  90 92 91
3  80 79 293
3  268 498 501
3  90 501 498
3  284 278 285
3  274 501 275
3  162 161 479
3  104 103 502
3  489 252 251
3  245 244 490
3  488 116 115
3  496 234 233
3  223 222 499
3  163 162 479
3  189 188 483
3  183 182 484
3  184 183 484
3  176 175 483
3  172 481 482
3  172 171 481
3  173 172 482
3  167 479 168
3  168 479 481
3  167 166 479
3  180 179 484
3  181 180 484
3  192 191 190
3  190 483 192
3  396 205 204
3  204 485 394
3  494 209 208
3  395 204 394
3  485 204 203
3  491 389 390
3  491 390 486
3  486 390 391
3  484 185 184
3  486 391 122
3  123 122 492
3  492 122 389
3  122 121 486
3  389 122 388
3  158 481 160
3  160 481 479
3  160 479 161
3  158 160 159
3  128 134 130
3  128 130 129
3  128 487 135
3  228 227 226
3  226 499 228
3  224 499 225
3  225 499 226
3  497 399 400
3  497 400 488
3  488 400 401
3  500 218 217
3  500 217 214
3  214 217 215
3  215 217 216
3  345 343 492
3  338 500 341
3  340 339 341
3  345 344 343
3  339 338 341
3  123 492 125
3  125 492 126
3  123 125 124
3  127 480 487
3  127 126 480
3  128 127 487
3  112 489 114
3  114 489 488
3  113 112 114
3  108 489 109
3  110 489 112
3  109 489 110
3  110 112 111
3  253 489 502
3  253 252 489
3  254 253 502
3  480 343 342
3  480 341 494
3  480 342 341
3  244 243 490
3  490 243 241
3  241 243 242
3  195 482 196
3  196 482 485
3  196 198 197
3  481 152 482
3  156 153 481
3  153 152 481
3  154 153 156
3  155 154 156
3  493 77 75
3  493 75 74
3  77 76 75
3  176 483 177
3  171 169 481
3  178 483 484
3  178 177 483
3  179 178 484
3  171 170 169
3  493 73 71
3  73 72 71
3  239 497 240
3  240 497 490
3  392 151 150
3  397 149 495
3  392 485 482
3  392 393 485
3  397 392 149
3  392 150 149
3  496 236 235
3  144 143 487
3  142 487 143
3  279 278 284
3  279 283 282
3  495 149 148
3  152 151 482
3  495 147 146
3  495 148 147
3  493 74 73
3  165 164 479
3  105 502 106
3  106 502 489
3  106 489 107
3  229 491 230
3  232 231 233
3  230 491 231
3  231 491 233
3  298 297 70
3  69 298 70
3  70 297 296
3  185 484 186
3  187 186 483
3  186 484 483
3  265 498 266
3  267 498 268
3  267 266 498
3  203 202 485
3  200 202 201
3  355 491 354
3  228 499 353
3  491 229 354
3  354 229 353
3  499 338 337
3  499 337 492
3  492 337 345
3  345 337 336
3  500 213 212
3  210 209 494
3  212 210 494
3  211 210 212
3  121 120 486
3  486 120 119
3  498 263 502
3  264 263 498
3  213 500 214
3  479 164 163
3  138 137 139
3  487 141 140
3  487 139 136
3  135 487 136
3  487 140 139
3  139 137 136
3  235 234 496
3  493 71 296
3  294 493 295
3  295 493 296
3  501 270 269
3  501 269 268
3  133 130 134
3  132 131 133
3  192 175 174
3  192 483 175
3  482 195 173
3  193 174 194
3  194 173 195
3  174 193 192
3  165 479 166
3  484 182 181
3  92 90 498
3  93 92 498
3  80 292 81
3  77 493 78
3  81 291 83
3  81 292 291
3  82 81 83
3  119 118 398
3  488 401 118
3  119 399 486
3  488 118 117
3  488 117 116
3  398 399 119
3  401 398 118
3  489 251 250
3  246 245 490
3  247 246 490
3  250 249 490
3  249 248 490
3  248 247 490
3  105 104 502
3  501 85 287
3  85 290 289
3  85 289 288
3  85 288 287
3  86 85 501
3  87 86 501
3  495 144 487
3  145 144 495
3  492 491 352
3  492 353 499
3  492 352 353
3  87 501 88
3  88 501 89
3  89 501 90
3  78 493 79
3  493 294 79
3  79 294 293
3  80 293 292
3  280 279 282
3  281 280 282
3  495 494 207
3  205 396 397
3  494 208 207
3  485 393 394
3  495 207 206
3  397 206 205
3  290 83 291
3  290 85 84
3  290 84 83
3  498 97 95
3  94 498 95
3  498 94 93
3  95 97 96
3  272 271 501
3  273 272 501
3  501 271 270
3  276 285 277
3  276 501 287
3  285 276 286
3  277 285 278
3  286 276 287
3  497 237 496
3  238 497 239
3  238 237 497
3  99 98 100
3  98 498 502
3  101 502 102
3  97 498 98
3  102 502 103
3  98 502 100
3  100 502 101
3  218 500 221
3  221 500 499
3  218 221 220
3  218 220 219
3  69 68 67
3  276 275 501
3  273 501 274
3  502 263 262
3  257 259 258
3  256 259 257
3  256 502 259
3  254 502 256
3  502 261 260
3  502 262 261
3  254 256 255
3  502 260 259
3  200 198 485
3  200 199 198
3  481 158 157
3  52 50 55
3  44 504 45
3  507 504 505
3  32 36 33
3  14 13 17
3  9 505 10
3  12 26 25
3  30 29 504
3  505 506 507
3  64 63 58
3  503 21 20
3  503 23 22
3  31 30 504
3  503 22 21
3  62 61 63
3  61 59 63
3  60 59 61
3  11 10 505
3  506 7 6
3  506 6 5
3  26 11 505
3  25 503 13
3  25 24 503
3  11 26 12
3  12 25 13
3  5 4 506
3  507 64 58
3  63 59 58
3  507 58 56
3  58 57 56
3  507 45 504
3  46 507 47
3  49 507 50
3  48 507 49
3  48 47 507
3  45 507 46
3  40 39 504
3  504 39 37
3  37 39 38
3  504 37 36
3  504 44 43
3  42 41 40
3  43 42 40
3  504 43 40
3  56 55 507
3  50 507 55
3  52 55 53
3  51 50 52
3  53 55 54
3  15 14 16
3  18 20 19
3  18 503 20
3  8 506 505
3  8 7 506
3  9 8 505
3  4 3 506
3  18 17 503
3  17 13 503
3  14 17 16
3  24 23 503
3  29 505 504
3  27 26 505
3  28 27 29
3  29 27 505
3  36 31 504
3  33 36 35
3  34 33 35
3  31 36 32
3  506 3 0
3  0 507 506
3  2 0 3
3  65 64 66
3  2 1 0
3  66 64 507
3  0 66 507
3  332 335 326
3  328 329 327
3  329 326 327
3  331 332 326
3  330 331 326
3  329 330 326
3  334 335 332
3  333 334 332
3  371 508 372
3  379 509 380
3  362 359 366
3  368 359 358
3  379 378 509
3  509 372 508
3  372 509 373
3  508 371 370
3  508 370 369
3  508 380 509
3  382 508 383
3  382 381 380
3  508 382 380
3  359 362 360
3  359 367 366
3  363 362 366
3  364 363 365
3  363 366 365
3  509 378 377
3  509 377 376
3  376 375 509
3  508 358 357
3  356 508 357
3  508 356 383
3  509 375 374
3  509 374 373
3  361 360 362
3  508 368 358
3  367 359 368
3  508 369 368
3  348 350 349
3  350 348 351
3  346 351 348
3  347 346 348
3  320 321 299
3  318 302 303
3  325 322 323
3  316 306 307
3  303 304 510
3  317 318 510
3  510 318 303
3  320 302 319
3  319 302 318
3  510 304 306
3  304 305 306
3  315 316 310
3  312 314 310
3  314 315 310
3  312 313 314
3  311 312 310
3  323 324 325
3  301 302 300
3  320 299 302
3  321 322 325
3  299 321 325
3  300 302 299
3  306 316 510
3  316 317 510
3  308 309 310
3  316 307 308
3  316 308 310
3  386 385 387
3  384 387 385

