OFF
434 852 0

0.00057775039582930751 0.0028346700996723716 -0.017551770663822533
0.00057768385644993447 0.0028650650374795316 -0.017526703794784312
0.00056827363040027918 0.0030398654365970789 -0.017294805962028689
0.00056695699624180495 0.0030966722651573873 -0.01723636932508945
0.00056698004607249827 0.0031201732058861445 -0.017186510232013487
0.00055867429806698244 0.0034354310793466669 -0.016907396213691132
0.00056537231434324433 0.0035448151165838179 -0.016883197450959661
0.00058237597418020958 0.0037836696795666234 -0.016848386142320738
0.0006014607783966393 0.0040666317421976629 -0.016812981582509014
0.00059874251749264561 0.0048059429269567688 -0.017010262358762664
0.00068533498041139368 0.0057735057060481643 -0.017432367862394473
0.0006768746311340459 0.0058220025293585272 -0.017472887707742732
0.0006713718903282196 0.0062740359602612298 -0.018071022543369071
0.00067060722435686342 0.0064455054951714245 -0.018301887680639173
0.00068382929138270459 0.0072952070704150589 -0.019407366368509794
0.00068410379397298711 0.0073051475624880211 -0.019420603413500319
0.00068272243436268642 0.0074978040542263182 -0.019692668794666003
0.00068484056229995381 0.0075938717014616287 -0.019835982649500768
0.0006921342408420972 0.0083916125999744101 -0.021057819554510727
0.00069046536451066918 0.0084218062069520341 -0.021098112199028782
0.00068779413460436567 0.0085266918333881461 -0.021229925592264307
0.00070003927863077498 0.0090568367309637292 -0.021829019314930739
0.00069776133223671305 0.0091809899389278891 -0.021982741159080658
0.00069919060334278191 0.0093371301849372972 -0.022242844196602954
0.00069918734266544527 0.0093372929606415286 -0.022243200123971539
0.00070220639768717489 0.0093759191138026877 -0.022466682908488019
0.00070230360720137993 0.0094031331184165519 -0.022549734348992885
0.00070931020641125321 0.0096932318595301242 -0.023071065275276102
0.00070908544287107556 0.009697968529310836 -0.023100255092181363
0.00070968752599936502 0.0096455948664483926 -0.023352570556644303
0.00070843982937394143 0.0096019696984510575 -0.023387369741886082
0.00070452444747179073 0.0091155960813565657 -0.023419004917278406
0.00070380588325035139 0.0090636898869359897 -0.02343310181032264
0.00070302784753062462 0.0089610089919780131 -0.023500368572956398
0.00070301948375091437 0.0089600730180903441 -0.023500903901265604
0.00069825682416534054 0.008510166337008105 -0.023805657319494647
0.00069756685313989721 0.0084196872039450886 -0.023849832583115786
0.00069737745975750095 0.0083699396416434847 -0.023861983414462145
0.0006973305580537044 0.0083578508545640775 -0.023864900185210307
0.00069713913469485406 0.0083322372790985717 -0.023867317787501355
0.00069755492133915175 0.0079913280741605759 -0.024020629259757374
0.00069675959274909148 0.0077809072739719598 -0.024144043571338522
0.00069693173927331447 0.0077446542441473015 -0.024156846441701407
0.00069643009413728786 0.0076525231721197174 -0.02421508040180087
0.00069018652408774431 0.0073143268893237252 -0.024291238175036391
0.00068473065705119572 0.006886262003695868 -0.024464119225766634
0.00068222955268224601 0.0060077772814834517 -0.024558019701418771
0.000680306270337419 0.0056997071147472933 -0.024622337461270925
0.00067716709986951327 0.0053297445020397335 -0.024670892531071346
0.00067519605558588732 0.0049589937474608086 -0.02468118254634849
0.00066879840831747181 0.003725465057989894 -0.024721540933919598
0.00066870044448361337 0.0037112913057247027 -0.024722816843067881
0.00066348015122707181 0.0032871639586827422 -0.024711434313836274
0.00066115277927154955 0.0028529987634477892 -0.024590228711612455
0.000660939480084015 0.0027570978897724697 -0.024571323255979393
0.00065652641298188799 0.0020040331201600778 -0.024499214198078215
0.00065209574614003485 0.001545971378109775 -0.024380269515605926
0.00064807794130863059 0.00095840099941474854 -0.024176949021093463
0.00064812181269512342 0.0008714510860189929 -0.024127409276206581
0.00064662647697536684 0.00056928659508643088 -0.023739806301662218
0.00064409795117385425 0.00025463737188010456 -0.02320917983321482
0.00064404868571523539 0.00025053532136357093 -0.023203364678852312
0.00064243276842523519 -0.00016890092613205737 -0.022377343768346519
0.00064252619107902742 -8.4259114283206522e-05 -0.022180040879277989
0.00063114587878536094 -5.3608829745835692e-05 -0.021064066415688913
0.00063380379457115513 0.00015388424538266923 -0.020802665649969503
0.00064037372453421546 0.00022366313571223288 -0.020460847859147712
0.0006397219063899788 0.00063259857284891788 -0.020209154488444174
0.00061887560315200898 0.0010742693521381217 -0.019704689440222127
0.00061390367035797297 0.001197886266866103 -0.01940839316066522
0.00062521087337952936 0.0015394513685577228 -0.019037108262896556
0.00062517089580853952 0.001655842702466223 -0.018841044429360479
0.0006141189395252216 0.0019480812421750968 -0.018616568801644078
0.00060598684858230011 0.0022505806707149695 -0.018303320737159526
0.00060672409680558774 0.0023632833278940625 -0.018216302488936419
0.00059561431579809433 0.0025375609768091946 -0.017985197608858704
0.00059369340483553571 0.0025630832425794546 -0.017962125822599005
0.00058219056964804489 0.002762656496497221 -0.017652782595430749
0.0005895923246970879 -0.0060493625791322361 -0.018253322310535357
0.00058944291099981337 -0.0057426953547140645 -0.018133598907247209
0.00059444591761726438 -0.0051510117930901062 -0.018067307668697588
0.00059530999624024376 -0.0050809941608957604 -0.018067930904565835
0.00059573532872533538 -0.0050369133772362558 -0.018085777225187373
0.00059661881808304449 -0.0049153636656888407 -0.018177545191432512
0.00059709026092874692 -0.0048034640999412188 -0.018312317656772187
0.00059858233697292706 -0.0045676892979087053 -0.018645326886502837
0.00060028264840791346 -0.0044201852578517123 -0.018929066350798354
0.00060078605029266073 -0.004377854111231083 -0.019005403942905869
0.00060490526825437323 -0.0040046569514947637 -0.019649325434316467
0.0006052343931523933 -0.003990734317012243 -0.019689350539010289
0.00060573042355362161 -0.0040239278329195815 -0.019952139880320831
0.00060632235176072532 -0.0040245638289998168 -0.020264544406963517
0.00060681198018669338 -0.0040832543261454897 -0.020908512844122026
0.00060685152985964557 -0.0040881633020210528 -0.020960518675079857
0.0006068615811488506 -0.0040884829267235894 -0.020973794275990186
0.00060701270685934892 -0.0041481330006609141 -0.021169931985644461
0.00060659051954129524 -0.0042199503091504987 -0.021257308748713045
0.00060381546020755539 -0.0046996017786365652 -0.021819833912163217
0.0006034806145056188 -0.0047552764285773014 -0.021881828787204141
0.00060331043843226838 -0.0047768688774994777 -0.02189542974174076
0.00060306920611997777 -0.0048127601423699849 -0.021909276069736965
0.00059950971188231831 -0.0053681051056898386 -0.02215003443870598
0.00059908139303079162 -0.0054480967906344081 -0.022166441962374495
0.00059871475730401797 -0.0055026085209571229 -0.022166922169752308
0.00059838180662216862 -0.005541624548375354 -0.022157168175640014
0.00059623256632150329 -0.0058245705664999783 -0.022124415896860636
0.0005958036963233564 -0.0058824563032933552 -0.022116363934529783
0.00059483915477694116 -0.0060020141733265232 -0.022088902528394728
0.00059426120061675325 -0.0061081189678781032 -0.022008730182336067
0.00059397386236951654 -0.0061809107249329118 -0.021964999207408742
0.00059249465839301821 -0.0063597374842113055 -0.021777725973941182
0.00059145996219573738 -0.0065425061050794608 -0.02151637930063155
0.00059142873527025914 -0.0065462736020689642 -0.021509234018884674
0.00058995617568765061 -0.0066713371293360812 -0.021340696650468349
0.00059048887723052001 -0.0068431643267049874 -0.020706660286080092
0.00059105071560529841 -0.0069025088362508601 -0.020428179113054175
0.00059096352477414548 -0.0069040960355114117 -0.020402933750888773
0.00059092041812769543 -0.0069062912057998643 -0.02038150880668365
0.00058889407050561563 -0.0068961339611445134 -0.020093105480109376
0.00059162969355565191 -0.0067013647036865496 -0.01923294597880669
0.0005956063809886003 -0.0065434616253866127 -0.018733091729587731
0.00059628016140688257 -0.006515450146872416 -0.01864565634409919
0.00059033792320037706 -0.0062975168805562221 -0.018402268787281822
0.00058977793155279984 -0.0060819043729344897 -0.018271310587928604
0.0007957913260140104 0.016495883452476177 -0.026093831842400071
0.00080911402747683514 0.016203345558351859 -0.025885345075614963
0.00078227621055422113 0.016127852966710425 -0.025841025619272151
0.00062934989963300402 0.015975816353084545 -0.025741271292471769
0.00054215811772743072 0.016262426824272563 -0.025984073672492357
0.00045574065980639946 0.016321310963133662 -0.026106094221650139
0.00043184780930537116 0.016313310587926684 -0.026127039547642908
0.00039459966476122288 0.016325736287054745 -0.026190078316260024
0.00037810725386477981 0.016375553936062492 -0.026272073527501563
0.00037114551361361911 0.016406174930698091 -0.026318391407287416
0.00035466078411471751 0.016470318929144592 -0.026426452860851928
0.00032414554783737472 0.016550654357727276 -0.026619072985851158
0.00031484289903378445 0.016583116824865157 -0.026679332946935738
0.00031100316731919985 0.016611815015701463 -0.026727542434139703
0.00030811439944664878 0.016624063648925949 -0.02674956207890725
0.00030568105456572193 0.016630756379202694 -0.02676903986692248
0.00030342204916140864 0.016643704915446846 -0.026802471130228357
0.00029277961944424184 0.016704962590012667 -0.026960073292250114
0.00028740464977015869 0.016743944954272116 -0.027057943110274388
0.00027824595692092129 0.016759718301092897 -0.027174052073865567
0.00027933470675871514 0.016765539614994055 -0.02720037433106532
0.00027940131676918139 0.016765644387835021 -0.027200674190488369
0.00031766814414866946 0.016828797096204051 -0.027370978472326432
0.00032262706603633712 0.01683318262124588 -0.027395564280380848
0.0003503789405953356 0.016855460231947398 -0.027484312832666537
0.00035671215044190993 0.0168601426175536 -0.02749590824130042
0.00041627517924085243 0.016853097027696329 -0.027655495733887994
0.00043658894097417316 0.016834875565858415 -0.027725571171413353
0.00049897226678413762 0.016830113961628496 -0.027790489125475132
0.00058030129605917162 0.016723145565550594 -0.027958416927496302
0.00058301671849407695 0.016720428348681003 -0.027962587091391825
0.00067219746404622118 0.016491660753580058 -0.028191932640329247
0.00072685186912251792 0.016108610562197943 -0.028493288977852589
0.00071334366463860887 0.015952442833443076 -0.028584899989547698
0.00072320890713901357 0.015840007481717558 -0.028638967373285092
0.00074128708471054129 0.015694076901434484 -0.02870594104364917
0.00073883526341100793 0.015048743335077507 -0.02887417119867643
0.0007310352474365928 0.014827477642012414 -0.028921046300089747
0.00073529341324267265 0.014723171297339979 -0.028931025589128356
0.00074699638742001544 0.014380322545690494 -0.028967329178082257
0.00075345821632174441 0.01417616461838881 -0.02898972132156092
0.00074203027129632186 0.013811104679733115 -0.028958092065922897
0.00074019566912143417 0.013472333406176644 -0.028956090310063375
0.00073878347606889732 0.013430021813250155 -0.028961917108815481
0.00073902858217921236 0.013362758707731601 -0.028958389624984492
0.00074150466385873115 0.013164942601204972 -0.028938999677082231
0.00073172881314148292 0.012794221485981475 -0.028759139008906882
0.00073124503628872912 0.012779306718069209 -0.028751002137988552
0.00073225709230979549 0.012656283019970526 -0.028618370734919699
0.00073100543682798997 0.012599061631022028 -0.028518007317985032
0.00072769436697910984 0.012465740286096058 -0.028293494640501803
0.00072825277685487815 0.012412761629597487 -0.028160007704736287
0.000726556174117146 0.012348986303280692 -0.027899990584872802
0.00072689676193735228 0.012283151820428759 -0.027513546632454002
0.00072742960340870465 0.012264553235061391 -0.027442758081036991
0.00072694651648464099 0.012263341965362141 -0.027392628624347985
0.00072420513634565255 0.01224986635060378 -0.027210426413456099
0.00072613555726283542 0.012296712418362513 -0.026760054725006706
0.00072622007218770424 0.012301401579965092 -0.026723796684451191
0.00072621591885221187 0.012301958828815063 -0.02672064003468411
0.00072615663649459893 0.012327488709428049 -0.026582525118852326
0.00072718779047652605 0.012432380232841173 -0.026078360840728773
0.00072728112952163591 0.012438957391763452 -0.026048171589273229
0.00072727793238184005 0.012439527535994943 -0.026046130379773831
0.00072719382778280801 0.012448116330952261 -0.02601721432233213
0.00072730430926761284 0.01245149745468202 -0.025998507164780832
0.0007319148197081455 0.012602952490508138 -0.025506003459631114
0.00073232021700981361 0.012616412362678117 -0.02546666544000574
0.00073267907387224878 0.01262879621832896 -0.025444898158300269
0.00073279861099348823 0.01264877796939215 -0.0254179248312272
0.00073323819308190484 0.012844442119109343 -0.025166761166887951
0.00073435495313969369 0.012910790300044144 -0.02506443171310448
0.00073920641709413566 0.012987228513869133 -0.025017574029884457
0.00074282163544671397 0.01303434232604618 -0.025001145336224481
0.00074590820962445277 0.013167075401164966 -0.024985995348236395
0.00074908794113690198 0.013660382556650433 -0.024966057194172095
0.00077908076144271241 0.014013700767949947 -0.025057107494835681
0.00077853255213435979 0.014076868834112894 -0.025083704635847935
0.00076680413125771721 0.014190847935481983 -0.025118355858330201
0.00075953230105712719 0.014723019776533076 -0.025206647678219028
0.00083722809667477385 0.01512049866794718 -0.025365404791603201
0.00083998231263424745 0.015150478228200912 -0.025373911136962361
0.00083199259200098744 0.015195433650015185 -0.025391719586383695
0.00071109537213011884 0.015511695408164047 -0.02554397201484656
0.00063295480582366737 0.015801973202455875 -0.025670030793503121
0.00062534053526143592 0.015909126995028697 -0.025714193832504013
0.00062355134530995638 0.015926651174970101 -0.025721477093062731
0.00062942830936090497 0.015971781007995119 -0.025739062900999816
0.00066905639813343845 0.015912294576994078 -0.02571059297935999
0.00086126026964357166 0.015672189768966678 -0.025592078636458227
0.00089417733387778947 0.015911249445172373 -0.025733920842410912
0.00090118874315072827 0.015971192243045117 -0.025767593357847
0.00089873378330560167 0.016054172630544948 -0.025812915918785137
0.00093244268330410743 0.016365027194515925 -0.026054038358920697
0.00093938643874732629 0.016386114015224579 -0.026072300106416913
0.0009664075432474419 0.016420124557261939 -0.02612073617752475
0.0010994350768719851 0.016389344989021823 -0.026265840234175487
0.0011010904527109563 0.016389992075411444 -0.026268775886851461
0.0011020034480854384 0.01638915898476874 -0.026269089617792514
0.00110765544276789 0.016418481577231428 -0.026308855457538138
0.0011218533496328226 0.016483714497368931 -0.026404489397833821
0.0011409945973709814 0.016528653685268062 -0.02651168497342488
0.0011411383751184717 0.016528830806637057 -0.026512240063862744
0.0011824019593388621 0.016589618764605171 -0.026675191716728348
0.0011769338699384713 0.01662841701961771 -0.026723744836009145
0.0011769733325196906 0.016629100200326735 -0.026725470800603314
0.0012076456546494449 0.01661814637757451 -0.026784485310278376
0.0012136360661752768 0.016657490818435271 -0.026894178742413316
0.0012154590517553397 0.016667206492474641 -0.026926745468467982
0.0012181314481306796 0.016694362235706701 -0.027010385892990624
0.0012175332896608663 0.016705343323317197 -0.027039090977169361
0.0012163076180021354 0.016744911519039667 -0.027203981268833954
0.0011956469388170866 0.016785256768525512 -0.027283027424145064
0.0011853907480315401 0.016796328959213642 -0.027334431904670341
0.0011675463819136227 0.016810849725791728 -0.027330380234239962
0.001104814966480861 0.016861688700883486 -0.027316719344917209
0.0010483745237097818 0.016906543389258712 -0.027278056791706889
0.0010035173385865319 0.016942031874345377 -0.027247889613387574
0.00093072567054772442 0.016996401946425176 -0.027135499048296825
0.00088985603277456319 0.017027124950666495 -0.027076266402846941
0.00088979071738160898 0.017027164696599623 -0.027076208867928928
0.00082092567474033133 0.01705796669095349 -0.026928811340252667
0.00084530727537477442 0.017029186375246273 -0.026841372279941787
0.00084096356362432702 0.017009703721009635 -0.026780261326695486
0.00084131424866317958 0.01699384767233858 -0.026740669656430779
0.00083885235381221559 0.016969619988522529 -0.026679431844001327
0.00085283585606732415 0.016890179147794598 -0.026530113695801754
0.00086057949003982479 0.016866899319882455 -0.026494865589289967
0.00086062523507553852 0.016866237738711303 -0.026493923024750107
0.00086040843566435161 0.016864649107179566 -0.026491770494687324
0.00084178899833108804 0.016808827563279297 -0.026419866956332833
0.00083032629024170561 0.016610485743254886 -0.026203478014654509
0.0008246204375977847 0.016595281047217227 -0.026188455922175065
0.00079470067589434285 0.016502009179762078 -0.026098451771099599
0.00060770386017908239 -0.0044978549331521518 -0.0061972516083773034
0.00061185590230505718 -0.0045403288064552304 -0.0061899239402746654
0.00061665556178812841 -0.0046091261925669293 -0.0061742065319323469
0.00061678794057601924 -0.0046106436005940669 -0.0061739128587538616
0.00061678437564141369 -0.0046103080364735686 -0.0061741716202431502
0.00061767695553541701 -0.0045512150708056694 -0.006213102810797063
0.00061845690556439244 -0.0043497749051402343 -0.0063556915834810743
0.00061153621121260847 -0.0038394862025525347 -0.0066700352811743134
0.0006063454506511774 -0.0036625793364799832 -0.0067904370438063837
0.00060651006877264393 -0.003656088385486634 -0.0067974796089950353
0.00061435216321259478 -0.0033866015968302271 -0.007076809957455325
0.00061114967816662926 -0.0031870789955376635 -0.0072186476864645422
0.00060884354373633457 -0.0030529909509785687 -0.0073154644163371408
0.0006034105048365497 -0.002571076566882176 -0.0076849197463284905
0.00062063801373803574 -0.0020465338414136966 -0.0078085901678866098
0.00060941320197056186 -0.0018400627822023228 -0.0077593801364264376
0.0006287676195448821 -0.0018409652302041164 -0.0076303463414154095
0.00062752556887615699 -0.0018768652701767886 -0.0075948097657492896
0.0006256001363428575 -0.0019260808062238084 -0.0075475645634574314
0.00062450061529587615 -0.001939879958470198 -0.0075380172792791763
0.00060943070367416581 -0.0023800932349933297 -0.0072719557670644702
0.00061398829340467359 -0.0030809967013265831 -0.0069032951663022465
0.00061564157286862612 -0.0032566207040498536 -0.0068094131070198256
0.00061554482719644479 -0.0033125752560985242 -0.0067813401766289323
0.00061779055202302506 -0.0035871668674285579 -0.0066489768849776944
0.00061425966975220902 -0.0042102294797267854 -0.006331508473397183
0.00061423405819032557 -0.0043094490279196682 -0.0062796135466332663
0.0004242627474013716 0.015062949620187283 -0.027420468628406525
0.00050646433373913169 0.014432403258979321 -0.027561502531170845
0.00049461179878562689 0.014478578232228756 -0.027047032490372658
0.00037514159339480102 0.01546130608767271 -0.026987561956048012
0.0005263806669972837 0.014914966188371181 -0.025785446166992188
0.00050027621909976006 0.01475707720965147 -0.026163492351770401
0.00039299658965319395 0.015671733766794205 -0.026311192661523819
0.00030197468004189432 0.016212593764066696 -0.027464732527732849
0.00031654859776608646 0.015948252752423286 -0.027199259027838707
0.00042371611925773323 0.015628157183527946 -0.027990277856588364
0.00038819722249172628 0.015480437316000462 -0.027648696675896645
0.00053708185441792011 0.014508380554616451 -0.028068207204341888
0.00049624883104115725 0.014606624841690063 -0.026561569422483444
0.00037653266917914152 0.015572580508887768 -0.026632260531187057
0.0003143028006888926 0.016119141131639481 -0.026825150474905968
0.00059894961304962635 0.014637892134487629 -0.028539557009935379
0.00044111008173786104 0.015791483223438263 -0.025980962440371513
0.00052719656378030777 0.01575266569852829 -0.028357896953821182
0.00096389109967276454 0.016960972920060158 -0.026976665481925011
0.00073472521035000682 0.013468434102833271 -0.028939073905348778
0.00068395142443478107 0.013347537256777287 -0.028406672179698944
0.0009306560386903584 0.016477379947900772 -0.02613547258079052
0.00064651935826987028 0.013262579217553139 -0.027165841311216354
0.00041431887075304985 0.016617828980088234 -0.027883224189281464
0.00063914858037605882 0.013590991497039795 -0.026089414954185486
0.00064363220008090138 0.013406018726527691 -0.026575865224003792
0.00027567025972530246 0.016748679801821709 -0.027191229164600372
0.00063993968069553375 0.013801987282931805 -0.025630377233028412
0.00032508879667147994 0.016404759138822556 -0.027693046256899834
0.0010705420281738043 0.016753947362303734 -0.026726188138127327
0.00033276726026087999 0.016255028545856476 -0.026511954143643379
0.0006485849735327065 0.015074484050273895 -0.025429233908653259
0.00028010125970467925 0.016485327854752541 -0.027029132470488548
0.00069337431341409683 0.01401224359869957 -0.025206144899129868
0.00066033616894856095 0.013254327699542046 -0.027804583311080933
0.00055199285270646214 -0.0024356788489967585 -0.0074131344445049763
0.00058900855947285891 -0.0036115932743996382 -0.0067080352455377579
0.00058320333482697606 -0.0060458779335021973 -0.02026071771979332
0.00059062842046841979 -0.0052823745645582676 -0.020431129261851311
0.00060665630735456944 -0.0041039013303816319 -0.020964324474334717
0.0005839015357196331 -0.0055995117872953415 -0.018800156190991402
0.00059193617198616266 -0.0048541724681854248 -0.0191966462880373
0.00058285956038162112 -0.0061924275942146778 -0.018465092405676842
0.00059169478481635451 -0.0061024925671517849 -0.021744847297668457
0.00059511716244742274 -0.0054673659615218639 -0.02161766029894352
0.00058107957011088729 -0.0066753230057656765 -0.020132673904299736
0.00052923103794455528 0.005035466980189085 -0.021793307736515999
0.00049064529594033957 0.0068003037013113499 -0.019928382709622383
0.00046083796769380569 0.0062946495600044727 -0.020424487069249153
0.00044571614125743508 0.0049129258841276169 -0.018677009269595146
0.00059193756897002459 0.0074674990028142929 -0.021963367238640785
0.00045327283442020416 0.0044094771146774292 -0.019358331337571144
0.0004875099693890661 0.0057786665856838226 -0.020939631387591362
0.0004769467341247946 0.0036807262804359198 -0.020448941737413406
0.00055473309475928545 0.0026272560935467482 -0.022138681262731552
0.00044613252975977957 0.0053039402700960636 -0.018117370083928108
0.00060624344041571021 0.0069742761552333832 -0.022478165104985237
0.00062785187037661672 0.0064088786020874977 -0.0230691097676754
0.00069214997347444296 0.008309326134622097 -0.023672550916671753
0.00064406497403979301 0.00025619982625357807 -0.023205861449241638
0.00062991183949634433 0.0072502889670431614 -0.019469534978270531
0.00052625604439526796 0.0056975940242409706 -0.017629604786634445
0.00064265413675457239 0.0017139214323833585 -0.023948101326823235
0.00066785363014787436 0.0055041261948645115 -0.024274773895740509
0.00066308805253356695 0.0083541078492999077 -0.021088941022753716
0.00060293910792097449 0.0040069832466542721 -0.023227985948324203
0.0006937233847565949 0.0087428446859121323 -0.023174995556473732
0.00060506869340315461 0.0011560475686565042 -0.021399809047579765
0.00068481802009046078 0.0091337766498327255 -0.022735085338354111
0.00056802050676196814 0.0020351707935333252 -0.019596410915255547
0.00059518986381590366 0.0079187219962477684 -0.02150411531329155
0.00056675594532862306 0.0029387706890702248 -0.017573459073901176
0.00057888770243152976 0.00259751221165061 -0.018378667533397675
0.0012046042829751968 0.016082877293229103 -0.026867283508181572
0.0011568962363526225 0.015634236857295036 -0.027321286499500275
0.0011100133415311575 0.015245866030454636 -0.027085613459348679
0.0010108250426128507 0.014726564288139343 -0.027744702994823456
0.0011413496686145663 0.015623286366462708 -0.026635045185685158
0.0010270832572132349 0.014660539105534554 -0.027188649401068687
0.0010238008107990026 0.01474323682487011 -0.026611646637320518
0.00097036518855020404 0.014874233864247799 -0.028241029009222984
0.0011445034760981798 0.015791414305567741 -0.027711786329746246
0.0010746070183813572 0.015931451693177223 -0.028085898607969284
0.0011245158966630697 0.015752404928207397 -0.026295442134141922
0.00099124445114284754 0.015049776993691921 -0.025750478729605675
0.0010156921343877912 0.014910026453435421 -0.026133269071578979
0.0008644334739074111 0.013777002692222595 -0.026105040684342384
0.00074372423114255071 0.017066098749637604 -0.026947043836116791
0.0011646731290966272 0.016732467338442802 -0.027555398643016815
0.0012354855425655842 0.016337351873517036 -0.027126917615532875
0.00085515278624370694 0.015190696343779564 -0.025398135185241699
0.00073472200892865658 0.012704275548458099 -0.025459518656134605
0.0012065985938534141 0.016548972576856613 -0.026742825284600258
0.000924290856346488 0.01687210239470005 -0.027657307684421539
0.00071118649793788791 0.016993237659335136 -0.027484940364956856
0.00085332168964669108 0.015005984343588352 -0.02870609238743782
0.00086235161870718002 0.013984999619424343 -0.02559785358607769
0.00081108539598062634 0.013700925745069981 -0.028599672019481659
0.0008467893349006772 0.016055233776569366 -0.028449010103940964
0.00044888132833875716 0.016851795837283134 -0.027022967115044594
0.0012381097767502069 0.016535954549908638 -0.027346577495336533
0.00086207338608801365 0.013509033247828484 -0.02736661396920681
0.00075018935604020953 0.016986681148409843 -0.026700161397457123
0.00053437839960679412 0.01696615107357502 -0.027274694293737411
0.0010675013763830066 0.015862492844462395 -0.025979403406381607
0.00036434209323488176 0.016667481511831284 -0.026750858873128891
0.00086321443086490035 0.013592393137514591 -0.026690434664487839
0.00056632026098668575 0.01647421158850193 -0.026150569319725037
0.00080933765275403857 0.014169523492455482 -0.025161981582641602
0.00065460533369332552 0.016799308359622955 -0.026470031589269638
0.0011019380763173103 0.016387838870286942 -0.026268133893609047
0.0011817449703812599 0.016235325485467911 -0.02654329314827919
0.00084409920964390039 0.013561606407165527 -0.028032116591930389
0.00060620915610343218 -0.0054892790503799915 -0.019506797194480896
0.00060509302420541644 -0.0057677160948514938 -0.020464265719056129
0.00059917906764894724 -0.0055561959743499756 -0.022042145952582359
0.00060036365175619721 -0.006439743097871542 -0.020443320274353027
0.00060642085736617446 -0.0048599671572446823 -0.020342037081718445
0.00060275732539594173 -0.0061602089554071426 -0.018978770822286606
0.00060388160636648536 -0.0047789323143661022 -0.018999494612216949
0.00059697910910472274 -0.0065045570954680443 -0.018654057756066322
0.00060335337184369564 -0.0048360344953835011 -0.02182554267346859
0.00063274602871388197 -0.0043260729871690273 -0.0063104936853051186
0.00064349046442657709 -0.0032765327487140894 -0.0068547893315553665
0.0006453792448155582 -0.0019394396804273129 -0.0075784442014992237
0.00088341860100626945 0.0067578083835542202 -0.019990460947155952
0.00089623418170958757 0.0062341880984604359 -0.020599493756890297
0.00087101594544947147 0.0056161847896873951 -0.021317366510629654
0.00078475585905835032 0.007480907253921032 -0.022114286199212074
0.00082042801659554243 0.0033595126587897539 -0.021333985030651093
0.00078477151691913605 0.0047592767514288425 -0.022461242973804474
0.00087059749057516456 0.0041835722513496876 -0.01986410841345787
0.00076587975490838289 0.0072159138508141041 -0.019515693187713623
0.00070649944245815277 0.008800772950053215 -0.023278716951608658
0.00069759000325575471 0.0083458023145794868 -0.023848427459597588
0.00076453632209450006 0.0069823414087295532 -0.022675227373838425
0.00078977493103593588 0.007969096302986145 -0.021567309275269508
0.00067624339135363698 0.00098531180992722511 -0.022664321586489677
0.00089159474009647965 0.0051694689318537712 -0.018243152648210526
0.00068742193980142474 0.0038851040881127119 -0.024125242605805397
0.00072138424729928374 0.0083841085433959961 -0.021136056631803513
0.00071271148044615984 0.006214129738509655 -0.023639049381017685
0.00072340096812695265 0.009212985634803772 -0.022767648100852966
0.00073946354677900672 0.0017785340314731002 -0.020676860585808754
0.00070115289418026805 0.0024223853833973408 -0.018911842256784439
0.00085041980491951108 0.0055931084789335728 -0.01768319308757782
0.00060613139066845179 0.0026252241805195808 -0.017995880916714668
0.00087689817883074284 0.0047300821170210838 -0.018936363980174065
0.00070478365523740649 0.0024266380351036787 -0.02326318621635437
3  157 308 156
3  295 296 285
3  285 296 286
3  286 287 285
3  285 287 288
3  285 288 295
3  295 288 293
3  308 152 153
3  199 318 198
3  316 289 318
3  318 289 312
3  209 301 208
3  316 301 289
3  301 291 289
3  289 291 290
3  210 301 209
3  132 315 131
3  301 315 291
3  315 299 291
3  291 299 298
3  137 299 136
3  137 317 299
3  292 293 317
3  317 293 299
3  143 311 142
3  317 311 292
3  292 311 313
3  146 311 145
3  148 313 147
3  313 308 302
3  158 302 157
3  302 294 313
3  313 294 292
3  300 296 294
3  294 296 295
3  294 295 292
3  292 295 293
3  294 302 300
3  161 300 302
3  162 163 300
3  169 305 168
3  174 305 173
3  176 319 175
3  305 319 296
3  296 319 286
3  296 300 305
3  305 300 304
3  179 307 319
3  319 307 286
3  286 307 287
3  183 310 307
3  307 310 287
3  287 310 297
3  310 309 297
3  297 309 290
3  297 290 298
3  298 290 291
3  298 288 297
3  297 288 287
3  190 191 309
3  309 312 290
3  290 312 289
3  189 309 188
3  195 196 312
3  125 217 124
3  215 127 212
3  224 306 223
3  251 252 314
3  255 306 254
3  231 232 314
3  246 247 303
3  250 314 249
3  238 240 236
3  246 303 245
3  298 299 288
3  288 299 293
3  196 318 312
3  203 204 316
3  316 208 301
3  253 224 252
3  253 306 224
3  311 143 144
3  305 174 319
3  180 307 179
3  315 136 299
3  163 304 300
3  162 300 161
3  184 185 310
3  301 210 130
3  131 301 130
3  301 131 315
3  304 166 167
3  184 310 183
3  308 157 302
3  141 311 317
3  140 141 317
3  139 140 317
3  213 214 212
3  234 235 303
3  303 235 236
3  302 158 159
3  160 161 302
3  302 159 160
3  304 168 305
3  169 170 305
3  170 171 305
3  303 236 240
3  243 303 242
3  241 303 240
3  242 303 241
3  237 238 236
3  243 244 303
3  303 244 245
3  308 148 150
3  308 150 151
3  148 149 150
3  311 146 313
3  146 147 313
3  145 311 144
3  239 240 238
3  234 303 233
3  232 303 314
3  233 303 232
3  248 314 247
3  247 314 303
3  306 255 256
3  306 256 257
3  306 257 124
3  165 166 304
3  163 165 304
3  163 164 165
3  127 215 126
3  214 215 212
3  127 211 212
3  215 216 126
3  126 216 125
3  314 226 227
3  314 227 228
3  153 154 308
3  308 155 156
3  308 154 155
3  253 254 306
3  314 252 226
3  252 224 225
3  252 225 226
3  191 312 309
3  305 171 172
3  305 172 173
3  309 189 190
3  304 167 168
3  248 249 314
3  251 314 250
3  221 223 220
3  306 219 220
3  221 222 223
3  306 220 223
3  180 181 307
3  307 181 183
3  183 181 182
3  308 151 152
3  310 188 309
3  188 310 185
3  187 188 185
3  186 187 185
3  141 142 311
3  312 191 193
3  312 193 194
3  191 192 193
3  312 194 195
3  203 316 318
3  202 203 318
3  201 202 318
3  318 199 200
3  318 200 201
3  313 148 308
3  314 230 231
3  229 230 314
3  228 229 314
3  315 132 133
3  315 134 135
3  315 133 134
3  315 135 136
3  174 175 319
3  316 204 205
3  316 206 207
3  316 205 206
3  316 207 208
3  139 137 138
3  139 317 137
3  196 198 318
3  198 196 197
3  211 127 210
3  210 127 130
3  127 128 130
3  128 129 130
3  218 124 217
3  218 306 124
3  217 125 216
3  218 219 306
3  319 176 177
3  319 177 179
3  179 177 178
3  263 258 264
3  260 263 262
3  278 320 279
3  320 272 271
3  268 321 269
3  282 281 321
3  320 278 277
3  260 259 263
3  258 263 259
3  264 321 265
3  264 258 321
3  270 269 320
3  271 270 320
3  261 260 262
3  321 267 266
3  321 266 265
3  277 273 320
3  277 276 273
3  276 275 273
3  275 274 273
3  320 273 272
3  321 281 280
3  279 320 321
3  280 279 321
3  320 269 321
3  268 267 321
3  283 258 284
3  321 258 283
3  321 283 282
3  121 327 120
3  118 119 330
3  113 322 112
3  110 111 328
3  116 330 115
3  327 325 330
3  330 325 322
3  325 326 322
3  322 326 323
3  80 325 79
3  85 326 84
3  90 91 323
3  88 90 326
3  97 329 96
3  324 329 323
3  323 329 322
3  322 329 328
3  107 328 106
3  102 329 101
3  92 93 324
3  78 79 327
3  322 113 330
3  327 79 325
3  113 114 330
3  87 88 326
3  324 93 94
3  90 88 89
3  90 323 326
3  112 328 111
3  112 322 328
3  327 122 123
3  327 123 78
3  325 84 326
3  92 323 91
3  92 324 323
3  94 95 324
3  324 95 96
3  325 80 83
3  80 81 82
3  83 84 325
3  82 83 80
3  326 85 86
3  326 86 87
3  329 99 100
3  329 100 101
3  119 120 327
3  122 327 121
3  119 327 330
3  324 96 329
3  97 99 329
3  98 99 97
3  328 107 108
3  328 108 109
3  328 109 110
3  105 106 328
3  329 105 328
3  104 105 329
3  102 104 329
3  102 103 104
3  114 115 330
3  117 330 116
3  118 330 117
3  70 71 354
3  67 68 352
3  58 59 347
3  347 344 339
3  339 344 352
3  339 350 347
3  56 347 55
3  350 339 331
3  331 339 338
3  331 342 350
3  350 342 348
3  50 350 348
3  342 331 341
3  341 331 337
3  42 341 41
3  41 341 40
3  46 342 45
3  343 341 351
3  351 341 335
3  35 351 34
3  30 31 353
3  28 353 27
3  24 353 355
3  23 355 22
3  355 332 349
3  349 332 345
3  355 353 335
3  335 353 351
3  335 333 355
3  355 333 332
3  333 334 332
3  332 334 340
3  333 335 337
3  337 335 341
3  337 336 333
3  333 336 334
3  357 356 336
3  336 356 334
3  336 337 338
3  338 337 331
3  336 338 357
3  357 338 354
3  6 340 5
3  346 345 340
3  340 345 332
3  334 356 340
3  11 346 10
3  14 345 13
3  16 17 345
3  338 339 354
3  354 339 352
3  64 352 63
3  351 35 343
3  0 1 356
3  35 36 343
3  31 351 353
3  11 12 346
3  341 42 342
3  1 2 356
3  69 70 354
3  347 56 57
3  344 60 61
3  340 6 346
3  342 46 348
3  344 63 352
3  25 353 24
3  343 40 341
3  346 12 13
3  13 345 346
3  52 350 51
3  51 350 50
3  342 42 44
3  44 42 43
3  342 44 45
3  343 36 37
3  343 37 38
3  39 343 38
3  343 39 40
3  347 57 58
3  347 59 344
3  59 60 344
3  49 50 348
3  48 49 348
3  344 61 63
3  61 62 63
3  73 74 357
3  18 349 17
3  17 349 345
3  69 354 68
3  68 354 352
3  14 15 345
3  345 15 16
3  5 356 3
3  5 340 356
3  3 4 5
3  2 3 356
3  346 6 9
3  6 7 9
3  7 8 9
3  9 10 346
3  54 55 347
3  348 46 47
3  348 47 48
3  349 18 19
3  349 20 21
3  349 19 20
3  349 21 22
3  54 347 350
3  53 54 350
3  52 53 350
3  32 33 351
3  31 32 351
3  33 34 351
3  352 64 65
3  65 67 352
3  67 65 66
3  26 27 353
3  25 26 353
3  73 357 72
3  71 72 354
3  72 357 354
3  349 22 355
3  23 24 355
3  0 356 77
3  357 76 356
3  74 75 357
3  76 77 356
3  75 76 357
3  353 28 30
3  28 29 30
3  155 383 156
3  383 378 373
3  154 153 378
3  360 359 362
3  362 359 358
3  363 361 360
3  360 361 359
3  362 364 360
3  360 364 363
3  238 373 239
3  237 385 373
3  244 372 245
3  372 379 388
3  388 384 372
3  372 384 387
3  246 372 387
3  186 391 187
3  187 371 188
3  376 371 381
3  371 370 381
3  381 370 369
3  381 369 393
3  393 369 375
3  197 381 198
3  197 194 381
3  369 389 375
3  213 389 214
3  213 212 208
3  126 128 127
3  257 392 124
3  129 392 131
3  172 397 173
3  170 397 172
3  177 386 178
3  397 361 386
3  386 361 363
3  386 363 391
3  391 363 364
3  181 391 182
3  382 365 397
3  397 365 361
3  365 382 380
3  164 382 165
3  380 367 365
3  365 367 366
3  365 366 361
3  361 366 359
3  367 385 366
3  366 385 374
3  366 374 359
3  359 374 358
3  232 374 233
3  232 231 374
3  374 377 358
3  358 377 396
3  225 396 226
3  225 224 396
3  396 395 368
3  368 395 389
3  368 362 396
3  396 362 358
3  389 369 368
3  368 369 370
3  368 370 362
3  362 370 364
3  220 217 395
3  215 389 216
3  253 394 254
3  254 394 255
3  257 256 392
3  394 387 390
3  390 387 384
3  135 394 390
3  133 392 134
3  142 141 384
3  143 384 145
3  162 380 163
3  149 379 150
3  145 388 146
3  367 380 383
3  159 380 160
3  383 373 367
3  367 373 385
3  370 371 364
3  364 371 391
3  242 244 243
3  242 241 379
3  193 192 376
3  393 198 381
3  376 188 371
3  375 207 206
3  371 187 391
3  134 394 135
3  155 154 378
3  230 229 377
3  372 244 379
3  391 181 386
3  386 177 397
3  387 247 246
3  246 245 372
3  221 220 395
3  393 200 199
3  393 199 198
3  222 221 395
3  378 241 240
3  378 240 239
3  379 152 150
3  152 151 150
3  378 239 373
3  238 237 373
3  380 159 383
3  140 390 141
3  141 390 384
3  388 145 384
3  235 385 236
3  236 385 237
3  385 233 374
3  241 378 379
3  390 140 139
3  390 139 138
3  394 134 392
3  377 226 396
3  226 377 227
3  382 164 380
3  230 377 231
3  231 377 374
3  133 132 392
3  129 131 130
3  392 132 131
3  202 393 203
3  204 393 375
3  204 203 393
3  205 204 375
3  128 126 392
3  192 191 376
3  376 191 190
3  376 190 189
3  376 189 188
3  217 220 219
3  217 389 395
3  218 217 219
3  383 155 378
3  387 250 249
3  206 205 375
3  392 129 128
3  377 229 228
3  377 228 227
3  217 216 389
3  256 394 392
3  152 378 153
3  152 379 378
3  379 149 388
3  164 163 380
3  161 380 162
3  160 380 161
3  194 197 196
3  194 376 381
3  194 196 195
3  382 169 168
3  166 168 167
3  382 168 166
3  382 166 165
3  383 159 158
3  383 157 156
3  383 158 157
3  382 170 169
3  145 144 143
3  142 384 143
3  385 235 234
3  385 234 233
3  386 181 180
3  386 180 179
3  386 179 178
3  376 194 193
3  394 250 387
3  253 250 394
3  252 251 253
3  251 250 253
3  249 248 387
3  387 248 247
3  388 149 148
3  388 147 146
3  388 148 147
3  375 213 207
3  208 207 213
3  209 208 212
3  211 210 212
3  210 209 212
3  175 174 397
3  173 397 174
3  389 213 375
3  214 389 215
3  397 170 382
3  171 170 172
3  390 136 135
3  137 136 390
3  138 137 390
3  244 242 379
3  391 186 185
3  184 183 391
3  391 185 184
3  183 182 391
3  126 125 392
3  124 392 125
3  201 200 393
3  202 201 393
3  256 255 394
3  222 395 223
3  223 395 396
3  223 396 224
3  397 177 176
3  397 176 175
3  398 404 403
3  82 404 83
3  399 402 398
3  398 402 404
3  403 401 398
3  398 401 399
3  82 81 403
3  123 405 78
3  121 405 122
3  117 403 405
3  115 401 116
3  111 401 112
3  108 400 399
3  108 399 109
3  102 101 400
3  400 406 399
3  399 406 402
3  89 402 90
3  91 402 92
3  97 96 406
3  401 109 399
3  406 98 97
3  104 103 400
3  405 121 120
3  116 403 117
3  404 82 403
3  106 108 107
3  106 400 108
3  106 105 400
3  400 105 104
3  404 89 88
3  87 404 88
3  404 87 86
3  95 402 96
3  96 402 406
3  402 89 404
3  90 402 91
3  403 116 401
3  100 406 101
3  101 406 400
3  115 114 401
3  112 401 113
3  113 401 114
3  123 122 405
3  103 102 400
3  401 111 110
3  401 110 109
3  95 93 402
3  92 402 93
3  93 95 94
3  405 120 119
3  405 119 117
3  119 118 117
3  81 405 403
3  86 85 404
3  404 84 83
3  404 85 84
3  81 80 405
3  78 405 79
3  79 405 80
3  406 100 99
3  406 99 98
3  264 407 263
3  270 408 269
3  409 271 272
3  277 409 276
3  274 409 273
3  275 276 409
3  279 280 408
3  409 274 275
3  408 266 267
3  408 267 268
3  407 283 284
3  261 262 263
3  263 407 261
3  409 278 408
3  277 278 409
3  278 279 408
3  272 273 409
3  265 408 407
3  265 266 408
3  264 265 407
3  284 258 407
3  407 258 259
3  407 260 261
3  407 259 260
3  408 270 409
3  269 408 268
3  282 407 408
3  282 283 407
3  280 281 408
3  408 281 282
3  409 270 271
3  8 423 430
3  430 423 417
3  417 423 410
3  14 417 15
3  15 417 16
3  66 65 428
3  72 429 73
3  431 429 432
3  432 429 416
3  3 423 4
3  432 416 411
3  411 416 412
3  411 410 432
3  432 410 423
3  411 412 413
3  413 412 420
3  413 421 411
3  411 421 410
3  421 413 427
3  427 413 418
3  24 427 25
3  22 421 23
3  421 425 410
3  410 425 417
3  32 31 418
3  27 427 28
3  53 433 54
3  56 433 57
3  59 58 422
3  424 415 433
3  433 415 414
3  414 428 433
3  433 428 422
3  415 412 414
3  414 412 416
3  414 416 428
3  428 416 429
3  415 424 426
3  49 426 424
3  426 420 415
3  415 420 412
3  44 426 45
3  43 420 44
3  33 418 34
3  419 418 420
3  420 418 413
3  69 428 70
3  65 422 428
3  425 21 20
3  426 44 420
3  431 76 75
3  429 72 71
3  7 423 8
3  58 433 422
3  50 49 424
3  51 50 424
3  17 16 417
3  428 68 67
3  428 67 66
3  417 13 430
3  14 13 417
3  29 427 30
3  30 427 31
3  31 427 418
3  419 37 36
3  35 418 419
3  35 34 418
3  36 35 419
3  39 419 40
3  40 419 420
3  420 42 40
3  42 41 40
3  43 42 420
3  422 64 63
3  63 62 422
3  65 64 422
3  421 21 425
3  22 21 421
3  62 61 422
3  422 61 60
3  422 60 59
3  10 9 430
3  430 9 8
3  423 3 432
3  7 4 423
3  7 6 4
3  4 6 5
3  47 426 48
3  48 426 49
3  418 33 32
3  424 53 52
3  424 52 51
3  17 417 425
3  18 17 425
3  19 18 425
3  20 19 425
3  29 28 427
3  39 38 419
3  46 45 426
3  47 46 426
3  73 429 74
3  74 429 431
3  75 74 431
3  427 23 421
3  25 427 26
3  24 23 427
3  58 57 433
3  55 433 56
3  429 70 428
3  69 68 428
3  70 429 71
3  430 13 12
3  430 11 10
3  430 12 11
3  77 431 1
3  1 431 432
3  1 0 77
3  3 2 432
3  432 2 1
3  433 53 424
3  54 433 55
3  427 27 26
3  419 38 37
3  77 76 431

