OFF
52 100 0

0.00031106662251623814 0.016445243226393083 -0.026769707505498785
0.00030395536204700502 0.016454396680457763 -0.0268292983445945
0.00030022223395116904 0.016436378341427464 -0.026866434312359265
0.00028343835027121021 0.016449598521391405 -0.027009229671561594
0.00028220856514433659 0.016454275345986712 -0.027038968816263106
0.00028212670946278214 0.016460073039113753 -0.027069468458961
0.00028732217857905607 0.016511212831047534 -0.027312381387500272
0.00030339744476697592 0.016555716746824385 -0.027472782934401686
0.00032402007258775401 0.016590752881258542 -0.027563898839939739
0.00033500371846612818 0.016606002153361311 -0.027594695616807913
0.00039714278096354867 0.016681663515231718 -0.027776065215814195
0.00042377223731189658 0.016709962543891975 -0.027816302452968213
0.00053915628816794074 0.01681614750781521 -0.027841315770066787
0.00058685663108862555 0.016880668313090087 -0.027834607945392567
0.00063744038259162718 0.016911376606888032 -0.027785887748501627
0.00065469258785949341 0.016940573656894754 -0.027738565019994887
0.00066144154823101367 0.016966198337736146 -0.027696760246170092
0.0006840903005944656 0.017093901477869308 -0.027404440429458166
0.00068413653073932544 0.017112914535377471 -0.027335492974948063
0.00068288614165780545 0.017130077789730053 -0.027263375410247159
0.00067393619507452802 0.017141972899639285 -0.0271515976982224
0.00070031021140689795 0.01714279463288788 -0.027032844078649153
0.00072844574810035563 0.017099174093060839 -0.02677529649648349
0.00073048154108259816 0.017085153036570523 -0.026724708690839982
0.0007129852654282335 0.017003775586600683 -0.026565767651321608
0.00068336452043569682 0.01690299908920289 -0.026405479145713714
0.00067322342456240642 0.016874530977631232 -0.026368348099776423
0.00066807382392542695 0.016851102821977423 -0.026340075198009044
0.00066631770445711898 0.016828073184600195 -0.026314646189659029
0.00061685749482140765 0.016554753251322024 -0.026067049974552316
0.00057854429352512571 0.016499536952983562 -0.026070667708482684
0.00042702889186224278 0.016323030178021267 -0.026137234309969087
0.0004230082832338654 0.016321879698048689 -0.026143412412547102
0.00039732156513332389 0.01629447052537851 -0.026177840357166277
0.00035961392016878573 0.016326393888105889 -0.026369916335338431
0.00032643855939808766 0.016370869358710412 -0.026571051947095824
0.00031213580117407945 0.016442699523771646 -0.026761047420631772
0.00063768483232706785 0.016896523535251617 -0.027769101783633232
0.00038988873711787164 0.016820454970002174 -0.02648223377764225
0.00042450791806913912 0.017140312120318413 -0.026992639526724815
0.00032336037838831544 0.016953062266111374 -0.026873188093304634
0.00043519644532352686 0.017075030133128166 -0.026706598699092865
0.00058676878688856959 0.017121041193604469 -0.026627272367477417
0.00027567025972530246 0.016748679801821709 -0.027191229164600372
0.00038797833258286119 0.01640179380774498 -0.026219848543405533
0.0003218906931579113 0.016961336135864258 -0.027306579053401947
0.00059149600565433502 0.017189420759677887 -0.026897996664047241
0.00062959169736132026 0.017144819721579552 -0.027298444882035255
0.00045679495087824762 0.017031805589795113 -0.027582529932260513
0.00059659854741767049 0.01692056842148304 -0.026361903175711632
0.00028010125970467925 0.016485327854752541 -0.027029132470488548
0.00031068574753589928 0.016659209504723549 -0.026718152686953545
3  34 32 33
3  5 37 2
3  2 37 16
3  1 20 21
3  37 9 10
3  37 10 12
3  12 10 11
3  37 12 13
3  37 13 14
3  15 16 37
3  1 2 20
3  2 19 20
3  2 18 19
3  2 16 17
3  2 17 18
3  37 14 15
3  2 3 5
3  6 37 5
3  5 3 4
3  9 37 8
3  8 37 7
3  7 37 6
3  1 24 0
3  24 1 23
3  23 1 22
3  25 26 0
3  24 25 0
3  22 1 21
3  28 32 27
3  28 30 32
3  28 29 30
3  30 31 32
3  32 34 27
3  26 27 35
3  34 35 27
3  36 0 26
3  35 36 26
3  24 49 25
3  41 38 42
3  42 38 49
3  22 42 23
3  42 46 41
3  48 45 47
3  47 45 39
3  17 48 47
3  10 48 11
3  35 44 51
3  51 44 38
3  50 51 43
3  43 51 40
3  6 5 43
3  7 45 8
3  21 20 46
3  46 47 39
3  43 40 45
3  45 40 39
3  51 38 40
3  40 38 41
3  40 41 39
3  39 41 46
3  30 29 44
3  44 49 38
3  42 24 23
3  42 22 46
3  34 44 35
3  18 17 47
3  51 36 35
3  50 4 3
3  5 4 50
3  45 7 43
3  22 21 46
3  29 28 49
3  19 18 47
3  7 6 43
3  5 50 43
3  29 49 44
3  44 34 33
3  16 48 17
3  32 31 44
3  33 32 44
3  45 10 9
3  45 9 8
3  19 47 20
3  20 47 46
3  49 24 42
3  31 30 44
3  48 10 45
3  48 16 15
3  48 15 13
3  15 14 13
3  13 12 48
3  48 12 11
3  49 28 27
3  49 26 25
3  49 27 26
3  50 3 2
3  0 36 51
3  50 1 51
3  1 50 2
3  51 1 0

