OFF
106 204 0

0.00075428942423087114 0.020474188904731128 -0.011862907460903831
0.00076047692609613896 0.020644063031402399 -0.012000845901412874
0.00076980278719995235 0.021049879269562498 -0.012311175984677654
0.00077331305858333987 0.021169306794488855 -0.012372726594147702
0.00077375402828674109 0.021246814208535931 -0.012484109342458215
0.00077382524454508179 0.021261549240648638 -0.012505775062412804
0.00077778515760551037 0.02135441463372293 -0.012673976401703181
0.00077884385978883386 0.021513741503059902 -0.01291084592015497
0.00077714763036091392 0.021552239121386325 -0.013149812907169895
0.00077507220108932002 0.021489754948747809 -0.013737675826777171
0.00077564358326210508 0.021442427329208633 -0.013749819662599902
0.00077633031459180832 0.021381988953944754 -0.013763313971078221
0.00077666883406765001 0.020776152743459234 -0.013591616524697987
0.00077571988344192163 0.020662271770821743 -0.013511853341307771
0.00077275030763326088 0.020439269103150345 -0.013411594244310585
0.00076552188405354642 0.020105233284411144 -0.0131611263911223
0.00075976977083055497 0.020051694545673501 -0.01295528494465234
0.00075622961049547186 0.019904883410067905 -0.012832100728510614
0.00075667795771579933 0.019878798863014836 -0.01280305183591912
0.00076198367147583819 0.019862394277627975 -0.012751384781182051
0.00076595113469920032 0.019390942093759966 -0.012253851166569591
0.00076429191622279561 0.019367487729386595 -0.012219319435185411
0.00076552559726978547 0.019317557098894621 -0.012170911743970643
0.00076410568537051387 0.019243226693403392 -0.012081694717546672
0.00076731722808108809 0.01922179473190358 -0.012023903277591811
0.00076541178242233018 0.019166936124942878 -0.011965651795439038
0.00076683672385009511 0.018842198895426116 -0.011508321105772139
0.00077544924247122853 0.018736034905236662 -0.011390100913039143
0.00077019057245174163 0.0187389350275089 -0.011374035353311766
0.0007125914388876125 0.018617002550505898 -0.011153919831933479
0.00071245151357186777 0.018630661824626964 -0.011157393535367165
0.00071530609643485205 0.018779455459253001 -0.011171734477498646
0.00071727730420435907 0.018897609890499684 -0.011181863930134423
0.00072830295601325349 0.019082682243097129 -0.011231528189664041
0.0007328214579334102 0.019309701400059491 -0.011359121732634161
0.00073599559786726592 0.019376898904902878 -0.011383292381451415
0.00074712303110465892 0.019740183040146839 -0.01145930822311576
0.00074735430210794629 0.019781774760596393 -0.011477704974656649
0.00075199024682371242 0.020022805588384686 -0.011589227903655706
0.00075501463053274584 0.020089881356615682 -0.011602648488619536
0.00084056985734883168 0.018278984703591745 -0.026090366947220372
0.00084597616568888386 0.018003931736242505 -0.025793752145531881
0.00084721397521527603 0.017969682526463963 -0.025762069132288776
0.00083929210645024548 0.01781132321729452 -0.025655593897996092
0.00078269518934112603 0.017360125896420223 -0.025452016158546597
0.00078248949546515581 0.017345066022349767 -0.025454839525921667
0.00081610831256737635 0.016858412542097877 -0.025127953013017502
0.00082015240276892085 0.016533379019675179 -0.024822973380440073
0.00082229141634998948 0.016495324543736561 -0.024795106376786266
0.00081920167092355823 0.016488224923433693 -0.024805499411356444
0.00079786775075756078 0.016716208290688019 -0.025323855505807
0.00078041257115809594 0.016751118908549835 -0.025503517905706923
0.00076844403290110791 0.01677494602636188 -0.025626529924700596
0.00076757132847608605 0.016813154338557824 -0.025694299031662201
0.00075915765073561936 0.01709833438044786 -0.026189057670201514
0.00076590952144062468 0.017123434804260745 -0.026276210613314338
0.00077572887394744051 0.01717618166181499 -0.026686501860601269
0.00078675487668231439 0.017218935128348274 -0.026859613760631843
0.00078939772317130675 0.01725062650087349 -0.026940673389628293
0.00078907699429903427 0.017355951755669466 -0.027251899664847513
0.00079157988618915867 0.017353013504794929 -0.027281743588182618
0.00082023529850400461 0.017369329616322947 -0.027441339520876885
0.00080944335475446666 0.017499299543668446 -0.027627415853399478
0.0008060584658598454 0.017516534918671518 -0.027660940982299542
0.00079237900764887064 0.017583385779470509 -0.027783164177245325
0.00082242620153153518 0.017783141371218964 -0.02782861501300668
0.00084796984413154012 0.017964670950861343 -0.027877863002089109
0.00085451351499787691 0.018090965325405557 -0.027890894024344862
0.00084953850010905394 0.018244888486907907 -0.027882286361381882
0.0008472525378515471 0.018404418687710301 -0.027848244859285411
0.00083802460586933076 0.018527699887070832 -0.027799779037587388
0.00083928775286421452 0.01862934541997955 -0.027743995975128652
0.00083999687663606428 0.018644569634131462 -0.027737660369589197
0.00083989989547265638 0.018663334844842141 -0.02772607960437324
0.00083494900498670222 0.018722494860544555 -0.027671527636140274
0.00080849509951428158 0.01886080356619127 -0.027486199927109076
0.00080239411560321505 0.018901551503287185 -0.027266280184553907
0.00081166620306407874 0.018869267471110871 -0.027007056840347571
0.00080979431609451012 0.018835219915751655 -0.02687230772743732
0.00081955889120493577 0.018759004681568103 -0.026689577533918218
0.00082003961049164839 0.01872401780361755 -0.026623695697418952
0.00082484632718935564 0.018679401766633325 -0.026560977360775985
0.00084015974057801931 0.018302806884337851 -0.026116597111710646
0.0007386651705019176 0.020361585542559624 -0.012380552478134632
0.00076505227480083704 0.021001605316996574 -0.013116619549691677
0.00071139336796477437 0.019593242555856705 -0.01171889528632164
0.00070174346910789609 0.018841162323951721 -0.011256818659603596
0.00075359357288107276 0.019235044717788696 -0.012017323635518551
0.00075365696102380753 0.019891662523150444 -0.012739707715809345
0.00072965462459251285 0.017817173153162003 -0.025981931015849113
0.00075643428135663271 0.017674284055829048 -0.027703255414962769
0.00064480741275474429 0.018113294616341591 -0.027296742424368858
0.00068890227703377604 0.017434744164347649 -0.026421569287776947
0.00070438015973195434 0.018555648624897003 -0.02683732844889164
0.00085234188009053469 0.018685545772314072 -0.026712598279118538
0.00087036029435694218 0.017415143549442291 -0.025938300415873528
0.00088109856005758047 0.017526965588331223 -0.027332061901688576
0.00095799262635409832 0.018115952610969543 -0.026976794004440308
0.00085334462346509099 0.018630415201187134 -0.027718361467123032
0.00077082868665456772 0.019382782280445099 -0.012213270179927349
0.00077546341344714165 0.02013404481112957 -0.012933251447975636
0.00079098192509263754 0.020640648901462555 -0.012719495221972466
0.00078097224468365312 0.018893210217356682 -0.011452994309365749
0.0008010691381059587 0.019740598276257515 -0.011948032304644585
0.00078654690878465772 0.021119358018040657 -0.012417599558830261
0.00076845264993607998 0.020061636343598366 -0.01163061149418354
3  14 84 13
3  84 88 83
3  12 84 11
3  20 88 19
3  25 86 87
3  87 86 85
3  87 85 88
3  88 85 83
3  32 33 86
3  1 83 0
3  5 84 83
3  84 8 9
3  6 84 5
3  85 0 83
3  24 25 87
3  86 31 32
3  88 18 19
3  85 35 36
3  85 36 37
3  83 1 2
3  2 5 83
3  2 4 5
3  4 2 3
3  87 23 24
3  84 6 7
3  84 7 8
3  85 37 38
3  85 39 0
3  85 38 39
3  30 31 86
3  29 30 86
3  28 26 27
3  28 86 26
3  26 86 25
3  84 16 88
3  16 17 88
3  14 16 84
3  14 15 16
3  9 10 84
3  13 84 12
3  84 10 11
3  35 85 34
3  34 85 86
3  34 86 33
3  28 29 86
3  17 18 88
3  88 21 87
3  21 22 87
3  22 23 87
3  20 21 88
3  69 91 70
3  73 72 71
3  75 91 76
3  82 93 89
3  91 92 93
3  93 92 89
3  51 89 52
3  57 92 58
3  60 91 90
3  42 89 43
3  89 41 40
3  92 52 89
3  93 76 91
3  50 49 47
3  46 50 47
3  56 55 92
3  65 64 90
3  90 64 63
3  90 63 62
3  58 91 59
3  59 91 60
3  92 55 54
3  92 54 53
3  92 53 52
3  89 40 82
3  81 80 93
3  82 81 93
3  89 51 45
3  50 46 51
3  45 51 46
3  89 45 44
3  44 43 89
3  41 89 42
3  48 47 49
3  90 62 60
3  62 61 60
3  75 74 91
3  73 71 74
3  70 91 71
3  71 91 74
3  90 68 67
3  90 67 66
3  90 66 65
3  78 77 93
3  93 77 76
3  91 68 90
3  69 68 91
3  91 58 92
3  57 56 92
3  93 80 79
3  93 79 78
3  61 96 60
3  97 95 96
3  56 95 55
3  66 97 96
3  67 68 97
3  71 98 70
3  82 97 94
3  42 95 97
3  97 98 94
3  74 75 98
3  45 95 44
3  53 95 51
3  43 95 42
3  81 82 94
3  98 73 74
3  62 63 96
3  61 62 96
3  79 80 94
3  94 80 81
3  59 60 96
3  94 77 78
3  94 78 79
3  69 97 68
3  69 98 97
3  43 44 95
3  67 97 66
3  95 57 96
3  56 57 95
3  55 95 54
3  95 45 46
3  95 46 48
3  46 47 48
3  48 50 95
3  51 52 53
3  50 51 95
3  48 49 50
3  96 57 58
3  96 58 59
3  98 72 73
3  96 63 65
3  96 65 66
3  63 64 65
3  41 97 40
3  40 97 82
3  42 97 41
3  77 98 76
3  77 94 98
3  76 98 75
3  69 70 98
3  95 53 54
3  98 71 72
3  4 104 5
3  10 104 11
3  10 9 8
3  104 105 101
3  101 105 103
3  99 100 103
3  103 100 101
3  36 103 105
3  33 102 34
3  103 102 99
3  17 100 19
3  12 101 13
3  21 20 99
3  101 12 11
3  16 15 100
3  102 33 32
3  102 32 31
3  102 31 30
3  102 27 26
3  39 38 105
3  3 2 104
3  24 99 102
3  24 22 99
3  26 25 102
3  102 25 24
3  24 23 22
3  99 20 19
3  19 100 99
3  17 16 100
3  18 17 19
3  22 21 99
3  100 14 101
3  13 101 14
3  30 29 28
3  28 27 102
3  30 28 102
3  4 3 104
3  6 5 104
3  7 6 104
3  103 34 102
3  34 103 35
3  35 103 36
3  101 11 104
3  104 10 8
3  8 7 104
3  100 15 14
3  39 105 0
3  1 105 104
3  1 0 105
3  2 1 104
3  105 38 37
3  105 37 36

