OFF
49 94 0

0.00082528609853384986 0.01702860430115468 -0.026837715008166702
0.00082591235015468112 0.017032769547969683 -0.026850752232764986
0.00082595696507919937 0.017038768149491627 -0.026869448924558108
0.00083128037815732728 0.017056875972284002 -0.026926365892623372
0.00088114038326418242 0.017025521509171762 -0.027096004951272418
0.0009091355351937998 0.016996090761019128 -0.027169864146949864
0.00098116514677486135 0.016922302648736356 -0.027363398859742705
0.00098611054954709262 0.016916115931618507 -0.027374659830008276
0.0010108628078818423 0.01686710841469527 -0.027493975500154692
0.0010242492792502244 0.01683823360284124 -0.027547286358525328
0.0010591770673106494 0.016793748681504711 -0.027600123249393083
0.0011215794711138961 0.016689309497164607 -0.02763370597930551
0.0011354146366274892 0.016670133764250882 -0.027637647957631663
0.0011538222485746321 0.016635963503715184 -0.027619311603073675
0.0012197453212548014 0.016468057433553906 -0.027429617254452573
0.0012246398850779792 0.016450742282110166 -0.027402325622874472
0.0012265991936203503 0.01644439989689582 -0.02739148650914168
0.001235654171044813 0.016350113717519734 -0.027141032556834963
0.0012350242281055613 0.016344950144570731 -0.027122306607702804
0.0012346588468310511 0.016343408101003466 -0.027115925541056171
0.0012057206215288405 0.016287659283761566 -0.026815242291946983
0.0012054804319147918 0.016287644209441024 -0.026812606004385321
0.0011855059820707963 0.016282788599988163 -0.026573487646798993
0.0011726490569434994 0.016300799436186432 -0.026536237869979579
0.0011615300195928257 0.016314583080400274 -0.026494128555896765
0.0011483449115505754 0.016299154006614726 -0.026428135987966374
0.0011057460007625594 0.01628066800948947 -0.026272739640093405
0.0010934671359391444 0.016258611189610341 -0.02619711028370077
0.00094415769082243956 0.01643791625726837 -0.026102421012971035
0.00092994667798851761 0.01649133049020917 -0.026110527109474591
0.00090407047803250506 0.01659708159337208 -0.026164677881279449
0.00086040425934794172 0.016809774240229329 -0.026414878124974388
0.00084364812873911118 0.016898816890611408 -0.026545334399042352
0.0008318512090578589 0.016970967198215975 -0.026681068723061183
0.00082731611702709941 0.017006242392748575 -0.026768218704283066
0.0008279302273876965 0.017020730301737785 -0.026845782995223999
0.0010794629342854023 0.01660795696079731 -0.027241101488471031
0.0010775807313621044 0.016897927969694138 -0.026667246595025063
0.0010673467768356204 0.016998371109366417 -0.026918038725852966
0.0012047246564179659 0.016855925321578979 -0.027128223329782486
0.0011646731290966272 0.016732467338442802 -0.027555398643016815
0.0012065985938534141 0.016548972576856613 -0.026742825284600258
0.0012381097767502069 0.016535954549908638 -0.027346577495336533
0.00093435985036194324 0.016813535243272781 -0.026395058259367943
0.0011019380763173103 0.016387838870286942 -0.026268133893609047
0.0011173421517014503 0.016698908060789108 -0.026493338868021965
0.0012097993167117238 0.016760427504777908 -0.026870174333453178
0.00099027610849589109 0.016940481960773468 -0.026644028723239899
0.00096953567117452621 0.017042312771081924 -0.026893714442849159
3  20 36 19
3  3 4 35
3  28 25 26
3  20 35 36
3  35 1 2
3  0 1 35
3  36 7 8
3  36 8 9
3  36 11 13
3  36 14 15
3  36 13 14
3  11 12 13
3  9 10 36
3  36 10 11
3  35 2 3
3  35 4 36
3  6 7 36
3  5 6 36
3  4 5 36
3  31 28 30
3  35 28 31
3  35 31 32
3  35 33 34
3  28 29 30
3  35 34 0
3  35 32 33
3  24 28 35
3  24 25 28
3  28 26 27
3  24 35 23
3  21 35 20
3  23 35 21
3  23 21 22
3  15 16 36
3  36 17 18
3  36 18 19
3  36 16 17
3  39 38 46
3  46 38 37
3  9 40 10
3  6 39 7
3  46 42 39
3  39 42 40
3  33 47 34
3  18 17 46
3  19 46 41
3  22 41 23
3  25 24 44
3  45 43 44
3  29 44 30
3  43 45 47
3  47 45 37
3  32 47 33
3  45 41 37
3  37 41 46
3  13 40 14
3  47 37 48
3  48 37 38
3  4 38 5
3  18 46 19
3  27 26 44
3  44 26 25
3  42 14 40
3  43 30 44
3  17 16 42
3  41 22 21
3  47 32 43
3  38 4 48
3  13 12 40
3  45 23 41
3  48 4 3
3  40 12 11
3  40 11 10
3  39 6 38
3  7 39 8
3  40 8 39
3  9 8 40
3  21 20 41
3  41 20 19
3  44 29 28
3  28 27 44
3  43 32 31
3  42 16 15
3  42 15 14
3  31 30 43
3  23 45 24
3  24 45 44
3  17 42 46
3  6 5 38
3  48 34 47
3  48 3 2
3  48 0 34
3  48 2 1
3  48 1 0

