OFF
22 40 0

-0.067529433014947057 0.48633900450637191 -0.011275869986870187
-0.068061756671173174 0.48678249999516354 -0.011616233235717846
-0.06839692829674901 0.48676258102548708 -0.011458309373988708
-0.068626176698965535 0.4867498815914843 -0.011347974000339451
-0.068679116154853684 0.48673962501441387 -0.011317653355256731
-0.068769773254467065 0.48672331576755856 -0.011261349046282874
-0.068751065674889728 0.48629494016188113 -0.010735775640086698
-0.068704535297126348 0.48618344636309518 -0.010615533135884689
-0.068612307065695349 0.48601548876365885 -0.010443188274807284
-0.068450065137655169 0.48599994114927458 -0.010488290357950483
-0.067957984091145909 0.48601203608382698 -0.010698808110187842
-0.067536586209137633 0.48623703015905445 -0.011146147369470212
-0.068514205515384674 0.48605811595916748 -0.011980474926531315
-0.067814990878105164 0.48568412661552429 -0.011498574167490005
-0.06853775680065155 0.48600500822067261 -0.011162277311086655
-0.06760261207818985 0.4860285222530365 -0.011844281107187271
-0.067349568009376526 0.48618596792221069 -0.011341679841279984
-0.068762712180614471 0.48551809787750244 -0.010985144414007664
-0.068756096065044403 0.48625066876411438 -0.010720906779170036
-0.067949481308460236 0.48668202757835388 -0.011937943287193775
-0.067838773131370544 0.485799640417099 -0.010819872841238976
-0.068841859698295593 0.48661184310913086 -0.011560508050024509
3  13 14 12
3  6 21 18
3  1 19 2
3  1 0 19
3  15 12 19
3  13 16 20
3  15 19 16
3  17 13 20
3  12 21 19
3  14 21 12
3  11 20 16
3  13 17 14
3  8 17 9
3  21 14 18
3  18 14 17
3  15 13 12
3  13 15 16
3  8 7 17
3  0 11 16
3  10 9 20
3  5 21 6
3  7 18 17
3  0 16 19
3  20 9 17
3  7 6 18
3  21 2 19
3  2 21 3
3  10 20 11
3  21 5 4
3  21 4 3
3  2 4 6
3  3 4 2
3  2 0 1
3  6 10 2
3  5 6 4
3  10 11 2
3  11 0 2
3  9 10 6
3  6 7 9
3  8 9 7

