OFF
580 1056 0

-0.079010615958052671 0.48747408879776943 0.023087409190774587
-0.078531335422601795 0.48752325955103504 0.022724955782777376
-0.078412622816779132 0.48753632721392537 0.022634452221988566
-0.078275046120814706 0.48778534799989226 0.022534299704071989
-0.078201390886213362 0.48782157281983474 0.022547686378373212
-0.078355647763089287 0.48780976787731456 0.022672868749334059
-0.078510286084631759 0.48778784396108155 0.022802115719823074
-0.078704511672696403 0.48777822485859773 0.022957781621492007
-0.079180976737775993 0.48776376109787956 0.023336254772541969
-0.079288652876733506 0.48771500580938265 0.023251046513586421
-0.079290164207038827 0.48771087798092716 0.023236924952828274
-0.079284706196327881 0.48769866333164402 0.023235207464277631
-0.079018484645898668 0.48748234840489346 0.023093547920935827
-0.062506586051527008 0.49023372734896309 0.010719797842401239
-0.062515172527574228 0.49027499078455983 0.010728786215635997
-0.062557277899516345 0.49033992113283981 0.010731164370973611
-0.062613441846849138 0.4901957300756189 0.01080408437384549
-0.065989082018649059 0.49557819683518622 0.011157002635996151
-0.065987935847334894 0.49557717112498767 0.011156699015576348
-0.065906558836102608 0.49536729027927384 0.01109236910917771
-0.065856552683317582 0.49518840175598711 0.011037260151343996
-0.065895313425497259 0.49501623411825291 0.011029221168900712
-0.065906261693967363 0.49499495375423613 0.011031416426980883
-0.065930567580554517 0.49495948296553061 0.011014657731768938
-0.066158307159070201 0.4949046941221481 0.011063721722332758
-0.066427166290021614 0.49484605597975129 0.011101949964762893
-0.066656501074708066 0.49478803562781776 0.011160638412907764
-0.06668539299537754 0.49479451857606949 0.011180700033754791
-0.067018233304373842 0.49485992005574853 0.011378983774546348
-0.067189210770212907 0.4949725125484446 0.011559359213167364
-0.067272003254649299 0.49503480175208686 0.011674466210849437
-0.067297203712721659 0.49513783744780082 0.011802569966915789
-0.0672862209601338 0.49522322920744766 0.011890970928966254
-0.067266856835312278 0.49539734501198607 0.011949389674960967
-0.067239921469923677 0.49564317496025539 0.012015609850285883
-0.066952981654340188 0.49544664765115703 0.011750607776756697
-0.066474002616575864 0.49526885034868245 0.011414235418408161
-0.06637929291649397 0.49522247979270251 0.011339813601621227
-0.066202036036487166 0.49528569848946397 0.011232074128499787
-0.066073773628128052 0.49554795868588442 0.011208471253386608
-0.065995909936227143 0.49557811339988511 0.011161743163726619
-0.068341363438037817 0.48838649106723531 0.010953620902199283
-0.068518896120323719 0.48843477648772554 0.011086209267298291
-0.068677247763668126 0.48847769514672157 0.011205075697718874
-0.068830829613509809 0.48851569627785063 0.011334948772811503
-0.068883283956300584 0.48852573675149352 0.011391130747525204
-0.06888711205816489 0.48853166294604472 0.011398034060791169
-0.068964683237138974 0.48873707109568065 0.011583972844643072
-0.069030804134915913 0.48893758053389214 0.01177234778542372
-0.069034719907203723 0.48917342855043089 0.012046780200814525
-0.069033934516439133 0.48917637865906805 0.012049220397890168
-0.069028733414475407 0.48917657503201484 0.012043257930778853
-0.069004846169000877 0.48919451026506244 0.012035357503456351
-0.069003899982972766 0.48919554568214663 0.012035324327302204
-0.06900587588137988 0.48919473215468701 0.012036836229040435
-0.069035480566363217 0.48918102258407559 0.01205637148147312
-0.069039710744675131 0.48920202312764877 0.012085425018501765
-0.069066895625105276 0.48931895606178705 0.012243273145211167
-0.069003385774297599 0.4896156694158183 0.012787016690260382
-0.069002820825973282 0.48961753207125652 0.012790609816562267
-0.068992723148526253 0.48962343595456248 0.01281097767596007
-0.068958288751058472 0.48964354922724052 0.012880403126776591
-0.068944268583237101 0.48964716955967869 0.012865263082760103
-0.068837678151774023 0.48967453450530474 0.012749832288882594
-0.068251100285253274 0.48984452881906548 0.012298010700266419
-0.068078962036038346 0.48989651876190365 0.012171463366773135
-0.068014722642959491 0.48991833908855398 0.01213118940749658
-0.068032343172550747 0.48989511300648836 0.011963521808157442
-0.068049583668883903 0.4898489145062877 0.011872611921280508
-0.068102389056974869 0.48970511236096093 0.011601340247318737
-0.068107594166647217 0.48967760933770255 0.011541315513815615
-0.068089048009607814 0.4896404490467865 0.01141765905034834
-0.068055557741906719 0.48944708598368991 0.011173302503571472
-0.068026106009259721 0.4892738598933426 0.010957882015596875
-0.068016080415422078 0.48913026036099094 0.010870434531880286
-0.068022082203876691 0.48907090570069933 0.010844260187237449
-0.068032366541202455 0.48893176217746048 0.010788954933916298
-0.068091286255276912 0.48884870159579863 0.010804319836410541
-0.06817653726123668 0.48873615068880749 0.010830100728383956
-0.068261337160154284 0.48855265203008846 0.010895661089206622
-0.062856001429253378 0.49506518642352093 0.0096539738077234052
-0.06263843885217947 0.49515301463233619 0.0095203121831389272
-0.063000181047943027 0.49528543071312592 0.0096285279300067032
-0.06309176925533802 0.49520992558222354 0.0097426340438220085
-0.065367240468968413 0.49161035180218149 0.010218863123992904
-0.065245044131284291 0.49150640612767255 0.010418804212301683
-0.065244422793752449 0.49150663354340524 0.010418980500641604
-0.065045733976101222 0.49152299129778171 0.010612503916825248
-0.064836964751248991 0.49164514203973586 0.010560440300167801
-0.064823237866581507 0.49194047490691689 0.010395879861526229
-0.06516830030309112 0.49186123865180376 0.010114966981763566
-0.065088467101905176 0.49208218683538529 0.009959997780749753
-0.064968900736866203 0.49227234827576594 0.01005756989963094
-0.064801245816383746 0.4923212541544284 0.010187796879297807
-0.064714380654320336 0.49222825083476196 0.010251689380887313
-0.064669764498365728 0.49221291856495097 0.010265784625913921
-0.064107634449236658 0.49195391588075937 0.010481368117985411
-0.064054837194357811 0.49194055667441838 0.01049840604055325
-0.063915513503884108 0.4920365637088745 0.010456255018572266
-0.06391231960642349 0.49203897407801267 0.010455239346083701
-0.063912901570268965 0.49204030936895388 0.010455006025509353
-0.06389381899560799 0.49248633185600543 0.010347170300622401
-0.063964008672301426 0.49256047943421771 0.010339519034754439
-0.064125297329375497 0.49265811907546109 0.010270834845190441
-0.064220209252054475 0.4924397152080307 0.010311169803879271
-0.064368041547491414 0.49256576040455857 0.010237516176601309
-0.064756851842787344 0.49294844420518574 0.010047255134382888
-0.064775667214396898 0.49303497685589492 0.010019635587397085
-0.064824494658288434 0.49305318768542788 0.010003822410799373
-0.065113493620559931 0.49295101688460596 0.0099670662953880926
-0.065171027764279826 0.49290994061327553 0.0099216412880813974
-0.065209349189172081 0.49287471297538998 0.0098911472647655492
-0.065220852739181628 0.49284272058021855 0.0098241424609603438
-0.065245544640936709 0.49276112290233748 0.0096870886075648942
-0.065293219998354787 0.49241036878043348 0.0095236330124342655
-0.065297250456644099 0.4921391207101129 0.0094127820899622718
-0.065305638227641238 0.49210720121575735 0.0093959893153599018
-0.065340787787167925 0.4919131003444896 0.0094557325546282753
-0.065339678824118785 0.49185058706570017 0.0096018539906513704
-0.065422231954779378 0.49171684755280021 0.010062499023523144
-0.06804730936393108 0.49637317378230605 0.0097978158094571832
-0.068334289710064972 0.496315913912942 0.010000823368605357
-0.068430831762362948 0.49631615756809699 0.010087710039969741
-0.068578914555500053 0.49631539882003789 0.010219903252825914
-0.06878891107497638 0.49647182605331341 0.010713778266161838
-0.068883712885919324 0.49651872669427921 0.010894577912862705
-0.069220618791387134 0.49631266545146174 0.010801052203158332
-0.069229824428910347 0.49630457792374638 0.010793644620373941
-0.069246611533639979 0.49627065487603916 0.01078135053241697
-0.069265588766233066 0.49622102619186115 0.010757901975389828
-0.06913162196934472 0.49622810108086601 0.01063279017547538
-0.069048048669621526 0.4961645272625913 0.010497176883801512
-0.069028858553910222 0.49607688054378868 0.010396406180533956
-0.068778168564886819 0.49597579092942612 0.010029745185229255
-0.068718302260466629 0.49594854898688323 0.0099458678690548669
-0.068679628519814628 0.49594034470127235 0.0099011305582309625
-0.068620980234569168 0.49597802064016405 0.0098836901578927203
-0.068526605668528973 0.49604825571853606 0.0098652888916715871
-0.068345426310284396 0.4961948208999355 0.0098203746191727094
-0.068256548532368622 0.49626636022711146 0.0097986348581384046
-0.057233807133076686 0.49134753518240537 0.0071491225420892103
-0.057124460034238815 0.49146931512706049 0.0072132418947390472
-0.056931236177846567 0.49186876605145818 0.007313836587227637
-0.056907306621737631 0.49192371607611074 0.0073259166006278669
-0.056778294054646072 0.49223462121636175 0.0073962477047121201
-0.056688056256849972 0.49287002661056251 0.0074237927107677903
-0.056678324417876708 0.49293351954264097 0.0074263251338230925
-0.056677953098126746 0.49293488429821186 0.0074263296630660905
-0.056645246804223538 0.49307588990325002 0.0074225670653641617
-0.056641847704002692 0.49391326760291371 0.0072575410516311292
-0.056641432699701989 0.49395699403403592 0.0072491012574526104
-0.056666651008430755 0.49406103218481834 0.0072094268560810651
-0.056943330623131283 0.49395948148763202 0.0073300991979091462
-0.05700170782720107 0.49361581274019695 0.0074113056625813214
-0.057116851057352341 0.49307841999381519 0.0075471788467543297
-0.056960720764039421 0.49299672184957388 0.0075031299810061564
-0.057130243553011439 0.49258375629378459 0.0075336189397704582
-0.0574040593161428 0.49232986967727632 0.0075971437886775128
-0.057511606479853018 0.49222640213894508 0.0076212376014031559
-0.057245334178445614 0.49194607674106255 0.0074389156328177955
-0.057497832566361588 0.4918401916994859 0.0074797823317413747
-0.057784893877043192 0.49196158379406896 0.007681996844123992
-0.057785352497788017 0.4919616728204671 0.0076822523221398188
-0.057569692296832412 0.49222272299921216 0.0076461867503164688
-0.057592906297387322 0.49222645206085225 0.0076573465180499577
-0.057790668395427514 0.49292955330129939 0.0077552799901484705
-0.057853357246609824 0.49307034100596298 0.0077820032365205939
-0.057916561830459373 0.49310286886734933 0.0078031870580992056
-0.057926912233534453 0.49306641833064035 0.0078158715436479967
-0.057952070563667496 0.49275743719905918 0.007832027138678907
-0.057988334330346891 0.49218728398612843 0.0078470045145112542
-0.057946292106703864 0.49199657851501077 0.0077729219229904119
-0.058353336125913716 0.49137496913842449 0.0078052202560484592
-0.058359098526134162 0.49136455361777953 0.007804971444893706
-0.058364629834506215 0.49132645302071654 0.0077953127358563034
-0.058366240909764895 0.49131861581366176 0.0077902290243975613
-0.058279237962984946 0.49128695167009861 0.007711422300290937
-0.058150034502458578 0.49101780978122278 0.0074218589579064798
-0.058020154333153003 0.49098112260376625 0.0073124337920782937
-0.05784456803076652 0.49094474410759792 0.0071523744860383445
-0.057664991394584891 0.49100296523077458 0.0070743555675577517
-0.057478072462067611 0.49120788465733445 0.0071227214382334758
-0.073577727489494829 0.49557531722311426 0.0033734442786527534
-0.073589408616427071 0.49555321796717877 0.0033756844174691724
-0.073603777848028754 0.49551921099564494 0.0033626230089445061
-0.073760585046206736 0.4953431791197469 0.0032814770445710592
-0.0739018977137397 0.49518397481348375 0.0032041336549767305
-0.074188011817059335 0.49520332680907853 0.0031662430558347856
-0.074232893081826692 0.4952235803959843 0.003166280971173243
-0.074287858202836593 0.49524893275236637 0.003165233230655754
-0.075164067680422553 0.49563328759770675 0.0031880327683560163
-0.075242275841030631 0.49568567576102263 0.0031957909142989972
-0.075296036123195645 0.49572227019805115 0.0031866036163441724
-0.075381664560944001 0.49578077383285113 0.0031665725377166211
-0.075408877520924789 0.49579937645689021 0.0031599573850711756
-0.075582468713792178 0.49603079258427529 0.003095796579077428
-0.075641206582575032 0.49611029756370162 0.003072484094022995
-0.075693047259563467 0.49621395807800267 0.0030072206568665851
-0.075431758642864222 0.49620941869343738 0.0030340345066442111
-0.075358035080179811 0.49621158260990439 0.0030395907076743852
-0.074699260560733727 0.49621502150745544 0.0030923478934579067
-0.0742153955150084 0.49624448859239195 0.0031258297958997767
-0.074183875097435403 0.49624473924559398 0.003128337233988132
-0.073941901076170907 0.49602288040145837 0.0032663516553418418
-0.07374037917357644 0.49577115578078312 0.0033220212438262353
-0.059774194216131976 0.49401665230282416 0.0018518862385168582
-0.059955062316750865 0.49359320929166051 0.0019890844955341661
-0.060055904528104366 0.4934116050095031 0.0020820298980761113
-0.060180352778618669 0.49322586099560228 0.0021797944493443305
-0.060436384388143513 0.49293494365946594 0.0024078865982670068
-0.060699613719146457 0.49273344022957494 0.0025855629906776263
-0.060853631879185119 0.49276387469405192 0.0026031471080095467
-0.060934691777919658 0.49277313740416462 0.0026072624826415963
-0.061003000417673488 0.49278345759843989 0.0026126435575034475
-0.061572889411968673 0.4931372889917528 0.0024834031574635295
-0.061672278522415747 0.49330768734975305 0.0023901710891160301
-0.061702742441155714 0.49348135817310279 0.0022826080575553864
-0.061702810405489264 0.49360739164653822 0.0022006472883525693
-0.061700574729391895 0.49375206789465653 0.0021140167599941065
-0.061687644529954733 0.49388039867649808 0.0020724410138471313
-0.061686589580550275 0.493891690929254 0.0020685158058145452
-0.061567830803887044 0.49420387711569691 0.001954012796539735
-0.061282096526999771 0.49464240716510599 0.0017852240526622211
-0.061249945701014649 0.49466486603318383 0.0017828477740971346
-0.060701246061634878 0.49492746211044536 0.0017524081022029889
-0.06057299873589389 0.49500717158595664 0.0017346233436268471
-0.060513145648823735 0.49500452476915735 0.0017296377365813853
-0.06040256141089153 0.49490772819326312 0.0017280712458957372
-0.060310077486104133 0.49480568473936115 0.0017285154874456625
-0.060026821945010654 0.49448710835600335 0.0017384681639995004
-0.059907690135384536 0.49432827497038684 0.0017779848970442443
-0.059882738721359692 0.49423831291921078 0.0018041399940289613
-0.071454950322944619 0.4876677156135884 0.013914256034070975
-0.071450094372086492 0.48783578515456727 0.014016393433775597
-0.071445254108794209 0.48815644173215178 0.014188615615643347
-0.071417019330738268 0.48852988759699745 0.014504846094963879
-0.071415349187802762 0.4885532496587961 0.014524136665125104
-0.071420540907802782 0.48860133069015255 0.014576852473491358
-0.07145372441050174 0.48865096891260074 0.014725609533415075
-0.07148307244911542 0.48870116568704536 0.014861770652750354
-0.071369466573779961 0.48896574429098344 0.015124381529401668
-0.071293736307115912 0.48902656588767751 0.015300650569751228
-0.071198247158681144 0.48909652665164993 0.015522980741231646
-0.071359351707823218 0.48904633855728386 0.015662616358985672
-0.071602865399808743 0.48895442069537653 0.015831991021853849
-0.071634071889404294 0.48894310037223276 0.015856956593752809
-0.071988423577375366 0.48891486997367484 0.0164336357101556
-0.072031173601079274 0.48890789351555231 0.01649277164629466
-0.072225428012175741 0.48873181362925366 0.016087721295270113
-0.07223192642847108 0.48864365430435797 0.015960853458833885
-0.072214480021480953 0.48846559554468205 0.015660702614178422
-0.072193960044564159 0.48835296665478645 0.0154816971906006
-0.072178790714749044 0.48831800031802408 0.015436190660450785
-0.072152999271749188 0.48824410883736946 0.015332857972692595
-0.072101448424387621 0.48811826953964332 0.015165605952216861
-0.072073560562362221 0.48803229920332292 0.015061575448110636
-0.072058791042549003 0.48794574425386933 0.014951195511882322
-0.072049192068829704 0.48791829238158391 0.014918270878021679
-0.072003963398529991 0.48770315684296012 0.014705579550380894
-0.071950198816232797 0.48750781862861037 0.014521157574444476
-0.071896305275886696 0.48734838901600341 0.01437749506107874
-0.071890349259857045 0.48733322630846665 0.014364400659765882
-0.071798204010730809 0.48727340109960365 0.014225697657217221
-0.071690149439782941 0.48736833672699431 0.014123393365631358
-0.071486313589933292 0.4875554127498819 0.013915302364515925
-0.071468626954608455 0.48758551276499595 0.013902312252551226
-0.071455492635127626 0.48766590432828916 0.013913866824080804
-0.074133135701350161 0.48645089833974875 0.01796727400180961
-0.074133410477990908 0.48648298560666436 0.017959443688974553
-0.074143207943220338 0.48686397710359564 0.017870357364920444
-0.073923294544810364 0.48720121054650034 0.017655513431026452
-0.073922884323294025 0.48720208345888971 0.01765505191784824
-0.073891476676242504 0.48725251891902471 0.017615474673890585
-0.073880561463489577 0.48726006571882141 0.017599137708766754
-0.073865136297722594 0.48725723633863449 0.017572559091193471
-0.073841008884368814 0.48724282198621666 0.017528401412400078
-0.073766903076499815 0.48720529390309669 0.017372488782410642
-0.073727579999727733 0.48719094221102821 0.017273028085361145
-0.073530431393416862 0.48710357519763392 0.016820734533317703
-0.073530313023343896 0.4871030923601507 0.016820146387295551
-0.073483942524857973 0.48691677384933207 0.016597592810137743
-0.073458963010663458 0.48679137948866968 0.016408284288235597
-0.073437802712207817 0.48669868742120914 0.016285452280013844
-0.073434456696448255 0.486516873838093 0.016115261498040809
-0.073429371005887159 0.48644141179875122 0.016020225336283753
-0.073438299019086675 0.48616573947493663 0.01585457926783998
-0.073535568805140256 0.48597657271892347 0.015842805176322049
-0.07366897799403252 0.48570898003126839 0.015847567321690677
-0.073839180411183883 0.48539616731880175 0.015780254055960435
-0.073876385446273174 0.48536581673053736 0.015788893888827746
-0.073912375704440064 0.48535245858613046 0.015811343022753988
-0.073922039540789963 0.48535403086745255 0.015815129711132282
-0.074017462524436417 0.48539196869023299 0.015908392998556488
-0.074082540162010671 0.48543487043659395 0.01601444797286404
-0.074278734454991086 0.48552254737764611 0.016230320422470183
-0.074444482469334078 0.48560380087565069 0.016430598431938274
-0.074434950331365407 0.48566503074127593 0.016583369119772512
-0.074225317509752975 0.48571918549958581 0.016431780231547427
-0.074142017880277605 0.48574956544650555 0.016379348222533497
-0.074093304405394522 0.485819330740907 0.016394478171740681
-0.074142906917521678 0.48601740257432641 0.016954750590621535
-0.074152558298196364 0.48601071452425176 0.016967014448538514
-0.074452690365747698 0.48572097915660972 0.016760652804167608
-0.0744751568651877 0.4856967277230585 0.016726778849553411
-0.074573693734267171 0.48560934119676619 0.01662977291504595
-0.074621183016983561 0.48557040326989986 0.016606570708709502
-0.074627222472676974 0.48569231433707766 0.016945276784670674
-0.074574178150707715 0.48569091960143507 0.01703965937231942
-0.074548070161846017 0.48569023753552126 0.017086126385823335
-0.074487899423731602 0.48573481446399897 0.017080255086107922
-0.074158282560335936 0.48600736030112535 0.01697869127856487
-0.074153317504011745 0.48601174478993175 0.016979167855042821
-0.074157033105232362 0.4860283162010921 0.017121530787242434
-0.074198225566999523 0.48592551432543429 0.017533250836996833
-0.074194668882993531 0.48591432098724446 0.017603425191953268
-0.074152993954429786 0.48592461080476146 0.01768056561501221
-0.074161385995831261 0.48603064656867068 0.017731348462332416
-0.074109118327300078 0.48623932798470393 0.017870046239578691
-0.07412810988063219 0.48641001521210442 0.017948702849172805
-0.060227305094857513 0.49068814186795995 0.009014052990603684
-0.060195675081076108 0.49077633120378655 0.0090393171492266569
-0.060217658240595093 0.49098478296794512 0.0090812237040913228
-0.060232093561899458 0.49100020575720882 0.0090937020919453319
-0.060765831066481091 0.49069652299317801 0.0094468672294607606
-0.060905761723630089 0.49060570347797494 0.0095339735790569164
-0.061034705203174638 0.49053141437261616 0.0096188412233656987
-0.061293231357288154 0.49039074381776898 0.009793048084343281
-0.061238715523797914 0.4902747896526598 0.0097447014112567228
-0.061044631373459682 0.48995435326018133 0.009345715740723886
-0.060929372289855427 0.49003056245184973 0.0092746537651822586
-0.060848545817356048 0.49012213753212563 0.0092485558665728745
-0.060228478049962161 0.49106998621066572 0.0090996957140917906
-0.060491052107668739 0.49103704222779204 0.0092878566322939886
-0.060604889727351369 0.49102692349011756 0.0093699484298458736
-0.060664774711519112 0.49104658311268695 0.0094132534351730503
-0.061106406378341596 0.49123092289176606 0.0097366660734384096
-0.061195732824610036 0.49124050641560668 0.0098012792517432439
-0.061140572167449427 0.49129064109900011 0.0097630017445436788
-0.061130542730325726 0.49129942734583426 0.0097560325082517649
-0.060522025537748381 0.49174707538459683 0.0093307144104108723
-0.060428126816739494 0.49186708487255471 0.0092665587985855599
-0.060326423913202434 0.49168008429290888 0.0092369157974102022
-0.06031309375879701 0.4916589755614702 0.0092338901009042049
-0.060308867824890269 0.49163463425111287 0.0092284704881302887
-0.061402339198837155 0.49443173675372942 0.0092426179868565113
-0.061428845438762369 0.49443442820417383 0.0092556062402027826
-0.061586976233325125 0.49450214682625171 0.0093055014307751645
-0.06232345461921257 0.49501889292091938 0.0094303505831986392
-0.061528233040714544 0.49487613094321403 0.0090738052158758752
-0.061490432604513999 0.49488542044885364 0.0090482718399831422
-0.061407086370533687 0.49461455833255208 0.0091849386211126805
-0.061400616559896162 0.49453952947983204 0.0092116441695995876
-0.070241437483723967 0.49490160614542 0.0038787018418232353
-0.070016060439839392 0.49463231099260302 0.0038153058713331755
-0.069974875631423766 0.49460096573853285 0.0037976624996250482
-0.069916141800736575 0.49456695108243709 0.0037839728040999152
-0.0697284466622827 0.4944726690099096 0.0037308840502620344
-0.069557138543242372 0.49437255531041802 0.0036915409282062524
-0.069432453965029284 0.4943203974197582 0.0036901851956136411
-0.069136875634430356 0.49420754598686661 0.0036582950217265873
-0.068854723416272356 0.49412279742111476 0.0035668141710287317
-0.068595678686659278 0.49409873038399138 0.0036877056487163665
-0.068448164359871361 0.49408154286382588 0.0037829570980398835
-0.068175002146186603 0.49404896902771589 0.0039650021119571974
-0.068159938565811262 0.49404744210313778 0.0039729982665831619
-0.068142088529381029 0.49406113252981804 0.0040105274904399394
-0.068138834507987966 0.49409271350277484 0.0040700119579904544
-0.068148099227083772 0.49417963624165706 0.0042207204765351307
-0.068157162303954646 0.49429856984017884 0.0044146636414628794
-0.068142992710564787 0.49442743124033911 0.0045433625588946393
-0.06815924590032707 0.49453459431253932 0.0046342489867819431
-0.068177675249395733 0.49460788069332429 0.0046666702317002852
-0.068203177190521408 0.49470001194162094 0.0047059214582874376
-0.068327966081167479 0.49500755191529244 0.0046805996059024434
-0.0684260496219911 0.49521850530648936 0.0046140108122259913
-0.068531099682597241 0.49523582800683807 0.0045523540780172869
-0.068626526745441452 0.49534488307313562 0.0044920234135531704
-0.068692328695077576 0.49538690371891037 0.0044374585932740879
-0.068726315215816264 0.49540258356245581 0.0044069224086490527
-0.069123211606080162 0.4956997677335746 0.0040948908169477667
-0.069193788304279275 0.49575287082199093 0.0040395054598997161
-0.069033570860296462 0.49590244099427067 0.0039780718113571929
-0.069300727291124575 0.49602137101953736 0.0037749187072204718
-0.069527650727918958 0.49599601209990218 0.0037679694220880441
-0.069597324015127443 0.49598809888747963 0.0037659510981746282
-0.070256314000987863 0.49611276725737019 0.0035658752171620024
-0.070502860071764303 0.49615899965527127 0.0034915406333507013
-0.07064650775778536 0.49621133049412469 0.0034252217761514868
-0.070751029362539464 0.49625660090839485 0.0033704490462545368
-0.070754380885777651 0.49614515149112326 0.00349729554623466
-0.070743258047134161 0.49611687911173746 0.003513728670190586
-0.070726001024006391 0.49606855458428839 0.0035441244521209935
-0.070681028903870735 0.49607113343252679 0.0035477061276787403
-0.070430222180082214 0.49604816994672218 0.0036015183209721392
-0.069624754742602185 0.49597571831872589 0.0037735611689514955
-0.069602795813535762 0.4959715183311631 0.0037802696420398416
-0.069287542263530219 0.49577814717719282 0.0039972959957369509
-0.069678801575792981 0.49567759925264376 0.0039639039389436793
-0.070099895994805761 0.49569860910196356 0.0038751813447856355
-0.070417638462167614 0.49578396284508053 0.0037616267542953247
-0.070664621612945872 0.49586509696963932 0.0036736169287795652
-0.070653369875606359 0.4957269522296251 0.003758078546196154
-0.070652963992241524 0.49569178950198595 0.0037817309834549382
-0.070656822431165514 0.49568587759832444 0.0037850117141140106
-0.070550622071473293 0.49529961561477676 0.0038673916779957823
-0.070502549677502649 0.49516214580361462 0.0038929256168691445
-0.0702551822688329 0.49491304688507065 0.0038801658177933579
-0.077968823819526939 0.48795879209978488 0.022737554325352377
-0.077975844732350572 0.48795950942253297 0.022728179098684707
-0.077988519871019818 0.48795212719308961 0.022717062881886435
-0.07800014158791671 0.48795619530008272 0.022748994006401381
-0.062934195694437811 0.48907680269813314 0.011001256088024648
-0.062453267587275443 0.48946667600788285 0.010622158599790214
-0.062451868919085413 0.48947159016531971 0.010623084736333645
-0.062436184996388436 0.48952203801298899 0.010633168804151692
-0.062430933107621503 0.48954062063351939 0.010636654802640222
-0.062432330460083979 0.48958875533454893 0.010639159608773563
-0.06246677496398903 0.48956057326555702 0.010666228352752313
-0.062513017562466883 0.48952814441718645 0.010704292181919258
-0.063113519682187341 0.48913648420592115 0.011207975893949996
-0.063173503452719354 0.48901051137313467 0.0112584263354483
-0.067817219272692061 0.49645111366395567 0.0097239448716703938
-0.067386198153992466 0.49656462591943307 0.0095511478210913055
-0.067365160311081418 0.49656796269282744 0.0095475293216925709
-0.067333805789714679 0.49657203030267977 0.0095441150471837974
-0.067286456276798648 0.4965791222567546 0.0095368845303852832
-0.067317966615380809 0.4965771645921313 0.0095597763498891201
-0.067386661957709218 0.49657745348133214 0.0096192019641253273
-0.067625237069019711 0.49656609341260782 0.0097997559053404817
-0.0707545310641782 0.48909715608306031 0.016273484658397303
-0.070757356500412399 0.48910000427148698 0.016267716027707258
-0.070763213389354332 0.48910050142118827 0.016260171794696701
-0.070770566948748476 0.48909691401029193 0.016281445134278798
-0.056812996129706167 0.49479420224099646 0.0069235161293463993
-0.056817599054244536 0.49483794734566444 0.0069073381332340564
-0.056892230505788455 0.49499974695396687 0.0068078615129807491
-0.056936904970879408 0.49484013214712042 0.0069431614225016628
-0.061797226005637466 0.49601855275392276 0.0083410097290288233
-0.061746474033081818 0.49594739968846802 0.0084291656481289591
-0.061711402864643522 0.49589014422374483 0.0084961671393064576
-0.061712479950463181 0.49582490645186422 0.008544507029057364
-0.061883569641221881 0.4958988781970245 0.0085787531448177582
-0.061843719836820465 0.49599246511459638 0.0084151734416638667
-0.068037860418935447 0.48997046573874048 0.012698142392548288
-0.067979046722056513 0.48998957107513486 0.012667052562128779
-0.068065144739039796 0.4899470356282597 0.012831842682137067
-0.068076409643046121 0.48996174803437154 0.012752954871359374
-0.075795628020838418 0.49647489281702883 0.0028280503527419211
-0.075797838737879708 0.49646229049145574 0.0028461017221666452
-0.075795594984136488 0.49645483264119183 0.0028510309979875282
-0.075711091316877005 0.4964603386963502 0.0028564774671339713
-0.077555977207408311 0.4955846450600272 0.0011387610883047531
-0.077550638496541702 0.49575122409541317 0.001019820402411204
-0.077578424405983643 0.4958959970791359 0.00096997468893377263
-0.077621883006143921 0.49605944329900864 0.00093365462471076089
-0.077632744148866867 0.49608029558601968 0.0009287144266752023
-0.077804246612711736 0.49631187619739048 0.00097829526326239985
-0.07801841459951625 0.49619352527658472 0.00092845585789116426
-0.07811228266720846 0.49613918873253526 0.00090612746223829501
-0.078126546827147744 0.49611804043369157 0.00090020152192146644
-0.078655177443953311 0.49613001345466679 0.00086936457797990631
-0.078661853107803104 0.49612971962754249 0.0008692345554469922
-0.078663612283854517 0.4961304222389562 0.00086892420029565016
-0.07873669185392454 0.49614816626152869 0.00086847811283288149
-0.07874306559165048 0.49613427284719036 0.00086477599308561691
-0.078745361791581869 0.4961058473694589 0.00087475655044936249
-0.078767827763633141 0.49585833180174416 0.00095762392662437652
-0.078762815968532851 0.49583628691743309 0.00097646251194318922
-0.078713516830323349 0.49561687497302631 0.0011630095884990934
-0.078649280944025055 0.49552412221879794 0.0013127728633749794
-0.07863121620447569 0.49548365232003189 0.0013618396588235158
-0.078579628732408355 0.49544186773433785 0.0014087443791087934
-0.07850008265210115 0.49538290449916278 0.0014933103444875612
-0.078371243164843604 0.49537414957485615 0.0014830764772101879
-0.078261925512728814 0.49538273809181721 0.001447213595396729
-0.078161867716598402 0.49539614526591658 0.0014188652081196301
-0.077819088002735695 0.49543975289987474 0.0013198738454384771
-0.077635633159908374 0.49546144783556723 0.0012655671209408962
-0.077609280460963354 0.49548493821576906 0.001231307006824358
-0.077603709124171888 0.49549443802991033 0.001218176249616126
-0.077556473932967759 0.49558367525926672 0.0011394710260553005
-0.062580340467955214 0.49412179944345935 0.0097768084807265294
-0.062444402567644233 0.49395006566157801 0.0097685221795003295
-0.062162271839156874 0.49389469986531009 0.0096814328129113305
-0.062182522811789515 0.49362778438778221 0.0097505721177092407
-0.061768356475931409 0.4930963846595961 0.0097272233613563512
-0.061817016212033338 0.49294982711157115 0.0097784846682308323
-0.061852499145956551 0.49280764945940464 0.0098240613772023339
-0.062057386141621776 0.49284196795862861 0.0098886739287697145
-0.062056338466499231 0.49294710118854868 0.0098638956784402321
-0.062365192191556333 0.49337273486194566 0.0098744922368989123
-0.062441640230177467 0.49359638944277967 0.0098580668382788512
-0.062471724631559353 0.49366586726154416 0.009859576113679323
-0.060912679880857468 0.49290153384208679 0.0027057421393692493
-0.060051627457141876 0.49357077479362488 0.0021238219924271107
-0.061421416699886322 0.49402350187301636 0.0021178829483687878
-0.068280652165412903 0.4883466362953186 0.01100221648812294
-0.068012788891792297 0.48889806866645813 0.010810858570039272
-0.06811271607875824 0.48966926336288452 0.011572361923754215
-0.071750394999980927 0.48722952604293823 0.014342802576720715
-0.071490012109279633 0.48864752054214478 0.014846121892333031
-0.072007827460765839 0.48796850442886353 0.015003473497927189
-0.072197161614894867 0.48861822485923767 0.015954911708831787
-0.071446552872657776 0.48757162690162659 0.01391304936259985
-0.07389550656080246 0.48672035336494446 0.017726970836520195
-0.073476120829582214 0.48603475093841553 0.015997482463717461
-0.073488004505634308 0.48703038692474365 0.016886971890926361
-0.073873341083526611 0.48725378513336182 0.017612697556614876
-0.073867268860340118 0.48605230450630188 0.017908405512571335
-0.074056133627891541 0.48610448837280273 0.017038268968462944
-0.078508689999580383 0.49543464183807373 0.0015857112593948841
-0.07763613760471344 0.4960683286190033 0.00095131038688123226
-0.077609822154045105 0.49549797177314758 0.0012849437771365047
-0.065301820635795593 0.49193763732910156 0.0093296952545642853
-0.065300367772579193 0.49158895015716553 0.010152982547879219
-0.064792059361934662 0.49263694882392883 0.01000666618347168
-0.057829856872558594 0.49100226163864136 0.0070834062062203884
-0.056694258004426956 0.49292045831680298 0.0074170255102217197
-0.056941766291856766 0.4919373095035553 0.0073021254502236843
-0.057930339127779007 0.49196586012840271 0.0077475844882428646
-0.069818645715713501 0.49464055895805359 0.0036769830621778965
-0.070260681211948395 0.49515065550804138 0.0038074527401477098
-0.068693786859512329 0.49415168166160583 0.0033094845712184906
-0.069225840270519257 0.49577093124389648 0.0040119863115251064
-0.068626150488853455 0.49510428309440613 0.0043984209187328815
-0.068232350051403046 0.49447944760322571 0.0042562899179756641
-0.067015215754508972 0.49476325511932373 0.011037432588636875
-0.065937139093875885 0.49497243762016296 0.010968701913952827
-0.067312523722648621 0.4950336217880249 0.011617632582783699
-0.073588952422142029 0.49552863836288452 0.003316608490422368
-0.073932982981204987 0.49513387680053711 0.0030749428551644087
-0.075320802628993988 0.49574193358421326 0.0031124900560826063
-0.068678349256515503 0.49590596556663513 0.0099188769236207008
-0.078369118273258209 0.48713356256484985 0.022935075685381889
-0.073769457638263702 0.48630771040916443 0.016547644510865211
-0.074140764772891998 0.48571851849555969 0.016309482976794243
-0.074152670800685883 0.4860135018825531 0.016973286867141724
-0.073742389678955078 0.486774742603302 0.016996024176478386
-0.073724716901779175 0.48591169714927673 0.016012929379940033
-0.074582777917385101 0.48572200536727905 0.016948811709880829
-0.074084706604480743 0.48649385571479797 0.017559163272380829
-0.065281085669994354 0.49203118681907654 0.0098105370998382568
-0.062413223087787628 0.49362972378730774 0.009845418855547905
-0.061930101364850998 0.49298200011253357 0.0098259337246417999
-0.061504408717155457 0.49458932876586914 0.0092515470460057259
-0.057466816157102585 0.49144929647445679 0.0073313042521476746
-0.067029312252998352 0.49519479274749756 0.01171626802533865
-0.066263169050216675 0.49507126212120056 0.011228719726204872
-0.068390369415283203 0.49626827239990234 0.0099580287933349609
-0.068978354334831238 0.49629378318786621 0.010538412258028984
-0.068736769258975983 0.49536979198455811 0.0044270073994994164
-0.068777851760387421 0.49485263228416443 0.0044271601364016533
-0.069773450493812561 0.49503856897354126 0.004082708153873682
-0.070667468011379242 0.49613475799560547 0.0035118006635457277
-0.069600172340869904 0.49598166346549988 0.0037739311810582876
-0.069712936878204346 0.49554559588432312 0.0040463767945766449
-0.068622060120105743 0.49413353204727173 0.0037987267132848501
-0.068730764091014862 0.49441367387771606 0.0041920985095202923
-0.069754958152770996 0.49459090828895569 0.0038723205216228962
-0.060738299041986465 0.49363180994987488 0.0020713103003799915
-0.060704730451107025 0.49452707171440125 0.0017860161606222391
-0.062454942613840103 0.48952525854110718 0.010655645281076431
-0.061124715954065323 0.49128797650337219 0.0097551625221967697
-0.060867756605148315 0.49048727750778198 0.0094955805689096451
-0.068161971867084503 0.48985365033149719 0.012071415781974792
-0.068554095923900604 0.48860254883766174 0.011114018969237804
-0.068534351885318756 0.4890931248664856 0.011359700933098793
-0.068410508334636688 0.48953074216842651 0.011678487993776798
-0.072126083076000214 0.48837581276893616 0.015395024791359901
-0.071501880884170532 0.48857295513153076 0.014673039317131042
-0.071646623313426971 0.48808729648590088 0.014423268847167492
-0.071690753102302551 0.48758646845817566 0.014203893952071667
-0.071834579110145569 0.48882052302360535 0.015663381665945053
-0.078550525009632111 0.48775863647460938 0.022744391113519669
-0.074240311980247498 0.49604243040084839 0.0032309782691299915
-0.075372301042079926 0.49609470367431641 0.0031064508948475122
-0.074274763464927673 0.49561849236488342 0.0032836818136274815
-0.078134872019290924 0.49555745720863342 0.0012119960738345981
-0.078016377985477448 0.49609905481338501 0.00090271589579060674
-0.078077256679534912 0.49579551815986633 0.0010080169886350632
3  495 493 494
3  226 225 494
3  215 214 495
3  220 495 221
3  495 222 221
3  227 494 230
3  209 493 210
3  214 493 495
3  495 220 216
3  215 495 216
3  213 212 493
3  211 210 493
3  212 211 493
3  494 207 206
3  494 206 205
3  493 214 213
3  493 209 494
3  227 226 494
3  231 230 494
3  205 231 494
3  225 495 494
3  218 217 219
3  219 217 220
3  217 216 220
3  494 209 208
3  494 208 207
3  495 223 222
3  224 223 495
3  225 224 495
3  229 228 230
3  228 227 230
3  53 497 498
3  72 498 497
3  51 496 497
3  53 63 54
3  46 496 49
3  79 496 41
3  77 76 497
3  47 46 49
3  48 47 49
3  50 496 51
3  63 53 498
3  55 63 62
3  55 62 61
3  54 63 55
3  60 58 57
3  60 57 61
3  56 55 61
3  57 56 61
3  59 58 60
3  498 66 65
3  498 65 64
3  498 64 63
3  51 497 52
3  52 497 53
3  496 79 497
3  79 78 497
3  78 77 497
3  50 49 496
3  46 45 496
3  498 70 69
3  43 45 44
3  496 42 41
3  496 45 43
3  496 43 42
3  76 75 497
3  497 75 74
3  497 74 72
3  71 70 498
3  72 71 498
3  73 72 74
3  69 68 498
3  498 68 66
3  68 67 66
3  258 499 501
3  500 501 499
3  249 502 248
3  243 500 242
3  236 500 503
3  503 500 499
3  249 250 502
3  500 502 501
3  264 265 503
3  263 503 499
3  263 264 503
3  262 263 499
3  501 257 258
3  260 261 499
3  259 260 499
3  258 259 499
3  500 244 502
3  243 244 500
3  247 248 502
3  499 261 262
3  502 244 245
3  502 245 246
3  502 246 247
3  239 500 238
3  237 238 236
3  238 500 236
3  501 254 255
3  501 255 256
3  501 256 257
3  239 240 500
3  500 240 241
3  500 241 242
3  503 265 266
3  503 266 232
3  253 501 502
3  250 252 502
3  251 252 250
3  254 501 253
3  252 253 502
3  232 233 503
3  503 235 236
3  503 233 235
3  233 234 235
3  288 299 298
3  509 505 506
3  271 270 507
3  509 504 508
3  315 508 316
3  314 313 315
3  300 299 509
3  290 292 291
3  284 505 285
3  274 507 275
3  509 506 504
3  308 305 304
3  508 504 507
3  504 506 507
3  507 274 273
3  299 505 509
3  505 288 287
3  505 286 285
3  505 287 286
3  299 288 505
3  290 288 298
3  290 297 296
3  289 288 290
3  290 298 297
3  272 271 507
3  507 273 272
3  309 308 303
3  304 303 308
3  506 282 281
3  280 506 281
3  506 280 279
3  506 279 278
3  505 282 506
3  283 282 505
3  284 283 505
3  509 312 311
3  311 310 301
3  509 311 300
3  302 309 303
3  310 309 302
3  300 311 301
3  301 310 302
3  293 290 296
3  294 293 296
3  292 290 293
3  295 294 296
3  307 305 308
3  306 305 307
3  267 508 268
3  270 508 507
3  268 508 270
3  268 270 269
3  267 318 508
3  317 316 508
3  318 317 508
3  506 276 507
3  277 506 278
3  277 276 506
3  275 507 276
3  508 315 313
3  508 313 509
3  313 312 509
3  449 447 450
3  448 447 449
3  463 510 461
3  465 463 464
3  459 512 511
3  453 511 512
3  473 474 510
3  510 472 473
3  477 512 476
3  475 476 510
3  475 510 474
3  476 512 510
3  512 461 510
3  462 463 461
3  461 512 460
3  460 512 459
3  512 451 452
3  453 454 511
3  452 453 512
3  463 469 510
3  467 463 465
3  470 510 469
3  467 465 466
3  469 463 467
3  469 467 468
3  510 470 471
3  510 471 472
3  511 454 455
3  511 455 456
3  456 457 511
3  511 457 459
3  457 458 459
3  512 478 479
3  512 479 480
3  512 480 451
3  477 478 512
3  490 482 484
3  492 481 491
3  491 481 490
3  482 490 481
3  490 485 489
3  487 489 486
3  484 485 490
3  488 489 487
3  483 484 482
3  489 485 486
3  98 96 99
3  114 107 115
3  112 110 109
3  92 513 515
3  119 514 84
3  99 515 104
3  106 515 107
3  513 107 515
3  103 101 104
3  104 101 100
3  513 117 116
3  514 85 84
3  514 90 88
3  93 92 515
3  90 89 88
3  113 112 108
3  109 108 112
3  107 113 108
3  115 513 116
3  115 107 513
3  114 113 107
3  111 110 112
3  97 96 98
3  102 101 103
3  513 92 91
3  513 90 514
3  513 91 90
3  100 99 104
3  105 104 515
3  106 105 515
3  514 118 513
3  118 117 513
3  119 118 514
3  514 88 86
3  86 88 87
3  514 86 85
3  95 99 96
3  93 515 95
3  95 515 99
3  93 95 94
3  149 517 151
3  162 161 519
3  177 519 516
3  175 173 172
3  144 518 517
3  159 156 518
3  180 516 181
3  176 519 177
3  180 179 516
3  516 179 178
3  516 178 177
3  172 176 175
3  171 519 172
3  172 519 176
3  516 519 161
3  516 160 518
3  516 161 160
3  518 160 159
3  518 140 181
3  518 181 516
3  518 143 142
3  518 141 140
3  518 142 141
3  519 167 165
3  517 156 155
3  167 166 165
3  165 164 519
3  164 163 162
3  164 162 519
3  156 517 518
3  157 156 159
3  158 157 159
3  517 155 153
3  153 151 517
3  151 153 152
3  155 154 153
3  151 150 149
3  146 517 147
3  148 517 149
3  147 517 148
3  517 145 144
3  144 143 518
3  171 170 519
3  519 170 169
3  519 169 167
3  167 169 168
3  174 173 175
3  146 145 517
3  524 525 521
3  520 525 522
3  357 520 522
3  402 521 404
3  364 525 365
3  371 370 525
3  380 523 381
3  374 524 375
3  354 353 520
3  521 525 520
3  380 379 523
3  396 523 397
3  525 364 522
3  524 374 525
3  382 381 523
3  352 520 353
3  352 521 520
3  386 392 387
3  393 386 385
3  387 391 388
3  392 391 387
3  393 392 386
3  354 520 355
3  355 520 356
3  356 520 357
3  524 397 523
3  397 524 398
3  401 400 521
3  402 401 521
3  523 396 382
3  393 385 394
3  395 394 384
3  383 395 384
3  396 395 383
3  396 383 382
3  384 394 385
3  398 524 521
3  399 398 521
3  400 399 521
3  389 388 390
3  390 388 391
3  360 359 522
3  522 359 358
3  522 358 357
3  368 367 369
3  367 366 369
3  525 374 373
3  525 373 372
3  525 372 371
3  352 406 521
3  404 521 405
3  403 402 404
3  521 406 405
3  522 364 363
3  361 522 362
3  522 361 360
3  362 522 363
3  377 524 378
3  379 524 523
3  376 524 377
3  375 524 376
3  378 524 379
3  369 525 370
3  525 366 365
3  369 366 525
3  17 39 40
3  36 528 35
3  26 526 25
3  19 17 18
3  526 528 527
3  30 528 29
3  527 20 21
3  528 30 31
3  527 21 22
3  527 22 23
3  526 26 27
3  526 27 28
3  526 28 29
3  29 528 526
3  528 31 33
3  528 33 34
3  31 32 33
3  527 25 526
3  24 527 23
3  24 25 527
3  527 37 38
3  527 38 17
3  17 38 39
3  17 19 527
3  20 527 19
3  528 37 527
3  36 37 528
3  35 528 34
3  332 334 339
3  333 334 332
3  341 343 340
3  343 331 340
3  342 343 341
3  331 332 339
3  335 338 334
3  339 340 331
3  338 339 334
3  337 338 335
3  336 337 335
3  322 329 323
3  327 326 328
3  321 319 322
3  330 329 322
3  319 330 322
3  328 326 325
3  324 323 329
3  328 325 329
3  329 325 324
3  320 319 321
3  416 412 417
3  419 411 420
3  417 412 418
3  418 411 419
3  411 418 412
3  415 414 416
3  413 412 416
3  414 413 416
3  202 529 201
3  190 531 189
3  185 529 184
3  531 529 530
3  184 529 183
3  192 531 191
3  198 531 197
3  530 186 187
3  531 198 529
3  182 183 529
3  190 191 531
3  193 531 192
3  194 531 193
3  200 201 529
3  198 199 529
3  529 199 200
3  204 202 203
3  529 202 204
3  529 204 182
3  529 185 530
3  185 186 530
3  531 194 195
3  531 195 197
3  197 195 196
3  530 187 188
3  188 189 530
3  189 531 530
3  440 438 439
3  438 440 437
3  442 437 440
3  441 442 440
3  130 123 124
3  134 532 133
3  122 532 121
3  135 136 532
3  532 134 135
3  129 130 125
3  124 125 130
3  127 128 126
3  129 126 128
3  129 125 126
3  132 123 131
3  132 532 123
3  131 123 130
3  121 532 120
3  122 123 532
3  532 136 137
3  532 137 120
3  137 138 120
3  120 138 139
3  132 133 532
3  82 80 83
3  81 80 82
3  444 445 443
3  446 443 445
3  436 435 433
3  434 433 435
3  350 344 349
3  351 344 350
3  345 348 344
3  346 348 345
3  348 349 344
3  347 348 346
3  16 15 13
3  14 13 15
3  10 11 9
3  533 2 4
3  2 3 4
3  533 4 5
3  533 7 8
3  6 533 5
3  533 6 7
3  533 8 0
3  9 11 8
3  8 12 0
3  12 8 11
3  1 2 533
3  0 1 533
3  427 421 426
3  427 428 421
3  426 421 425
3  422 423 424
3  424 425 421
3  422 424 421
3  408 407 409
3  410 409 407
3  432 431 429
3  430 429 431
3  540 537 536
3  536 537 534
3  311 312 536
3  316 313 314
3  301 539 536
3  307 309 539
3  535 534 538
3  275 271 274
3  270 540 269
3  277 537 276
3  268 540 318
3  286 538 285
3  284 534 283
3  292 287 288
3  292 293 538
3  306 304 305
3  279 537 278
3  281 534 280
3  535 293 294
3  313 316 540
3  316 317 540
3  537 280 534
3  538 286 287
3  539 306 307
3  297 298 535
3  302 539 301
3  276 270 275
3  276 540 270
3  294 295 535
3  313 540 312
3  312 540 536
3  304 306 539
3  534 284 538
3  536 310 311
3  310 539 309
3  310 536 539
3  309 307 308
3  287 292 538
3  291 292 288
3  291 288 289
3  284 285 538
3  271 275 270
3  272 274 271
3  272 273 274
3  537 279 280
3  290 291 289
3  534 281 282
3  534 282 283
3  540 276 537
3  534 299 300
3  534 300 536
3  299 534 535
3  298 299 535
3  536 300 301
3  277 278 537
3  293 535 538
3  315 316 314
3  267 268 318
3  297 295 296
3  303 539 302
3  535 295 297
3  303 304 539
3  317 318 540
3  268 269 540
3  111 541 92
3  87 89 86
3  109 106 108
3  97 102 96
3  117 115 116
3  541 118 119
3  88 89 87
3  541 111 112
3  541 113 114
3  541 112 113
3  91 92 541
3  109 110 92
3  109 93 94
3  110 111 92
3  109 92 93
3  105 95 104
3  104 95 96
3  104 96 102
3  103 104 102
3  100 102 97
3  100 101 102
3  99 100 98
3  98 100 97
3  105 106 94
3  95 105 94
3  94 106 109
3  106 107 108
3  91 541 90
3  90 541 86
3  89 90 86
3  115 118 541
3  118 115 117
3  541 119 84
3  541 84 86
3  84 85 86
3  114 115 541
3  439 441 440
3  438 441 439
3  438 442 441
3  437 442 438
3  482 481 492
3  484 543 485
3  491 490 542
3  486 485 543
3  543 484 542
3  492 491 542
3  543 487 486
3  542 482 492
3  488 487 543
3  543 489 488
3  489 543 490
3  490 543 542
3  482 542 483
3  542 484 483
3  348 350 349
3  544 351 350
3  544 348 347
3  350 348 544
3  345 351 544
3  345 344 351
3  544 347 346
3  345 544 346
3  434 436 433
3  435 436 434
3  157 144 145
3  160 161 545
3  144 158 159
3  178 545 177
3  148 149 153
3  154 148 153
3  150 152 149
3  149 152 153
3  160 545 159
3  159 545 142
3  159 142 143
3  143 144 159
3  545 172 174
3  161 172 545
3  172 173 174
3  164 165 169
3  170 163 164
3  170 164 169
3  148 154 155
3  148 155 147
3  156 157 147
3  155 156 147
3  151 152 150
3  176 177 545
3  174 176 545
3  174 175 176
3  166 168 165
3  165 168 169
3  167 168 166
3  545 181 140
3  545 140 141
3  545 141 142
3  545 178 179
3  545 179 181
3  181 179 180
3  157 158 144
3  157 145 146
3  157 146 147
3  163 170 162
3  171 172 162
3  170 171 162
3  162 172 161
3  39 19 18
3  21 38 547
3  27 547 546
3  33 35 34
3  36 546 547
3  30 546 31
3  35 546 36
3  33 32 546
3  25 24 547
3  40 39 18
3  32 31 546
3  29 546 30
3  35 33 546
3  546 29 28
3  546 28 27
3  25 27 26
3  25 547 27
3  547 38 37
3  547 37 36
3  38 19 39
3  21 547 22
3  21 20 38
3  20 19 38
3  24 22 547
3  24 23 22
3  17 40 18
3  139 121 120
3  127 549 130
3  133 548 137
3  124 549 125
3  548 122 121
3  549 133 132
3  549 132 131
3  127 130 128
3  130 129 128
3  131 130 549
3  548 133 549
3  136 133 137
3  135 134 136
3  134 133 136
3  123 548 549
3  123 122 548
3  124 123 549
3  548 139 138
3  121 139 548
3  138 137 548
3  127 126 549
3  549 126 125
3  428 422 421
3  422 428 427
3  423 426 424
3  423 427 426
3  425 424 426
3  423 422 427
3  381 554 396
3  378 379 550
3  555 552 550
3  550 552 551
3  376 550 375
3  552 558 551
3  551 558 557
3  370 371 557
3  367 557 556
3  384 385 554
3  404 405 555
3  355 558 354
3  358 359 557
3  357 558 356
3  361 556 360
3  377 378 550
3  379 555 550
3  386 387 553
3  383 384 554
3  550 376 377
3  368 557 367
3  551 372 373
3  556 362 363
3  558 355 356
3  553 390 392
3  390 391 392
3  553 387 389
3  388 389 387
3  359 360 556
3  551 375 550
3  375 551 373
3  374 375 373
3  395 396 554
3  396 555 379
3  396 397 555
3  381 396 380
3  380 396 379
3  368 369 557
3  557 369 370
3  553 389 390
3  372 551 371
3  371 551 557
3  558 358 557
3  357 358 558
3  353 558 552
3  352 353 552
3  406 352 552
3  386 553 385
3  385 553 554
3  405 552 555
3  553 392 393
3  553 393 554
3  554 393 394
3  400 401 399
3  555 398 403
3  394 395 554
3  399 401 402
3  398 399 403
3  397 398 555
3  399 402 403
3  361 362 556
3  363 366 556
3  363 365 366
3  556 366 367
3  363 364 365
3  403 404 555
3  554 381 383
3  381 382 383
3  405 406 552
3  359 556 557
3  353 354 558
3  211 212 559
3  217 212 216
3  219 559 218
3  231 560 229
3  231 205 206
3  211 559 209
3  560 228 229
3  559 219 560
3  559 217 218
3  212 217 559
3  208 209 559
3  211 209 210
3  214 216 212
3  215 216 214
3  213 214 212
3  206 207 559
3  559 207 208
3  560 219 221
3  560 221 222
3  219 220 221
3  560 231 559
3  230 231 229
3  224 227 560
3  560 227 228
3  224 225 227
3  225 226 227
3  559 231 206
3  560 222 223
3  560 223 224
3  415 416 417
3  412 561 411
3  561 414 415
3  417 418 561
3  561 413 414
3  561 415 417
3  420 411 561
3  413 561 412
3  561 418 420
3  418 419 420
3  343 333 332
3  333 343 334
3  342 341 339
3  338 337 562
3  337 336 562
3  562 339 338
3  342 339 562
3  335 562 336
3  335 334 562
3  334 343 342
3  334 342 562
3  340 339 341
3  343 332 331
3  329 563 328
3  324 325 563
3  327 328 563
3  330 563 329
3  563 330 319
3  319 320 563
3  324 563 323
3  563 325 327
3  325 326 327
3  320 321 322
3  320 323 563
3  323 320 322
3  71 72 567
3  71 567 70
3  59 564 58
3  62 63 60
3  47 566 44
3  74 566 73
3  57 567 53
3  564 67 68
3  567 58 564
3  47 48 566
3  565 43 44
3  567 57 58
3  59 63 564
3  63 64 564
3  60 63 59
3  65 66 564
3  564 66 67
3  564 68 567
3  69 567 68
3  70 567 69
3  564 64 65
3  72 566 567
3  566 75 565
3  74 75 566
3  72 73 566
3  61 62 60
3  565 44 566
3  46 47 44
3  45 46 44
3  42 43 565
3  52 48 51
3  566 48 52
3  54 55 56
3  51 48 49
3  50 51 49
3  565 75 78
3  75 77 78
3  75 76 77
3  565 79 42
3  79 41 42
3  565 78 79
3  566 52 53
3  54 56 53
3  56 57 53
3  53 567 566
3  263 571 264
3  266 571 232
3  234 233 570
3  258 570 259
3  256 569 570
3  255 254 569
3  234 570 235
3  568 572 569
3  238 569 239
3  243 572 244
3  249 572 250
3  246 248 247
3  568 252 251
3  568 253 252
3  572 246 245
3  255 569 256
3  569 238 237
3  569 235 570
3  568 250 572
3  249 248 572
3  568 251 250
3  253 568 254
3  254 568 569
3  266 264 571
3  266 265 264
3  260 259 571
3  257 256 570
3  258 257 570
3  571 263 262
3  571 262 261
3  261 260 571
3  571 259 570
3  237 236 569
3  569 236 235
3  572 239 569
3  239 572 240
3  248 246 572
3  242 241 243
3  233 571 570
3  233 232 571
3  572 243 241
3  240 572 241
3  244 572 245
3  573 2 1
3  12 573 0
3  10 9 8
3  7 6 573
3  573 3 2
3  573 6 5
3  5 3 573
3  5 4 3
3  573 10 7
3  8 7 10
3  573 12 10
3  12 11 10
3  1 0 573
3  201 574 202
3  204 203 576
3  204 183 182
3  189 188 576
3  199 575 200
3  193 575 194
3  193 192 575
3  191 574 192
3  189 576 190
3  574 191 576
3  574 200 575
3  192 574 575
3  196 195 575
3  191 190 576
3  201 200 574
3  187 185 188
3  186 185 187
3  203 202 574
3  203 574 576
3  575 199 198
3  197 196 198
3  198 196 575
3  183 204 576
3  195 194 575
3  576 185 184
3  188 185 576
3  576 184 183
3  480 479 579
3  467 579 577
3  464 462 465
3  453 579 578
3  475 474 577
3  579 466 465
3  466 579 467
3  473 471 474
3  472 471 473
3  460 465 461
3  579 465 460
3  579 460 578
3  461 465 462
3  455 454 578
3  578 454 453
3  469 468 577
3  462 464 463
3  459 458 578
3  460 459 578
3  577 471 469
3  474 471 577
3  471 470 469
3  577 476 475
3  577 479 476
3  479 477 476
3  479 478 477
3  452 480 579
3  452 451 480
3  578 457 456
3  456 455 578
3  577 468 467
3  452 579 453
3  479 577 579
3  578 458 457
3  449 450 448
3  447 448 450
3  445 444 446
3  446 444 443
3  429 430 432
3  431 432 430
3  410 408 409
3  407 408 410
3  82 83 81
3  80 81 83
3  15 16 14
3  13 14 16

